{
.appVersion = "1342";
DisplayStrings = (
"/Abreve.ss01",
"ABCDEFGHIHolaHJHHKHHLMNOPQ\012RSTUVWXYZ",
"/tcedilla.titl T",
"/A.ss01/B.ss01/C.ss01/D.ss01/E.ss01/F.ss01/G.ss01/H.ss01/I.ss01/J.ss01/K.ss01/L.ss01/M.ss01/N.ss01/Eng.ss01/O.ss01/P.ss01/Q.ss01/R.ss01/S.ss01/T.ss01/U.ss01/V.ss01/W.ss01/X.ss01/Y.ss01/Z.ss01",
"/v_v.ss01",
"/Aacute.ss01",
"T/commaaccentcomb TT/commaaccentcomb/Tcommaaccent THT/Tcommaaccent olimaH/Tcedilla/Tcedilla.ss01/Tcedilla.ss02/Tcedilla.ss03/Tcedilla.titl/tcedilla/tcedilla.ss03/tcedilla.titl",
"/Tcedilla/Tcedilla.ss01/Tcedilla.ss02/Tcedilla.ss03/Tcedilla.titl t/tcommaaccent/tcedilla/tcedilla.ss03/t.titl/tcommaaccent.titl/tcedilla.titl",
"/f_g.alt.ss02/f_g.ss02",
"/f_f/space/f_f_i/space/f_f_l/space/fi/space/fl \012ff/space ffi/space ffl/space fi/space fl\012/longs_t/space/b_f.ss01/space/b_r.ss01/space/b_s.ss01/space/b_v.ss01/space/b_w.ss01/space \012/longs t/space b/f.ss01.001/space b/r.long/space/b.ss01 \012/f_f.ss01/space/f_f_i.ss01/space/f_f_l.ss01/space/f_g.ss01/space/f_j.ss01/space/longs_t.formal.ss01/space \012/f.ss01/f.ss01/space/f.ss01/f.ss01/space/f.ss01/f.ss01/space/f.ss01/g.ss01/space/f.ss01 \012/g_y.ss01/l_l.ss01/o_v.ss01/v_f.ss01/v_v.ss01/v_w.ss01/v_x.ss01/f_g.alt.ss02/b_r.ss02/b_s.ss02/f_g.ss02/f_f.titl/f_f_i.titl/f_f_l.titl/fi.titl/fl.titl",
"/a.bounce.001/a.bounce",
"/dieresiscomb/dotaccentcomb/gravecomb/acutecomb/hungarumlautcomb/caroncomb.alt/circumflexcomb/caroncomb/brevecomb/ringcomb/tildecomb/tildecomb_dotaccentcomb/tildecomb_macroncomb/macroncomb/hookabovecomb/dblgravecomb/breveinvertedcomb/commaturnedabovecomb/horncomb/dotbelowcomb/dieresisbelowcomb/commaaccentcomb/cedillacomb/ogonekcomb/brevebelowcomb/macronbelowcomb/strokeshortcomb",
"/commaaccent/commaaccentcomb/Scommaaccent/Tcommaaccent/scommaaccent/tcommaaccent/tcommaaccent.titl",

glyphs = (
{
color = 0;
glyphname = .notdef;
lastChange = "2021-05-17 19:56:03 +0000";
layers = (
{
layerId = "1C8B4FDB-B0E8-4411-8E26-068C67144FEF";
paths = (
{
closed = 1;
nodes = (
"49 0 LINE",
"436 0 LINE",
"444 9 LINE",
"444 573 LINE",
"436 582 LINE",
"49 582 LINE",
"40 573 LINE",
"40 9 LINE"
);
},
{
closed = 1;
nodes = (
"56 566 LINE",
"430 566 LINE",
"430 16 LINE",
"56 16 LINE"
);
},
{
closed = 1;
nodes = (
"87 45 LINE",
"397 45 LINE",
"397 533 LINE",
"87 533 LINE"
);
},
{
closed = 1;
nodes = (
"136 139 LINE",
"219 292 LINE",
"136 443 LINE",
"153 476 LINE",
"236 324 LINE",
"321 476 LINE",
"340 443 LINE",
"254 290 LINE",
"340 139 LINE",
"321 107 LINE",
"236 257 LINE",
"153 107 LINE"
);
}
);
width = 484;
}
);
note = .notdef;
},
{
color = 0;
glyphname = A;
lastChange = "2021-06-23 01:25:43 +0000";
layers = (
{
anchors = (
{
name = cedilla;
position = "{196, -42}";
},
{
name = ogonek;
position = "{370, 10}";
},
{
name = top;
position = "{523, 572}";
}
);
background = {
paths = (
{
closed = 1;
nodes = (
"44 -11 LINE",
"44 -9 LINE",
"52 16 OFFCURVE",
"74 57 OFFCURVE",
"95 86 CURVE",
"124 98 OFFCURVE",
"186 111 OFFCURVE",
"278 115 CURVE",
"273 98 OFFCURVE",
"270 77 OFFCURVE",
"269 54 CURVE SMOOTH",
"269 29 OFFCURVE",
"273 11 OFFCURVE",
"282 1 CURVE SMOOTH",
"287 -4 OFFCURVE",
"293 -8 OFFCURVE",
"299 -7 CURVE SMOOTH",
"305 -6 LINE",
"307 -5 LINE",
"306 -3 LINE",
"305 4 OFFCURVE",
"304 9 OFFCURVE",
"304 14 CURVE SMOOTH",
"304 35 OFFCURVE",
"309 68 OFFCURVE",
"320 114 CURVE",
"335 115 OFFCURVE",
"355 108 OFFCURVE",
"355 105 CURVE",
"358 104 LINE",
"358 107 LINE SMOOTH",
"358 122 OFFCURVE",
"343 140 OFFCURVE",
"327 141 CURVE",
"338 188 OFFCURVE",
"354 236 OFFCURVE",
"373 286 CURVE SMOOTH",
"392 336 OFFCURVE",
"406 375 OFFCURVE",
"426 395 CURVE SMOOTH",
"427 396 LINE",
"426 397 LINE SMOOTH",
"422 401 OFFCURVE",
"416 410 OFFCURVE",
"405 421 CURVE SMOOTH",
"394 431 OFFCURVE",
"381 436 OFFCURVE",
"368 436 CURVE SMOOTH",
"347 436 OFFCURVE",
"315 416 OFFCURVE",
"273 375 CURVE SMOOTH",
"230 334 OFFCURVE",
"188 289 OFFCURVE",
"147 238 CURVE SMOOTH",
"105 187 OFFCURVE",
"75 149 OFFCURVE",
"56 122 CURVE",
"43 122 OFFCURVE",
"31 125 OFFCURVE",
"19 130 CURVE SMOOTH",
"17 131 OFFCURVE",
"14 132 OFFCURVE",
"11 132 CURVE SMOOTH",
"8 132 OFFCURVE",
"7 132 OFFCURVE",
"6 131 CURVE SMOOTH",
"-1 122 OFFCURVE",
"12 96 OFFCURVE",
"39 94 CURVE",
"32 87 OFFCURVE",
"26 78 OFFCURVE",
"22 69 CURVE",
"14 57 OFFCURVE",
"10 45 OFFCURVE",
"10 32 CURVE SMOOTH",
"10 8 OFFCURVE",
"21 -6 OFFCURVE",
"42 -11 CURVE"
);
},
{
closed = 1;
nodes = (
"130 142 OFFCURVE",
"147 165 OFFCURVE",
"170 195 CURVE SMOOTH",
"193 225 OFFCURVE",
"219 255 OFFCURVE",
"246 286 CURVE SMOOTH",
"313 362 OFFCURVE",
"363 406 OFFCURVE",
"378 403 CURVE SMOOTH",
"380 403 OFFCURVE",
"383 402 OFFCURVE",
"387 401 CURVE",
"347 333 OFFCURVE",
"314 247 OFFCURVE",
"287 144 CURVE",
"256 145 OFFCURVE",
"201 139 OFFCURVE",
"120 126 CURVE"
);
}
);
};
hints = (
{
place = "{-37, 28}";
type = Stem;
},
{
place = "{110, 69}";
type = Stem;
},
{
place = "{348, 27}";
type = Stem;
},
{
place = "{548, 65}";
type = Stem;
},
{
place = "{614, 10}";
type = Stem;
}
);
layerId = "1C8B4FDB-B0E8-4411-8E26-068C67144FEF";
paths = (
{
closed = 1;
nodes = (
"64 23 OFFCURVE",
"91 75 OFFCURVE",
"118 112 CURVE",
"149 124 OFFCURVE",
"224 144 OFFCURVE",
"353 149 CURVE",
"334 93 OFFCURVE",
"331 -14 OFFCURVE",
"381 -3 CURVE",
"373 34 OFFCURVE",
"392 122 OFFCURVE",
"399 148 CURVE",
"421 150 OFFCURVE",
"446 136 OFFCURVE",
"446 136 CURVE",
"446 154 OFFCURVE",
"426 176 OFFCURVE",
"406 176 CURVE",
"435 298 OFFCURVE",
"492 443 OFFCURVE",
"531 497 CURVE",
"531 497 OFFCURVE",
"500 545 OFFCURVE",
"461 545 CURVE SMOOTH",
"375 545 OFFCURVE",
"122 225 OFFCURVE",
"73 153 CURVE",
"55 153 OFFCURVE",
"37 156 OFFCURVE",
"24 162 CURVE SMOOTH",
"-5 178 OFFCURVE",
"8 124 OFFCURVE",
"55 123 CURVE",
"40 107 OFFCURVE",
"16 71 OFFCURVE",
"16 42 CURVE SMOOTH",
"16 19 OFFCURVE",
"23 -3 OFFCURVE",
"54 -9 CURVE"
);
},
{
closed = 1;
nodes = (
"196 240 OFFCURVE",
"455 552 OFFCURVE",
"488 504 CURVE",
"414 379 OFFCURVE",
"371 217 OFFCURVE",
"361 180 CURVE",
"319 181 OFFCURVE",
"212 167 OFFCURVE",
"146 156 CURVE"
);
}
);
width = 480;
}
);
note = A;
unicode = 0041;
},
{
color = 0;
glyphname = Aacute;
lastChange = "2021-05-17 19:56:03 +0000";
layers = (
{
hints = (
{
place = "{-37, 28}";
type = Stem;
},
{
place = "{110, 69}";
type = Stem;
},
{
place = "{348, 27}";
type = Stem;
},
{
place = "{548, 65}";
type = Stem;
},
{
place = "{614, 10}";
type = Stem;
},
{
horizontal = 1;
place = "{620, 118}";
type = Stem;
},
{
place = "{438, 157}";
type = Stem;
}
);
layerId = "1C8B4FDB-B0E8-4411-8E26-068C67144FEF";
paths = (
{
closed = 1;
nodes = (
"531 497 OFFCURVE",
"500 545 OFFCURVE",
"461 545 CURVE SMOOTH",
"375 545 OFFCURVE",
"122 225 OFFCURVE",
"73 153 CURVE",
"55 153 OFFCURVE",
"37 156 OFFCURVE",
"24 162 CURVE SMOOTH",
"-5 178 OFFCURVE",
"8 124 OFFCURVE",
"55 123 CURVE",
"40 107 OFFCURVE",
"16 71 OFFCURVE",
"16 42 CURVE SMOOTH",
"16 19 OFFCURVE",
"23 -3 OFFCURVE",
"54 -9 CURVE",
"64 23 OFFCURVE",
"91 75 OFFCURVE",
"118 112 CURVE",
"149 124 OFFCURVE",
"224 144 OFFCURVE",
"353 149 CURVE",
"334 93 OFFCURVE",
"331 -14 OFFCURVE",
"381 -3 CURVE",
"373 34 OFFCURVE",
"392 122 OFFCURVE",
"399 148 CURVE",
"421 150 OFFCURVE",
"446 136 OFFCURVE",
"446 136 CURVE",
"446 154 OFFCURVE",
"426 176 OFFCURVE",
"406 176 CURVE",
"435 298 OFFCURVE",
"492 443 OFFCURVE",
"531 497 CURVE"
);
},
{
closed = 1;
nodes = (
"414 379 OFFCURVE",
"371 217 OFFCURVE",
"361 180 CURVE",
"319 181 OFFCURVE",
"212 167 OFFCURVE",
"146 156 CURVE",
"196 240 OFFCURVE",
"455 552 OFFCURVE",
"488 504 CURVE"
);
},
{
closed = 1;
nodes = (
"604 701 OFFCURVE",
"592 710 OFFCURVE",
"584 711 CURVE SMOOTH",
"580 712 OFFCURVE",
"575 712 OFFCURVE",
"572 709 CURVE",
"557 703 OFFCURVE",
"462 640 OFFCURVE",
"444 635 CURVE SMOOTH",
"434 633 OFFCURVE",
"432 630 OFFCURVE",
"432 629 CURVE SMOOTH",
"432 627 OFFCURVE",
"435 625 OFFCURVE",
"439 624 CURVE SMOOTH",
"445 623 OFFCURVE",
"456 623 OFFCURVE",
"469 626 CURVE",
"507 629 OFFCURVE",
"620 680 OFFCURVE",
"618 692 CURVE SMOOTH",
"618 693 OFFCURVE",
"616 694 OFFCURVE",
"615 695 CURVE"
);
}
);
width = 480;
}
);
note = Aacute;
unicode = 00C1;
},
{
color = 0;
glyphname = Abreve;
lastChange = "2021-05-17 19:56:03 +0000";
layers = (
{
hints = (
{
place = "{-37, 28}";
type = Stem;
},
{
place = "{110, 69}";
type = Stem;
},
{
place = "{348, 27}";
type = Stem;
},
{
place = "{548, 65}";
type = Stem;
},
{
place = "{614, 10}";
type = Stem;
},
{
horizontal = 1;
place = "{509, 19}";
type = Stem;
}
);
layerId = "1C8B4FDB-B0E8-4411-8E26-068C67144FEF";
paths = (
{
closed = 1;
nodes = (
"531 497 OFFCURVE",
"500 545 OFFCURVE",
"461 545 CURVE SMOOTH",
"375 545 OFFCURVE",
"122 225 OFFCURVE",
"73 153 CURVE",
"55 153 OFFCURVE",
"37 156 OFFCURVE",
"24 162 CURVE SMOOTH",
"-5 178 OFFCURVE",
"8 124 OFFCURVE",
"55 123 CURVE",
"40 107 OFFCURVE",
"16 71 OFFCURVE",
"16 42 CURVE SMOOTH",
"16 19 OFFCURVE",
"23 -3 OFFCURVE",
"54 -9 CURVE",
"64 23 OFFCURVE",
"91 75 OFFCURVE",
"118 112 CURVE",
"149 124 OFFCURVE",
"224 144 OFFCURVE",
"353 149 CURVE",
"334 93 OFFCURVE",
"331 -14 OFFCURVE",
"381 -3 CURVE",
"373 34 OFFCURVE",
"392 122 OFFCURVE",
"399 148 CURVE",
"421 150 OFFCURVE",
"446 136 OFFCURVE",
"446 136 CURVE",
"446 154 OFFCURVE",
"426 176 OFFCURVE",
"406 176 CURVE",
"435 298 OFFCURVE",
"492 443 OFFCURVE",
"531 497 CURVE"
);
},
{
closed = 1;
nodes = (
"414 379 OFFCURVE",
"371 217 OFFCURVE",
"361 180 CURVE",
"319 181 OFFCURVE",
"212 167 OFFCURVE",
"146 156 CURVE",
"196 240 OFFCURVE",
"455 552 OFFCURVE",
"488 504 CURVE"
);
},
{
closed = 1;
nodes = (
"554 620 OFFCURVE",
"470 626 OFFCURVE",
"463 674 CURVE SMOOTH",
"461 687 OFFCURVE",
"450 682 OFFCURVE",
"446 670 CURVE SMOOTH",
"431 632 OFFCURVE",
"458 604 OFFCURVE",
"499 604 CURVE SMOOTH",
"543 604 OFFCURVE",
"599 637 OFFCURVE",
"613 677 CURVE SMOOTH",
"615 684 OFFCURVE",
"606 687 OFFCURVE",
"599 678 CURVE SMOOTH"
);
}
);
width = 480;
}
);
note = Abreve;
unicode = 0102;
},
{
color = 0;
glyphname = Amacron;
lastChange = "2021-05-17 19:56:03 +0000";
layers = (
{
hints = (
{
place = "{-37, 28}";
type = Stem;
},
{
place = "{110, 69}";
type = Stem;
},
{
place = "{348, 27}";
type = Stem;
},
{
place = "{548, 65}";
type = Stem;
},
{
place = "{614, 10}";
type = Stem;
},
{
horizontal = 1;
place = "{532, 22}";
type = Stem;
},
{
place = "{407, 169}";
type = Stem;
}
);
layerId = "1C8B4FDB-B0E8-4411-8E26-068C67144FEF";
paths = (
{
closed = 1;
nodes = (
"531 497 OFFCURVE",
"500 545 OFFCURVE",
"461 545 CURVE SMOOTH",
"375 545 OFFCURVE",
"122 225 OFFCURVE",
"73 153 CURVE",
"55 153 OFFCURVE",
"37 156 OFFCURVE",
"24 162 CURVE SMOOTH",
"-5 178 OFFCURVE",
"8 124 OFFCURVE",
"55 123 CURVE",
"40 107 OFFCURVE",
"16 71 OFFCURVE",
"16 42 CURVE SMOOTH",
"16 19 OFFCURVE",
"23 -3 OFFCURVE",
"54 -9 CURVE",
"64 23 OFFCURVE",
"91 75 OFFCURVE",
"118 112 CURVE",
"149 124 OFFCURVE",
"224 144 OFFCURVE",
"353 149 CURVE",
"334 93 OFFCURVE",
"331 -14 OFFCURVE",
"381 -3 CURVE",
"373 34 OFFCURVE",
"392 122 OFFCURVE",
"399 148 CURVE",
"421 150 OFFCURVE",
"446 136 OFFCURVE",
"446 136 CURVE",
"446 154 OFFCURVE",
"426 176 OFFCURVE",
"406 176 CURVE",
"435 298 OFFCURVE",
"492 443 OFFCURVE",
"531 497 CURVE"
);
},
{
closed = 1;
nodes = (
"414 379 OFFCURVE",
"371 217 OFFCURVE",
"361 180 CURVE",
"319 181 OFFCURVE",
"212 167 OFFCURVE",
"146 156 CURVE",
"196 240 OFFCURVE",
"455 552 OFFCURVE",
"488 504 CURVE"
);
},
{
closed = 1;
nodes = (
"606 628 OFFCURVE",
"608 652 OFFCURVE",
"585 652 CURVE SMOOTH",
"540 652 OFFCURVE",
"449 642 OFFCURVE",
"415 652 CURVE",
"415 636 OFFCURVE",
"410 612 OFFCURVE",
"437 612 CURVE SMOOTH",
"471 612 OFFCURVE",
"585 621 OFFCURVE",
"606 611 CURVE"
);
}
);
width = 480;
}
);
note = Amacron;
unicode = 0100;
},
{
color = 0;
glyphname = Aogonek;
lastChange = "2021-05-17 19:56:03 +0000";
layers = (
{
hints = (
{
place = "{-37, 28}";
type = Stem;
},
{
place = "{110, 69}";
type = Stem;
},
{
place = "{348, 27}";
type = Stem;
},
{
place = "{548, 65}";
type = Stem;
},
{
place = "{614, 10}";
type = Stem;
},
{
horizontal = 1;
place = "{-124, 24}";
type = Stem;
},
{
horizontal = 1;
place = "{8, 34}";
type = Stem;
},
{
horizontal = 1;
place = "{313, 9}";
type = Stem;
},
{
place = "{303, 27}";
type = Stem;
},
{
horizontal = 1;
place = "{-13, 21}";
target = up;
type = BottomGhost;
},
{
place = "{267, 342}";
type = Stem;
}
);
layerId = "1C8B4FDB-B0E8-4411-8E26-068C67144FEF";
paths = (
{
closed = 1;
nodes = (
"531 497 OFFCURVE",
"500 545 OFFCURVE",
"461 545 CURVE SMOOTH",
"375 545 OFFCURVE",
"122 225 OFFCURVE",
"73 153 CURVE",
"55 153 OFFCURVE",
"37 156 OFFCURVE",
"24 162 CURVE SMOOTH",
"-5 178 OFFCURVE",
"8 124 OFFCURVE",
"55 123 CURVE",
"40 107 OFFCURVE",
"16 71 OFFCURVE",
"16 42 CURVE SMOOTH",
"16 19 OFFCURVE",
"23 -3 OFFCURVE",
"54 -9 CURVE",
"64 23 OFFCURVE",
"91 75 OFFCURVE",
"118 112 CURVE",
"149 124 OFFCURVE",
"224 144 OFFCURVE",
"353 149 CURVE",
"334 93 OFFCURVE",
"331 -14 OFFCURVE",
"381 -3 CURVE",
"373 34 OFFCURVE",
"392 122 OFFCURVE",
"399 148 CURVE",
"421 150 OFFCURVE",
"446 136 OFFCURVE",
"446 136 CURVE",
"446 154 OFFCURVE",
"426 176 OFFCURVE",
"406 176 CURVE",
"435 298 OFFCURVE",
"492 443 OFFCURVE",
"531 497 CURVE"
);
},
{
closed = 1;
nodes = (
"414 379 OFFCURVE",
"371 217 OFFCURVE",
"361 180 CURVE",
"319 181 OFFCURVE",
"212 167 OFFCURVE",
"146 156 CURVE",
"196 240 OFFCURVE",
"455 552 OFFCURVE",
"488 504 CURVE"
);
},
{
closed = 1;
nodes = (
"352 -173 OFFCURVE",
"378 -164 OFFCURVE",
"402 -149 CURVE SMOOTH",
"417 -139 OFFCURVE",
"443 -120 OFFCURVE",
"458 -106 CURVE SMOOTH",
"464 -100 OFFCURVE",
"475 -79 OFFCURVE",
"466 -68 CURVE",
"439 -92 OFFCURVE",
"391 -128 OFFCURVE",
"361 -134 CURVE SMOOTH",
"319 -145 OFFCURVE",
"315 -117 OFFCURVE",
"333 -77 CURVE SMOOTH",
"355 -26 OFFCURVE",
"369 -1 OFFCURVE",
"370 2 CURVE SMOOTH",
"378 18 OFFCURVE",
"357 17 OFFCURVE",
"347 8 CURVE SMOOTH",
"312 -21 OFFCURVE",
"221 -173 OFFCURVE",
"330 -173 CURVE SMOOTH"
);
}
);
width = 480;
}
);
note = Aogonek;
unicode = 0104;
},
{
color = 0;
glyphname = Atilde;
lastChange = "2021-05-17 19:56:03 +0000";
layers = (
{
hints = (
{
horizontal = 1;
place = "{576, 28}";
type = Stem;
},
{
horizontal = 1;
place = "{599, 23}";
type = Stem;
},
{
place = "{-37, 28}";
type = Stem;
},
{
place = "{110, 69}";
type = Stem;
},
{
place = "{348, 27}";
type = Stem;
},
{
place = "{382, 188}";
type = Stem;
},
{
place = "{548, 65}";
type = Stem;
},
{
place = "{614, 10}";
type = Stem;
}
);
layerId = "1C8B4FDB-B0E8-4411-8E26-068C67144FEF";
paths = (
{
closed = 1;
nodes = (
"531 497 OFFCURVE",
"500 545 OFFCURVE",
"461 545 CURVE SMOOTH",
"375 545 OFFCURVE",
"122 225 OFFCURVE",
"73 153 CURVE",
"55 153 OFFCURVE",
"37 156 OFFCURVE",
"24 162 CURVE SMOOTH",
"-5 178 OFFCURVE",
"8 124 OFFCURVE",
"55 123 CURVE",
"40 107 OFFCURVE",
"16 71 OFFCURVE",
"16 42 CURVE SMOOTH",
"16 19 OFFCURVE",
"23 -3 OFFCURVE",
"54 -9 CURVE",
"64 23 OFFCURVE",
"91 75 OFFCURVE",
"118 112 CURVE",
"149 124 OFFCURVE",
"224 144 OFFCURVE",
"353 149 CURVE",
"334 93 OFFCURVE",
"331 -14 OFFCURVE",
"381 -3 CURVE",
"373 34 OFFCURVE",
"392 122 OFFCURVE",
"399 148 CURVE",
"421 150 OFFCURVE",
"446 136 OFFCURVE",
"446 136 CURVE",
"446 154 OFFCURVE",
"426 176 OFFCURVE",
"406 176 CURVE",
"435 298 OFFCURVE",
"492 443 OFFCURVE",
"531 497 CURVE"
);
},
{
closed = 1;
nodes = (
"414 379 OFFCURVE",
"371 217 OFFCURVE",
"361 180 CURVE",
"319 181 OFFCURVE",
"212 167 OFFCURVE",
"146 156 CURVE",
"196 240 OFFCURVE",
"455 552 OFFCURVE",
"488 504 CURVE"
);
},
{
closed = 1;
nodes = (
"629 688 OFFCURVE",
"624 688 OFFCURVE",
"620 688 CURVE",
"608 672 OFFCURVE",
"601 665 OFFCURVE",
"585 665 CURVE SMOOTH",
"551 665 OFFCURVE",
"520 689 OFFCURVE",
"479 689 CURVE SMOOTH",
"446 689 OFFCURVE",
"409 656 OFFCURVE",
"409 632 CURVE SMOOTH",
"409 631 OFFCURVE",
"411 628 OFFCURVE",
"417 630 CURVE",
"426 638 OFFCURVE",
"441 659 OFFCURVE",
"465 659 CURVE SMOOTH",
"500 659 OFFCURVE",
"517 629 OFFCURVE",
"563 629 CURVE SMOOTH",
"586 629 OFFCURVE",
"629 651 OFFCURVE",
"629 678 CURVE SMOOTH"
);
}
);
width = 480;
}
);
note = Atilde;
unicode = 00C3;
},
{
color = 0;
glyphname = AE;
lastChange = "2021-05-17 19:56:03 +0000";
layers = (
{
hints = (
{
place = "{-37, 28}";
type = Stem;
},
{
place = "{110, 69}";
type = Stem;
},
{
place = "{348, 27}";
type = Stem;
},
{
place = "{469, 52}";
type = Stem;
},
{
place = "{548, 65}";
type = Stem;
},
{
place = "{614, 10}";
type = Stem;
},
{
place = "{643, 24}";
type = Stem;
},
{
place = "{1009, 27}";
type = Stem;
},
{
place = "{1108, 32}";
type = Stem;
}
);
layerId = "1C8B4FDB-B0E8-4411-8E26-068C67144FEF";
paths = (
{
closed = 1;
nodes = (
"437 541 OFFCURVE",
"122 225 OFFCURVE",
"73 153 CURVE",
"55 153 OFFCURVE",
"37 156 OFFCURVE",
"24 162 CURVE SMOOTH",
"-5 178 OFFCURVE",
"8 124 OFFCURVE",
"55 123 CURVE",
"40 107 OFFCURVE",
"16 71 OFFCURVE",
"16 42 CURVE SMOOTH",
"16 19 OFFCURVE",
"23 -3 OFFCURVE",
"54 -9 CURVE",
"64 23 OFFCURVE",
"91 75 OFFCURVE",
"118 112 CURVE",
"148 123 OFFCURVE",
"218 133 OFFCURVE",
"342 138 CURVE",
"331 109 OFFCURVE",
"326 90 OFFCURVE",
"326 65 CURVE SMOOTH",
"326 41 OFFCURVE",
"346 3 OFFCURVE",
"405 3 CURVE SMOOTH",
"440 3 OFFCURVE",
"573 38 OFFCURVE",
"615 31 CURVE",
"615 63 OFFCURVE",
"582 65 OFFCURVE",
"547 65 CURVE SMOOTH",
"496 65 OFFCURVE",
"449 48 OFFCURVE",
"405 48 CURVE SMOOTH",
"394 48 OFFCURVE",
"387 54 OFFCURVE",
"387 67 CURVE SMOOTH",
"387 122 OFFCURVE",
"436 235 OFFCURVE",
"434 231 CURVE",
"597 231 LINE",
"607 254 OFFCURVE",
"592 272 OFFCURVE",
"553 272 CURVE SMOOTH",
"508 272 OFFCURVE",
"469 262 OFFCURVE",
"448 258 CURVE",
"462 298 OFFCURVE",
"552 450 OFFCURVE",
"576 474 CURVE SMOOTH",
"591 487 OFFCURVE",
"615 493 OFFCURVE",
"643 496 CURVE SMOOTH",
"687 500 OFFCURVE",
"753 499 OFFCURVE",
"772 495 CURVE",
"772 521 OFFCURVE",
"768 538 OFFCURVE",
"717 538 CURVE SMOOTH",
"689 538 OFFCURVE",
"615 538 OFFCURVE",
"552 530 CURVE",
"543 535 OFFCURVE",
"534 539 OFFCURVE",
"523 540 CURVE SMOOTH"
);
},
{
closed = 1;
nodes = (
"463 398 OFFCURVE",
"404 287 OFFCURVE",
"355 180 CURVE",
"310 179 OFFCURVE",
"209 167 OFFCURVE",
"146 156 CURVE",
"196 240 OFFCURVE",
"495 541 OFFCURVE",
"542 493 CURVE"
);
}
);
width = 628;
}
);
note = AE;
unicode = 00C6;
},
{
color = 0;
glyphname = B;
lastChange = "2021-05-17 19:56:03 +0000";
layers = (
{
hints = (
{
place = "{3, 38}";
type = Stem;
},
{
place = "{165, 8}";
type = Stem;
},
{
place = "{190, 34}";
type = Stem;
},
{
place = "{676, 75}";
type = Stem;
}
);
layerId = "1C8B4FDB-B0E8-4411-8E26-068C67144FEF";
paths = (
{
closed = 1;
nodes = (
"443 206 OFFCURVE",
"365 235 OFFCURVE",
"286 236 CURVE",
"367 240 OFFCURVE",
"598 319 OFFCURVE",
"598 443 CURVE SMOOTH",
"598 499 OFFCURVE",
"564 546 OFFCURVE",
"475 546 CURVE SMOOTH",
"386 546 OFFCURVE",
"269 501 OFFCURVE",
"181 494 CURVE",
"171 470 OFFCURVE",
"164 450 OFFCURVE",
"218 456 CURVE SMOOTH",
"242 458 OFFCURVE",
"261 464 OFFCURVE",
"263 462 CURVE",
"258 428 OFFCURVE",
"229 384 OFFCURVE",
"197 341 CURVE SMOOTH",
"141 266 OFFCURVE",
"37 105 OFFCURVE",
"37 48 CURVE SMOOTH",
"37 -30 OFFCURVE",
"127 -20 OFFCURVE",
"173 -20 CURVE SMOOTH",
"254 -20 OFFCURVE",
"443 25 OFFCURVE",
"443 139 CURVE SMOOTH"
);
},
{
closed = 1;
nodes = (
"570 358 OFFCURVE",
"309 246 OFFCURVE",
"200 238 CURVE",
"227 286 OFFCURVE",
"320 416 OFFCURVE",
"289 467 CURVE",
"352 477 OFFCURVE",
"419 496 OFFCURVE",
"480 496 CURVE SMOOTH",
"538 496 OFFCURVE",
"570 481 OFFCURVE",
"570 455 CURVE SMOOTH"
);
},
{
closed = 1;
nodes = (
"389 85 OFFCURVE",
"259 2 OFFCURVE",
"168 2 CURVE SMOOTH",
"99 2 OFFCURVE",
"85 14 OFFCURVE",
"85 29 CURVE SMOOTH",
"85 80 OFFCURVE",
"155 162 OFFCURVE",
"186 215 CURVE",
"224 218 OFFCURVE",
"389 231 OFFCURVE",
"389 144 CURVE SMOOTH"
);
}
);
width = 476;
}
);
note = B;
unicode = 0042;
},
{
color = 0;
glyphname = C;
lastChange = "2021-06-22 21:39:27 +0000";
layers = (
{
hints = (
{
place = "{552, 28}";
type = Stem;
},
{
place = "{692, 25}";
type = Stem;
}
);
layerId = "1C8B4FDB-B0E8-4411-8E26-068C67144FEF";
paths = (
{
closed = 1;
nodes = (
"480 312 OFFCURVE",
"505 367 OFFCURVE",
"520 411 CURVE SMOOTH",
"541 477 OFFCURVE",
"509 541 OFFCURVE",
"410 541 CURVE SMOOTH",
"230 541 OFFCURVE",
"50 310 OFFCURVE",
"50 132 CURVE SMOOTH",
"50 46 OFFCURVE",
"91 -20 OFFCURVE",
"202 -20 CURVE SMOOTH",
"290 -20 OFFCURVE",
"433 56 OFFCURVE",
"433 160 CURVE SMOOTH",
"433 174 OFFCURVE",
"429 185 OFFCURVE",
"421 190 CURVE",
"378 80 OFFCURVE",
"297 3 OFFCURVE",
"209 3 CURVE SMOOTH",
"135 3 OFFCURVE",
"113 48 OFFCURVE",
"113 112 CURVE SMOOTH",
"113 255 OFFCURVE",
"248 516 OFFCURVE",
"424 516 CURVE SMOOTH",
"479 516 OFFCURVE",
"491 466 OFFCURVE",
"469 415 CURVE SMOOTH",
"446 361 OFFCURVE",
"429 297 OFFCURVE",
"474 297 CURVE"
);
}
);
width = 469;
}
);
leftMetricsKey = O;
note = C;
unicode = 0043;
},
{
color = 0;
glyphname = Cacute;
lastChange = "2021-05-17 19:56:03 +0000";
layers = (
{
hints = (
{
place = "{552, 28}";
type = Stem;
},
{
place = "{692, 25}";
type = Stem;
},
{
horizontal = 1;
place = "{613, 118}";
type = Stem;
},
{
place = "{414, 157}";
type = Stem;
}
);
layerId = "1C8B4FDB-B0E8-4411-8E26-068C67144FEF";
paths = (
{
closed = 1;
nodes = (
"467 312 OFFCURVE",
"492 367 OFFCURVE",
"507 411 CURVE SMOOTH",
"528 477 OFFCURVE",
"496 541 OFFCURVE",
"397 541 CURVE SMOOTH",
"217 541 OFFCURVE",
"37 310 OFFCURVE",
"37 132 CURVE SMOOTH",
"37 46 OFFCURVE",
"78 -20 OFFCURVE",
"189 -20 CURVE SMOOTH",
"277 -20 OFFCURVE",
"420 56 OFFCURVE",
"420 160 CURVE SMOOTH",
"420 174 OFFCURVE",
"416 185 OFFCURVE",
"408 190 CURVE",
"365 80 OFFCURVE",
"284 3 OFFCURVE",
"196 3 CURVE SMOOTH",
"122 3 OFFCURVE",
"100 48 OFFCURVE",
"100 112 CURVE SMOOTH",
"100 255 OFFCURVE",
"235 516 OFFCURVE",
"411 516 CURVE SMOOTH",
"466 516 OFFCURVE",
"478 466 OFFCURVE",
"456 415 CURVE SMOOTH",
"433 361 OFFCURVE",
"416 297 OFFCURVE",
"461 297 CURVE"
);
},
{
closed = 1;
nodes = (
"580 694 OFFCURVE",
"568 703 OFFCURVE",
"560 704 CURVE SMOOTH",
"556 705 OFFCURVE",
"551 705 OFFCURVE",
"548 702 CURVE",
"533 696 OFFCURVE",
"438 633 OFFCURVE",
"420 628 CURVE SMOOTH",
"410 626 OFFCURVE",
"408 623 OFFCURVE",
"408 622 CURVE SMOOTH",
"408 620 OFFCURVE",
"411 618 OFFCURVE",
"415 617 CURVE SMOOTH",
"421 616 OFFCURVE",
"432 616 OFFCURVE",
"445 619 CURVE",
"483 622 OFFCURVE",
"596 673 OFFCURVE",
"594 685 CURVE SMOOTH",
"594 686 OFFCURVE",
"592 687 OFFCURVE",
"591 688 CURVE"
);
}
);
width = 456;
}
);
note = Cacute;
unicode = 0106;
},
{
color = 0;
glyphname = Ccaron;
lastChange = "2021-05-17 19:56:03 +0000";
layers = (
{
hints = (
{
place = "{552, 28}";
type = Stem;
},
{
place = "{692, 25}";
type = Stem;
},
{
horizontal = 1;
place = "{506, 108}";
type = Stem;
},
{
place = "{348, 231}";
type = Stem;
}
);
layerId = "1C8B4FDB-B0E8-4411-8E26-068C67144FEF";
paths = (
{
closed = 1;
nodes = (
"467 312 OFFCURVE",
"492 367 OFFCURVE",
"507 411 CURVE SMOOTH",
"528 477 OFFCURVE",
"496 541 OFFCURVE",
"397 541 CURVE SMOOTH",
"217 541 OFFCURVE",
"37 310 OFFCURVE",
"37 132 CURVE SMOOTH",
"37 46 OFFCURVE",
"78 -20 OFFCURVE",
"189 -20 CURVE SMOOTH",
"277 -20 OFFCURVE",
"420 56 OFFCURVE",
"420 160 CURVE SMOOTH",
"420 174 OFFCURVE",
"416 185 OFFCURVE",
"408 190 CURVE",
"365 80 OFFCURVE",
"284 3 OFFCURVE",
"196 3 CURVE SMOOTH",
"122 3 OFFCURVE",
"100 48 OFFCURVE",
"100 112 CURVE SMOOTH",
"100 255 OFFCURVE",
"235 516 OFFCURVE",
"411 516 CURVE SMOOTH",
"466 516 OFFCURVE",
"478 466 OFFCURVE",
"456 415 CURVE SMOOTH",
"433 361 OFFCURVE",
"416 297 OFFCURVE",
"461 297 CURVE"
);
},
{
closed = 1;
nodes = (
"580 708 OFFCURVE",
"503 665 OFFCURVE",
"468 652 CURVE",
"460 665 OFFCURVE",
"424 716 OFFCURVE",
"369 716 CURVE",
"390 696 OFFCURVE",
"437 608 OFFCURVE",
"449 601 CURVE",
"495 629 OFFCURVE",
"612 682 OFFCURVE",
"612 733 CURVE"
);
}
);
width = 456;
}
);
note = Ccaron;
unicode = 010C;
},
{
color = 0;
glyphname = Ccedilla;
lastChange = "2021-05-17 19:56:03 +0000";
layers = (
{
hints = (
{
place = "{107, 31}";
type = Stem;
},
{
place = "{151, 36}";
type = Stem;
},
{
place = "{552, 28}";
type = Stem;
},
{
place = "{692, 25}";
type = Stem;
}
);
layerId = "1C8B4FDB-B0E8-4411-8E26-068C67144FEF";
paths = (
{
closed = 1;
nodes = (
"169 -126 OFFCURVE",
"131 -103 OFFCURVE",
"139 -65 CURVE SMOOTH",
"142 -47 OFFCURVE",
"151 -29 OFFCURVE",
"166 -18 CURVE",
"173 -19 OFFCURVE",
"181 -20 OFFCURVE",
"189 -20 CURVE SMOOTH",
"277 -20 OFFCURVE",
"420 56 OFFCURVE",
"420 160 CURVE SMOOTH",
"420 174 OFFCURVE",
"416 185 OFFCURVE",
"408 190 CURVE",
"365 80 OFFCURVE",
"278 -2 OFFCURVE",
"190 -2 CURVE SMOOTH",
"116 -2 OFFCURVE",
"100 48 OFFCURVE",
"100 112 CURVE SMOOTH",
"100 255 OFFCURVE",
"241 521 OFFCURVE",
"417 521 CURVE SMOOTH",
"472 521 OFFCURVE",
"478 466 OFFCURVE",
"456 415 CURVE SMOOTH",
"433 361 OFFCURVE",
"416 297 OFFCURVE",
"461 297 CURVE",
"467 312 OFFCURVE",
"492 367 OFFCURVE",
"507 411 CURVE SMOOTH",
"528 477 OFFCURVE",
"496 541 OFFCURVE",
"397 541 CURVE SMOOTH",
"217 541 OFFCURVE",
"37 310 OFFCURVE",
"37 132 CURVE SMOOTH",
"37 59 OFFCURVE",
"66 0 OFFCURVE",
"144 -15 CURVE",
"120 -31 OFFCURVE",
"101 -63 OFFCURVE",
"97 -86 CURVE SMOOTH",
"90 -122 OFFCURVE",
"129 -144 OFFCURVE",
"123 -177 CURVE SMOOTH",
"111 -235 OFFCURVE",
"46 -235 OFFCURVE",
"8 -235 CURVE",
"18 -282 OFFCURVE",
"149 -229 OFFCURVE",
"161 -167 CURVE SMOOTH"
);
}
);
width = 456;
}
);
note = Ccedilla;
unicode = 00C7;
},
{
color = 0;
glyphname = Ccircumflex;
lastChange = "2021-05-17 19:56:03 +0000";
layers = (
{
hints = (
{
place = "{552, 28}";
type = Stem;
},
{
place = "{692, 25}";
type = Stem;
},
{
horizontal = 1;
place = "{465, 108}";
type = Stem;
},
{
place = "{277, 231}";
type = Stem;
}
);
layerId = "1C8B4FDB-B0E8-4411-8E26-068C67144FEF";
paths = (
{
closed = 1;
nodes = (
"467 312 OFFCURVE",
"492 367 OFFCURVE",
"507 411 CURVE SMOOTH",
"528 477 OFFCURVE",
"496 541 OFFCURVE",
"397 541 CURVE SMOOTH",
"217 541 OFFCURVE",
"37 310 OFFCURVE",
"37 132 CURVE SMOOTH",
"37 46 OFFCURVE",
"78 -20 OFFCURVE",
"189 -20 CURVE SMOOTH",
"277 -20 OFFCURVE",
"420 56 OFFCURVE",
"420 160 CURVE SMOOTH",
"420 174 OFFCURVE",
"416 185 OFFCURVE",
"408 190 CURVE",
"365 80 OFFCURVE",
"284 3 OFFCURVE",
"196 3 CURVE SMOOTH",
"122 3 OFFCURVE",
"100 48 OFFCURVE",
"100 112 CURVE SMOOTH",
"100 255 OFFCURVE",
"235 516 OFFCURVE",
"411 516 CURVE SMOOTH",
"466 516 OFFCURVE",
"478 466 OFFCURVE",
"456 415 CURVE SMOOTH",
"433 361 OFFCURVE",
"416 297 OFFCURVE",
"461 297 CURVE"
);
},
{
closed = 1;
nodes = (
"353 607 OFFCURVE",
"430 651 OFFCURVE",
"465 663 CURVE",
"473 651 OFFCURVE",
"509 600 OFFCURVE",
"564 600 CURVE",
"543 619 OFFCURVE",
"496 708 OFFCURVE",
"484 714 CURVE",
"438 686 OFFCURVE",
"321 634 OFFCURVE",
"321 582 CURVE"
);
}
);
width = 456;
}
);
note = Ccircumflex;
unicode = 0108;
},
{
color = 0;
glyphname = Cdotaccent;
lastChange = "2021-05-17 19:56:03 +0000";
layers = (
{
hints = (
{
horizontal = 1;
place = "{577, 74}";
type = Stem;
},
{
place = "{432, 67}";
type = Stem;
},
{
place = "{452, 75}";
type = Stem;
},
{
place = "{552, 28}";
type = Stem;
},
{
place = "{692, 25}";
type = Stem;
}
);
layerId = "1C8B4FDB-B0E8-4411-8E26-068C67144FEF";
paths = (
{
closed = 1;
nodes = (
"467 312 OFFCURVE",
"492 367 OFFCURVE",
"507 411 CURVE SMOOTH",
"528 477 OFFCURVE",
"496 541 OFFCURVE",
"397 541 CURVE SMOOTH",
"217 541 OFFCURVE",
"37 310 OFFCURVE",
"37 132 CURVE SMOOTH",
"37 46 OFFCURVE",
"78 -20 OFFCURVE",
"189 -20 CURVE SMOOTH",
"277 -20 OFFCURVE",
"420 56 OFFCURVE",
"420 160 CURVE SMOOTH",
"420 174 OFFCURVE",
"416 185 OFFCURVE",
"408 190 CURVE",
"365 80 OFFCURVE",
"284 3 OFFCURVE",
"196 3 CURVE SMOOTH",
"122 3 OFFCURVE",
"100 48 OFFCURVE",
"100 112 CURVE SMOOTH",
"100 255 OFFCURVE",
"235 516 OFFCURVE",
"411 516 CURVE SMOOTH",
"466 516 OFFCURVE",
"478 466 OFFCURVE",
"456 415 CURVE SMOOTH",
"433 361 OFFCURVE",
"416 297 OFFCURVE",
"461 297 CURVE"
);
},
{
closed = 1;
nodes = (
"507 661 OFFCURVE",
"473 652 OFFCURVE",
"472 651 CURVE",
"461 646 OFFCURVE",
"451 639 OFFCURVE",
"442 631 CURVE SMOOTH",
"436 627 OFFCURVE",
"429 614 OFFCURVE",
"435 604 CURVE SMOOTH",
"439 596 OFFCURVE",
"445 588 OFFCURVE",
"456 587 CURVE SMOOTH",
"492 581 OFFCURVE",
"487 628 OFFCURVE",
"500 646 CURVE"
);
}
);
width = 456;
}
);
note = Cdotaccent;
unicode = 010A;
},
{
color = 0;
glyphname = D;
lastChange = "2021-05-17 19:56:03 +0000";
layers = (
{
hints = (
{
place = "{12, 10}";
type = Stem;
},
{
place = "{176, 21}";
type = Stem;
},
{
place = "{414, 80}";
type = Stem;
},
{
place = "{818, 51}";
type = Stem;
}
);
layerId = "1C8B4FDB-B0E8-4411-8E26-068C67144FEF";
paths = (
{
closed = 1;
nodes = (
"443 118 OFFCURVE",
"571 297 OFFCURVE",
"571 425 CURVE SMOOTH",
"571 505 OFFCURVE",
"521 537 OFFCURVE",
"439 537 CURVE SMOOTH",
"363 537 OFFCURVE",
"293 510 OFFCURVE",
"221 497 CURVE SMOOTH",
"193 491 OFFCURVE",
"167 487 OFFCURVE",
"144 485 CURVE",
"144 473 OFFCURVE",
"135 443 OFFCURVE",
"188 449 CURVE SMOOTH",
"201 450 OFFCURVE",
"219 454 OFFCURVE",
"233 456 CURVE",
"220 399 OFFCURVE",
"144 302 OFFCURVE",
"117 258 CURVE SMOOTH",
"59 162 OFFCURVE",
"11 104 OFFCURVE",
"11 47 CURVE SMOOTH",
"11 12 OFFCURVE",
"30 -1 OFFCURVE",
"47 -1 CURVE",
"76 -51 OFFCURVE",
"224 -14 OFFCURVE",
"308 37 CURVE SMOOTH"
);
},
{
closed = 1;
nodes = (
"192 272 OFFCURVE",
"297 422 OFFCURVE",
"269 463 CURVE",
"333 474 OFFCURVE",
"436 492 OFFCURVE",
"479 492 CURVE SMOOTH",
"517 492 OFFCURVE",
"530 473 OFFCURVE",
"530 443 CURVE SMOOTH",
"530 375 OFFCURVE",
"441 241 OFFCURVE",
"389 174 CURVE SMOOTH",
"320 86 OFFCURVE",
"221 3 OFFCURVE",
"110 3 CURVE SMOOTH",
"63 3 OFFCURVE",
"59 23 OFFCURVE",
"69 52 CURVE SMOOTH",
"89 110 OFFCURVE",
"127 171 OFFCURVE",
"160 221 CURVE SMOOTH"
);
}
);
width = 499;
}
);
note = D;
unicode = 0044;
},
{
color = 0;
glyphname = Eth;
lastChange = "2021-05-17 19:56:03 +0000";
layers = (
{
hints = (
{
place = "{12, 10}";
type = Stem;
},
{
place = "{176, 21}";
type = Stem;
},
{
place = "{414, 80}";
type = Stem;
},
{
place = "{818, 51}";
type = Stem;
},
{
place = "{139, 256}";
type = Stem;
}
);
layerId = "1C8B4FDB-B0E8-4411-8E26-068C67144FEF";
paths = (
{
closed = 1;
nodes = (
"34 4 OFFCURVE",
"90 -20 OFFCURVE",
"139 -20 CURVE SMOOTH",
"331 -20 OFFCURVE",
"571 258 OFFCURVE",
"571 425 CURVE SMOOTH",
"571 505 OFFCURVE",
"521 537 OFFCURVE",
"439 537 CURVE SMOOTH",
"352 537 OFFCURVE",
"229 492 OFFCURVE",
"144 485 CURVE",
"144 473 OFFCURVE",
"135 443 OFFCURVE",
"188 449 CURVE SMOOTH",
"212 451 OFFCURVE",
"230 457 OFFCURVE",
"233 456 CURVE",
"228 421 OFFCURVE",
"199 378 OFFCURVE",
"167 336 CURVE SMOOTH",
"145 305 OFFCURVE",
"115 263 OFFCURVE",
"89 218 CURVE",
"51 216 OFFCURVE",
"15 214 OFFCURVE",
"-5 218 CURVE",
"-5 198 OFFCURVE",
"-1 176 OFFCURVE",
"33 176 CURVE SMOOTH",
"43 176 OFFCURVE",
"55 176 OFFCURVE",
"68 177 CURVE",
"48 136 OFFCURVE",
"34 93 OFFCURVE",
"34 57 CURVE SMOOTH"
);
},
{
closed = 1;
nodes = (
"256 195 OFFCURVE",
"255 218 OFFCURVE",
"216 222 CURVE SMOOTH",
"203 223 OFFCURVE",
"184 223 OFFCURVE",
"161 222 CURVE",
"165 226 OFFCURVE",
"167 230 OFFCURVE",
"170 235 CURVE SMOOTH",
"197 281 OFFCURVE",
"296 421 OFFCURVE",
"269 463 CURVE",
"331 472 OFFCURVE",
"428 492 OFFCURVE",
"479 492 CURVE SMOOTH",
"517 492 OFFCURVE",
"530 473 OFFCURVE",
"530 443 CURVE SMOOTH",
"530 375 OFFCURVE",
"441 241 OFFCURVE",
"389 174 CURVE SMOOTH",
"316 81 OFFCURVE",
"208 -3 OFFCURVE",
"147 -3 CURVE SMOOTH",
"105 -3 OFFCURVE",
"83 15 OFFCURVE",
"83 52 CURVE SMOOTH",
"83 92 OFFCURVE",
"110 141 OFFCURVE",
"138 184 CURVE",
"154 185 LINE SMOOTH",
"220 192 OFFCURVE",
"251 181 OFFCURVE",
"256 173 CURVE"
);
}
);
width = 499;
}
);
note = Eth;
unicode = 00D0;
},
{
color = 0;
glyphname = Dcaron;
lastChange = "2021-05-17 19:56:03 +0000";
layers = (
{
hints = (
{
place = "{12, 10}";
type = Stem;
},
{
place = "{176, 21}";
type = Stem;
},
{
place = "{414, 80}";
type = Stem;
},
{
place = "{818, 51}";
type = Stem;
},
{
horizontal = 1;
place = "{507, 108}";
type = Stem;
},
{
place = "{352, 231}";
type = Stem;
}
);
layerId = "1C8B4FDB-B0E8-4411-8E26-068C67144FEF";
paths = (
{
closed = 1;
nodes = (
"443 118 OFFCURVE",
"571 297 OFFCURVE",
"571 425 CURVE SMOOTH",
"571 505 OFFCURVE",
"521 537 OFFCURVE",
"439 537 CURVE SMOOTH",
"363 537 OFFCURVE",
"293 510 OFFCURVE",
"221 497 CURVE SMOOTH",
"193 491 OFFCURVE",
"167 487 OFFCURVE",
"144 485 CURVE",
"144 473 OFFCURVE",
"135 443 OFFCURVE",
"188 449 CURVE SMOOTH",
"201 450 OFFCURVE",
"219 454 OFFCURVE",
"233 456 CURVE",
"220 399 OFFCURVE",
"144 302 OFFCURVE",
"117 258 CURVE SMOOTH",
"59 162 OFFCURVE",
"11 104 OFFCURVE",
"11 47 CURVE SMOOTH",
"11 12 OFFCURVE",
"30 -1 OFFCURVE",
"47 -1 CURVE",
"76 -51 OFFCURVE",
"224 -14 OFFCURVE",
"308 37 CURVE SMOOTH"
);
},
{
closed = 1;
nodes = (
"192 272 OFFCURVE",
"297 422 OFFCURVE",
"269 463 CURVE",
"333 474 OFFCURVE",
"436 492 OFFCURVE",
"479 492 CURVE SMOOTH",
"517 492 OFFCURVE",
"530 473 OFFCURVE",
"530 443 CURVE SMOOTH",
"530 375 OFFCURVE",
"441 241 OFFCURVE",
"389 174 CURVE SMOOTH",
"320 86 OFFCURVE",
"221 3 OFFCURVE",
"110 3 CURVE SMOOTH",
"63 3 OFFCURVE",
"59 23 OFFCURVE",
"69 52 CURVE SMOOTH",
"89 110 OFFCURVE",
"127 171 OFFCURVE",
"160 221 CURVE SMOOTH"
);
},
{
closed = 1;
nodes = (
"584 709 OFFCURVE",
"507 666 OFFCURVE",
"472 653 CURVE",
"464 666 OFFCURVE",
"428 717 OFFCURVE",
"373 717 CURVE",
"394 697 OFFCURVE",
"441 609 OFFCURVE",
"453 602 CURVE",
"499 630 OFFCURVE",
"616 683 OFFCURVE",
"616 734 CURVE"
);
}
);
width = 499;
}
);
note = Dcaron;
unicode = 010E;
},
{
color = 0;
glyphname = Dcroat;
lastChange = "2021-05-17 19:56:03 +0000";
layers = (
{
hints = (
{
place = "{12, 10}";
type = Stem;
},
{
place = "{176, 21}";
type = Stem;
},
{
place = "{414, 80}";
type = Stem;
},
{
place = "{818, 51}";
type = Stem;
},
{
horizontal = 1;
place = "{136, 17}";
type = Stem;
},
{
place = "{17, 176}";
type = Stem;
}
);
layerId = "1C8B4FDB-B0E8-4411-8E26-068C67144FEF";
paths = (
{
closed = 1;
nodes = (
"363 537 OFFCURVE",
"293 510 OFFCURVE",
"221 497 CURVE SMOOTH",
"193 491 OFFCURVE",
"167 487 OFFCURVE",
"144 485 CURVE",
"144 473 OFFCURVE",
"135 443 OFFCURVE",
"188 449 CURVE SMOOTH",
"201 450 OFFCURVE",
"219 454 OFFCURVE",
"233 456 CURVE",
"220 399 OFFCURVE",
"144 302 OFFCURVE",
"117 258 CURVE SMOOTH",
"110 247 OFFCURVE",
"104 236 OFFCURVE",
"97 226 CURVE",
"68 226 OFFCURVE",
"40 226 OFFCURVE",
"25 229 CURVE",
"25 217 OFFCURVE",
"20 198 OFFCURVE",
"48 198 CURVE SMOOTH",
"55 198 OFFCURVE",
"67 198 OFFCURVE",
"80 199 CURVE",
"40 136 OFFCURVE",
"11 91 OFFCURVE",
"11 47 CURVE SMOOTH",
"11 12 OFFCURVE",
"30 -1 OFFCURVE",
"47 -1 CURVE",
"76 -51 OFFCURVE",
"224 -14 OFFCURVE",
"308 37 CURVE SMOOTH",
"443 118 OFFCURVE",
"571 297 OFFCURVE",
"571 425 CURVE SMOOTH",
"571 505 OFFCURVE",
"521 537 OFFCURVE",
"439 537 CURVE SMOOTH"
);
},
{
closed = 1;
nodes = (
"320 86 OFFCURVE",
"221 3 OFFCURVE",
"110 3 CURVE SMOOTH",
"63 3 OFFCURVE",
"59 23 OFFCURVE",
"69 52 CURVE SMOOTH",
"86 102 OFFCURVE",
"117 155 OFFCURVE",
"147 201 CURVE",
"181 201 OFFCURVE",
"214 201 OFFCURVE",
"224 198 CURVE",
"224 211 OFFCURVE",
"226 229 OFFCURVE",
"202 229 CURVE SMOOTH",
"192 229 OFFCURVE",
"179 229 OFFCURVE",
"165 228 CURVE",
"201 285 OFFCURVE",
"296 424 OFFCURVE",
"269 463 CURVE",
"333 474 OFFCURVE",
"436 492 OFFCURVE",
"479 492 CURVE SMOOTH",
"517 492 OFFCURVE",
"530 473 OFFCURVE",
"530 443 CURVE SMOOTH",
"530 375 OFFCURVE",
"441 241 OFFCURVE",
"389 174 CURVE SMOOTH"
);
}
);
width = 499;
}
);
note = Dcroat;
unicode = 0110;
},
{
color = 0;
glyphname = E;
lastChange = "2021-05-17 19:56:03 +0000";
layers = (
{
anchors = (
{
name = bottom;
position = "{180, 0}";
},
{
name = ogonek;
position = "{323, 10}";
},
{
name = top;
position = "{399, 573}";
}
);
hints = (
{
place = "{-11, 52}";
type = Stem;
},
{
place = "{163, 24}";
type = Stem;
},
{
place = "{529, 27}";
type = Stem;
},
{
place = "{628, 32}";
type = Stem;
}
);
layerId = "1C8B4FDB-B0E8-4411-8E26-068C67144FEF";
paths = (
{
closed = 1;
nodes = (
"263 471 OFFCURVE",
"190 389 OFFCURVE",
"128 294 CURVE SMOOTH",
"77 216 OFFCURVE",
"34 131 OFFCURVE",
"34 65 CURVE SMOOTH",
"34 41 OFFCURVE",
"54 3 OFFCURVE",
"113 3 CURVE SMOOTH",
"149 3 OFFCURVE",
"281 38 OFFCURVE",
"324 31 CURVE",
"323 63 OFFCURVE",
"291 65 OFFCURVE",
"255 65 CURVE SMOOTH",
"204 65 OFFCURVE",
"157 48 OFFCURVE",
"114 48 CURVE SMOOTH",
"102 48 OFFCURVE",
"95 54 OFFCURVE",
"95 67 CURVE SMOOTH",
"95 122 OFFCURVE",
"159 235 OFFCURVE",
"157 231 CURVE",
"320 231 LINE",
"330 254 OFFCURVE",
"315 272 OFFCURVE",
"276 272 CURVE SMOOTH",
"231 272 OFFCURVE",
"192 262 OFFCURVE",
"171 258 CURVE",
"185 298 OFFCURVE",
"285 445 OFFCURVE",
"309 470 CURVE SMOOTH",
"323 483 OFFCURVE",
"348 489 OFFCURVE",
"375 492 CURVE SMOOTH",
"419 496 OFFCURVE",
"485 495 OFFCURVE",
"504 490 CURVE",
"504 517 OFFCURVE",
"500 534 OFFCURVE",
"450 534 CURVE SMOOTH",
"422 534 OFFCURVE",
"347 534 OFFCURVE",
"282 525 CURVE SMOOTH",
"253 521 OFFCURVE",
"243 514 OFFCURVE",
"243 507 CURVE SMOOTH",
"243 495 OFFCURVE",
"263 485 OFFCURVE",
"280 485 CURVE"
);
}
);
width = 359;
}
);
note = E;
unicode = 0045;
},
{
color = 0;
glyphname = Eacute;
lastChange = "2021-05-17 19:56:03 +0000";
layers = (
{
hints = (
{
place = "{-11, 52}";
type = Stem;
},
{
place = "{163, 24}";
type = Stem;
},
{
place = "{529, 27}";
type = Stem;
},
{
place = "{628, 32}";
type = Stem;
},
{
horizontal = 1;
place = "{616, 118}";
type = Stem;
},
{
place = "{328, 157}";
type = Stem;
}
);
layerId = "1C8B4FDB-B0E8-4411-8E26-068C67144FEF";
paths = (
{
closed = 1;
nodes = (
"263 471 OFFCURVE",
"190 389 OFFCURVE",
"128 294 CURVE SMOOTH",
"77 216 OFFCURVE",
"34 131 OFFCURVE",
"34 65 CURVE SMOOTH",
"34 41 OFFCURVE",
"54 3 OFFCURVE",
"113 3 CURVE SMOOTH",
"149 3 OFFCURVE",
"281 38 OFFCURVE",
"324 31 CURVE",
"323 63 OFFCURVE",
"291 65 OFFCURVE",
"255 65 CURVE SMOOTH",
"204 65 OFFCURVE",
"157 48 OFFCURVE",
"114 48 CURVE SMOOTH",
"102 48 OFFCURVE",
"95 54 OFFCURVE",
"95 67 CURVE SMOOTH",
"95 122 OFFCURVE",
"159 235 OFFCURVE",
"157 231 CURVE",
"320 231 LINE",
"330 254 OFFCURVE",
"315 272 OFFCURVE",
"276 272 CURVE SMOOTH",
"231 272 OFFCURVE",
"192 262 OFFCURVE",
"171 258 CURVE",
"185 298 OFFCURVE",
"285 445 OFFCURVE",
"309 470 CURVE SMOOTH",
"323 483 OFFCURVE",
"348 489 OFFCURVE",
"375 492 CURVE SMOOTH",
"419 496 OFFCURVE",
"485 495 OFFCURVE",
"504 490 CURVE",
"504 517 OFFCURVE",
"500 534 OFFCURVE",
"450 534 CURVE SMOOTH",
"422 534 OFFCURVE",
"347 534 OFFCURVE",
"282 525 CURVE SMOOTH",
"253 521 OFFCURVE",
"243 514 OFFCURVE",
"243 507 CURVE SMOOTH",
"243 495 OFFCURVE",
"263 485 OFFCURVE",
"280 485 CURVE"
);
},
{
closed = 1;
nodes = (
"494 697 OFFCURVE",
"482 706 OFFCURVE",
"474 707 CURVE SMOOTH",
"470 708 OFFCURVE",
"465 708 OFFCURVE",
"462 705 CURVE",
"447 699 OFFCURVE",
"352 636 OFFCURVE",
"334 631 CURVE SMOOTH",
"324 629 OFFCURVE",
"322 626 OFFCURVE",
"322 625 CURVE SMOOTH",
"322 623 OFFCURVE",
"325 621 OFFCURVE",
"329 620 CURVE SMOOTH",
"335 619 OFFCURVE",
"346 619 OFFCURVE",
"359 622 CURVE",
"397 625 OFFCURVE",
"510 676 OFFCURVE",
"508 688 CURVE SMOOTH",
"508 689 OFFCURVE",
"506 690 OFFCURVE",
"505 691 CURVE"
);
}
);
width = 359;
}
);
note = Eacute;
unicode = 00C9;
},
{
color = 0;
glyphname = Ecaron;
lastChange = "2021-05-17 19:56:03 +0000";
layers = (
{
hints = (
{
place = "{-11, 52}";
type = Stem;
},
{
place = "{163, 24}";
type = Stem;
},
{
place = "{529, 27}";
type = Stem;
},
{
place = "{628, 32}";
type = Stem;
},
{
horizontal = 1;
place = "{491, 108}";
type = Stem;
},
{
place = "{299, 231}";
type = Stem;
}
);
layerId = "1C8B4FDB-B0E8-4411-8E26-068C67144FEF";
paths = (
{
closed = 1;
nodes = (
"263 471 OFFCURVE",
"190 389 OFFCURVE",
"128 294 CURVE SMOOTH",
"77 216 OFFCURVE",
"34 131 OFFCURVE",
"34 65 CURVE SMOOTH",
"34 41 OFFCURVE",
"54 3 OFFCURVE",
"113 3 CURVE SMOOTH",
"149 3 OFFCURVE",
"281 38 OFFCURVE",
"324 31 CURVE",
"323 63 OFFCURVE",
"291 65 OFFCURVE",
"255 65 CURVE SMOOTH",
"204 65 OFFCURVE",
"157 48 OFFCURVE",
"114 48 CURVE SMOOTH",
"102 48 OFFCURVE",
"95 54 OFFCURVE",
"95 67 CURVE SMOOTH",
"95 122 OFFCURVE",
"159 235 OFFCURVE",
"157 231 CURVE",
"320 231 LINE",
"330 254 OFFCURVE",
"315 272 OFFCURVE",
"276 272 CURVE SMOOTH",
"231 272 OFFCURVE",
"192 262 OFFCURVE",
"171 258 CURVE",
"185 298 OFFCURVE",
"285 445 OFFCURVE",
"309 470 CURVE SMOOTH",
"323 483 OFFCURVE",
"348 489 OFFCURVE",
"375 492 CURVE SMOOTH",
"419 496 OFFCURVE",
"485 495 OFFCURVE",
"504 490 CURVE",
"504 517 OFFCURVE",
"500 534 OFFCURVE",
"450 534 CURVE SMOOTH",
"422 534 OFFCURVE",
"347 534 OFFCURVE",
"282 525 CURVE SMOOTH",
"253 521 OFFCURVE",
"243 514 OFFCURVE",
"243 507 CURVE SMOOTH",
"243 495 OFFCURVE",
"263 485 OFFCURVE",
"280 485 CURVE"
);
},
{
closed = 1;
nodes = (
"531 693 OFFCURVE",
"454 650 OFFCURVE",
"419 637 CURVE",
"411 650 OFFCURVE",
"375 701 OFFCURVE",
"320 701 CURVE",
"341 681 OFFCURVE",
"388 593 OFFCURVE",
"400 586 CURVE",
"446 614 OFFCURVE",
"563 667 OFFCURVE",
"563 718 CURVE"
);
}
);
width = 359;
}
);
note = Ecaron;
unicode = 011A;
},
{
color = 0;
glyphname = Ecircumflex;
lastChange = "2021-05-17 19:56:03 +0000";
layers = (
{
hints = (
{
place = "{-11, 52}";
type = Stem;
},
{
place = "{163, 24}";
type = Stem;
},
{
place = "{529, 27}";
type = Stem;
},
{
place = "{628, 32}";
type = Stem;
},
{
horizontal = 1;
place = "{473, 108}";
type = Stem;
},
{
place = "{233, 231}";
type = Stem;
}
);
layerId = "1C8B4FDB-B0E8-4411-8E26-068C67144FEF";
paths = (
{
closed = 1;
nodes = (
"263 471 OFFCURVE",
"190 389 OFFCURVE",
"128 294 CURVE SMOOTH",
"77 216 OFFCURVE",
"34 131 OFFCURVE",
"34 65 CURVE SMOOTH",
"34 41 OFFCURVE",
"54 3 OFFCURVE",
"113 3 CURVE SMOOTH",
"149 3 OFFCURVE",
"281 38 OFFCURVE",
"324 31 CURVE",
"323 63 OFFCURVE",
"291 65 OFFCURVE",
"255 65 CURVE SMOOTH",
"204 65 OFFCURVE",
"157 48 OFFCURVE",
"114 48 CURVE SMOOTH",
"102 48 OFFCURVE",
"95 54 OFFCURVE",
"95 67 CURVE SMOOTH",
"95 122 OFFCURVE",
"159 235 OFFCURVE",
"157 231 CURVE",
"320 231 LINE",
"330 254 OFFCURVE",
"315 272 OFFCURVE",
"276 272 CURVE SMOOTH",
"231 272 OFFCURVE",
"192 262 OFFCURVE",
"171 258 CURVE",
"185 298 OFFCURVE",
"285 445 OFFCURVE",
"309 470 CURVE SMOOTH",
"323 483 OFFCURVE",
"348 489 OFFCURVE",
"375 492 CURVE SMOOTH",
"419 496 OFFCURVE",
"485 495 OFFCURVE",
"504 490 CURVE",
"504 517 OFFCURVE",
"500 534 OFFCURVE",
"450 534 CURVE SMOOTH",
"422 534 OFFCURVE",
"347 534 OFFCURVE",
"282 525 CURVE SMOOTH",
"253 521 OFFCURVE",
"243 514 OFFCURVE",
"243 507 CURVE SMOOTH",
"243 495 OFFCURVE",
"263 485 OFFCURVE",
"280 485 CURVE"
);
},
{
closed = 1;
nodes = (
"309 615 OFFCURVE",
"386 659 OFFCURVE",
"421 671 CURVE",
"429 659 OFFCURVE",
"465 608 OFFCURVE",
"520 608 CURVE",
"499 627 OFFCURVE",
"452 716 OFFCURVE",
"440 722 CURVE",
"394 694 OFFCURVE",
"277 642 OFFCURVE",
"277 590 CURVE"
);
}
);
width = 359;
}
);
note = Ecircumflex;
unicode = 00CA;
},
{
color = 0;
glyphname = Edotaccent;
lastChange = "2021-05-17 19:56:03 +0000";
layers = (
{
hints = (
{
horizontal = 1;
place = "{580, 74}";
type = Stem;
},
{
place = "{-11, 52}";
type = Stem;
},
{
place = "{163, 24}";
type = Stem;
},
{
place = "{379, 67}";
type = Stem;
},
{
place = "{399, 75}";
type = Stem;
},
{
place = "{529, 27}";
type = Stem;
},
{
place = "{628, 32}";
type = Stem;
}
);
layerId = "1C8B4FDB-B0E8-4411-8E26-068C67144FEF";
paths = (
{
closed = 1;
nodes = (
"263 471 OFFCURVE",
"190 389 OFFCURVE",
"128 294 CURVE SMOOTH",
"77 216 OFFCURVE",
"34 131 OFFCURVE",
"34 65 CURVE SMOOTH",
"34 41 OFFCURVE",
"54 3 OFFCURVE",
"113 3 CURVE SMOOTH",
"149 3 OFFCURVE",
"281 38 OFFCURVE",
"324 31 CURVE",
"323 63 OFFCURVE",
"291 65 OFFCURVE",
"255 65 CURVE SMOOTH",
"204 65 OFFCURVE",
"157 48 OFFCURVE",
"114 48 CURVE SMOOTH",
"102 48 OFFCURVE",
"95 54 OFFCURVE",
"95 67 CURVE SMOOTH",
"95 122 OFFCURVE",
"159 235 OFFCURVE",
"157 231 CURVE",
"320 231 LINE",
"330 254 OFFCURVE",
"315 272 OFFCURVE",
"276 272 CURVE SMOOTH",
"231 272 OFFCURVE",
"192 262 OFFCURVE",
"171 258 CURVE",
"185 298 OFFCURVE",
"285 445 OFFCURVE",
"309 470 CURVE SMOOTH",
"323 483 OFFCURVE",
"348 489 OFFCURVE",
"375 492 CURVE SMOOTH",
"419 496 OFFCURVE",
"485 495 OFFCURVE",
"504 490 CURVE",
"504 517 OFFCURVE",
"500 534 OFFCURVE",
"450 534 CURVE SMOOTH",
"422 534 OFFCURVE",
"347 534 OFFCURVE",
"282 525 CURVE SMOOTH",
"253 521 OFFCURVE",
"243 514 OFFCURVE",
"243 507 CURVE SMOOTH",
"243 495 OFFCURVE",
"263 485 OFFCURVE",
"280 485 CURVE"
);
},
{
closed = 1;
nodes = (
"454 664 OFFCURVE",
"420 655 OFFCURVE",
"419 654 CURVE",
"408 649 OFFCURVE",
"398 642 OFFCURVE",
"389 634 CURVE SMOOTH",
"383 630 OFFCURVE",
"376 617 OFFCURVE",
"382 607 CURVE SMOOTH",
"386 599 OFFCURVE",
"392 591 OFFCURVE",
"403 590 CURVE SMOOTH",
"439 584 OFFCURVE",
"434 631 OFFCURVE",
"447 649 CURVE"
);
}
);
width = 359;
}
);
note = Edotaccent;
unicode = 0116;
},
{
color = 0;
glyphname = Egrave;
lastChange = "2021-05-17 19:56:03 +0000";
layers = (
{
hints = (
{
horizontal = 1;
place = "{586, 118}";
type = Stem;
},
{
horizontal = 1;
place = "{609, 118}";
type = Stem;
},
{
place = "{-11, 52}";
type = Stem;
},
{
place = "{163, 24}";
type = Stem;
},
{
place = "{307, 157}";
type = Stem;
},
{
place = "{490, 157}";
type = Stem;
},
{
place = "{529, 27}";
type = Stem;
},
{
place = "{628, 32}";
type = Stem;
}
);
layerId = "1C8B4FDB-B0E8-4411-8E26-068C67144FEF";
paths = (
{
closed = 1;
nodes = (
"263 471 OFFCURVE",
"190 389 OFFCURVE",
"128 294 CURVE SMOOTH",
"77 216 OFFCURVE",
"34 131 OFFCURVE",
"34 65 CURVE SMOOTH",
"34 41 OFFCURVE",
"54 3 OFFCURVE",
"113 3 CURVE SMOOTH",
"149 3 OFFCURVE",
"281 38 OFFCURVE",
"324 31 CURVE",
"323 63 OFFCURVE",
"291 65 OFFCURVE",
"255 65 CURVE SMOOTH",
"204 65 OFFCURVE",
"157 48 OFFCURVE",
"114 48 CURVE SMOOTH",
"102 48 OFFCURVE",
"95 54 OFFCURVE",
"95 67 CURVE SMOOTH",
"95 122 OFFCURVE",
"159 235 OFFCURVE",
"157 231 CURVE",
"320 231 LINE",
"330 254 OFFCURVE",
"315 272 OFFCURVE",
"276 272 CURVE SMOOTH",
"231 272 OFFCURVE",
"192 262 OFFCURVE",
"171 258 CURVE",
"185 298 OFFCURVE",
"285 445 OFFCURVE",
"309 470 CURVE SMOOTH",
"323 483 OFFCURVE",
"348 489 OFFCURVE",
"375 492 CURVE SMOOTH",
"419 496 OFFCURVE",
"485 495 OFFCURVE",
"504 490 CURVE",
"504 517 OFFCURVE",
"500 534 OFFCURVE",
"450 534 CURVE SMOOTH",
"422 534 OFFCURVE",
"347 534 OFFCURVE",
"282 525 CURVE SMOOTH",
"253 521 OFFCURVE",
"243 514 OFFCURVE",
"243 507 CURVE SMOOTH",
"243 495 OFFCURVE",
"263 485 OFFCURVE",
"280 485 CURVE"
);
},
{
closed = 1;
nodes = (
"302 708 OFFCURVE",
"301 707 OFFCURVE",
"301 706 CURVE",
"296 695 OFFCURVE",
"400 628 OFFCURVE",
"437 618 CURVE SMOOTH",
"450 614 OFFCURVE",
"461 612 OFFCURVE",
"467 612 CURVE SMOOTH",
"471 612 OFFCURVE",
"474 613 OFFCURVE",
"475 615 CURVE",
"475 617 OFFCURVE",
"473 620 OFFCURVE",
"463 624 CURVE SMOOTH",
"447 631 OFFCURVE",
"362 708 OFFCURVE",
"348 716 CURVE",
"346 719 OFFCURVE",
"341 720 OFFCURVE",
"337 720 CURVE SMOOTH",
"328 720 OFFCURVE",
"315 712 OFFCURVE",
"303 708 CURVE"
);
}
);
width = 359;
}
);
note = Egrave;
unicode = 00C8;
},
{
color = 0;
glyphname = Emacron;
lastChange = "2021-05-17 19:56:03 +0000";
layers = (
{
hints = (
{
place = "{-11, 52}";
type = Stem;
},
{
place = "{163, 24}";
type = Stem;
},
{
place = "{529, 27}";
type = Stem;
},
{
place = "{628, 32}";
type = Stem;
},
{
horizontal = 1;
place = "{523, 22}";
type = Stem;
},
{
place = "{316, 169}";
type = Stem;
}
);
layerId = "1C8B4FDB-B0E8-4411-8E26-068C67144FEF";
paths = (
{
closed = 1;
nodes = (
"263 471 OFFCURVE",
"190 389 OFFCURVE",
"128 294 CURVE SMOOTH",
"77 216 OFFCURVE",
"34 131 OFFCURVE",
"34 65 CURVE SMOOTH",
"34 41 OFFCURVE",
"54 3 OFFCURVE",
"113 3 CURVE SMOOTH",
"149 3 OFFCURVE",
"281 38 OFFCURVE",
"324 31 CURVE",
"323 63 OFFCURVE",
"291 65 OFFCURVE",
"255 65 CURVE SMOOTH",
"204 65 OFFCURVE",
"157 48 OFFCURVE",
"114 48 CURVE SMOOTH",
"102 48 OFFCURVE",
"95 54 OFFCURVE",
"95 67 CURVE SMOOTH",
"95 122 OFFCURVE",
"159 235 OFFCURVE",
"157 231 CURVE",
"320 231 LINE",
"330 254 OFFCURVE",
"315 272 OFFCURVE",
"276 272 CURVE SMOOTH",
"231 272 OFFCURVE",
"192 262 OFFCURVE",
"171 258 CURVE",
"185 298 OFFCURVE",
"285 445 OFFCURVE",
"309 470 CURVE SMOOTH",
"323 483 OFFCURVE",
"348 489 OFFCURVE",
"375 492 CURVE SMOOTH",
"419 496 OFFCURVE",
"485 495 OFFCURVE",
"504 490 CURVE",
"504 517 OFFCURVE",
"500 534 OFFCURVE",
"450 534 CURVE SMOOTH",
"422 534 OFFCURVE",
"347 534 OFFCURVE",
"282 525 CURVE SMOOTH",
"253 521 OFFCURVE",
"243 514 OFFCURVE",
"243 507 CURVE SMOOTH",
"243 495 OFFCURVE",
"263 485 OFFCURVE",
"280 485 CURVE"
);
},
{
closed = 1;
nodes = (
"515 619 OFFCURVE",
"517 643 OFFCURVE",
"494 643 CURVE SMOOTH",
"449 643 OFFCURVE",
"358 633 OFFCURVE",
"324 643 CURVE",
"324 627 OFFCURVE",
"319 603 OFFCURVE",
"346 603 CURVE SMOOTH",
"380 603 OFFCURVE",
"494 612 OFFCURVE",
"515 602 CURVE"
);
}
);
width = 359;
}
);
note = Emacron;
unicode = 0112;
},
{
color = 0;
glyphname = Eogonek;
lastChange = "2021-05-17 19:56:03 +0000";
layers = (
{
hints = (
{
place = "{-11, 52}";
type = Stem;
},
{
place = "{163, 24}";
type = Stem;
},
{
place = "{529, 27}";
type = Stem;
},
{
place = "{628, 32}";
type = Stem;
},
{
horizontal = 1;
place = "{-125, 24}";
type = Stem;
},
{
horizontal = 1;
place = "{7, 34}";
type = Stem;
},
{
horizontal = 1;
place = "{312, 9}";
type = Stem;
},
{
place = "{91, 27}";
type = Stem;
},
{
horizontal = 1;
place = "{-14, 21}";
target = up;
type = BottomGhost;
},
{
place = "{55, 342}";
type = Stem;
}
);
layerId = "1C8B4FDB-B0E8-4411-8E26-068C67144FEF";
paths = (
{
closed = 1;
nodes = (
"263 471 OFFCURVE",
"190 389 OFFCURVE",
"128 294 CURVE SMOOTH",
"77 216 OFFCURVE",
"34 131 OFFCURVE",
"34 65 CURVE SMOOTH",
"34 41 OFFCURVE",
"54 3 OFFCURVE",
"113 3 CURVE SMOOTH",
"149 3 OFFCURVE",
"281 38 OFFCURVE",
"324 31 CURVE",
"323 63 OFFCURVE",
"291 65 OFFCURVE",
"255 65 CURVE SMOOTH",
"204 65 OFFCURVE",
"157 48 OFFCURVE",
"114 48 CURVE SMOOTH",
"102 48 OFFCURVE",
"95 54 OFFCURVE",
"95 67 CURVE SMOOTH",
"95 122 OFFCURVE",
"159 235 OFFCURVE",
"157 231 CURVE",
"320 231 LINE",
"330 254 OFFCURVE",
"315 272 OFFCURVE",
"276 272 CURVE SMOOTH",
"231 272 OFFCURVE",
"192 262 OFFCURVE",
"171 258 CURVE",
"185 298 OFFCURVE",
"285 445 OFFCURVE",
"309 470 CURVE SMOOTH",
"323 483 OFFCURVE",
"348 489 OFFCURVE",
"375 492 CURVE SMOOTH",
"419 496 OFFCURVE",
"485 495 OFFCURVE",
"504 490 CURVE",
"504 517 OFFCURVE",
"500 534 OFFCURVE",
"450 534 CURVE SMOOTH",
"422 534 OFFCURVE",
"347 534 OFFCURVE",
"282 525 CURVE SMOOTH",
"253 521 OFFCURVE",
"243 514 OFFCURVE",
"243 507 CURVE SMOOTH",
"243 495 OFFCURVE",
"263 485 OFFCURVE",
"280 485 CURVE"
);
},
{
closed = 1;
nodes = (
"140 -174 OFFCURVE",
"166 -165 OFFCURVE",
"190 -150 CURVE SMOOTH",
"205 -140 OFFCURVE",
"231 -121 OFFCURVE",
"246 -107 CURVE SMOOTH",
"252 -101 OFFCURVE",
"263 -80 OFFCURVE",
"254 -69 CURVE",
"227 -93 OFFCURVE",
"179 -129 OFFCURVE",
"149 -135 CURVE SMOOTH",
"107 -146 OFFCURVE",
"103 -118 OFFCURVE",
"121 -78 CURVE SMOOTH",
"143 -27 OFFCURVE",
"157 -2 OFFCURVE",
"158 1 CURVE SMOOTH",
"166 17 OFFCURVE",
"145 16 OFFCURVE",
"135 7 CURVE SMOOTH",
"100 -22 OFFCURVE",
"9 -174 OFFCURVE",
"118 -174 CURVE SMOOTH"
);
}
);
width = 359;
}
);
note = Eogonek;
unicode = 0118;
},
{
color = 0;
glyphname = F;
lastChange = "2021-05-17 19:56:03 +0000";
layers = (
{
hints = (
{
place = "{20, 73}";
type = Stem;
},
{
place = "{115, 48}";
type = Stem;
},
{
place = "{245, 25}";
type = Stem;
},
{
place = "{532, 9}";
type = Stem;
}
);
layerId = "1C8B4FDB-B0E8-4411-8E26-068C67144FEF";
paths = (
{
closed = 1;
nodes = (
"34 8 OFFCURVE",
"51 -12 OFFCURVE",
"85 -12 CURVE",
"88 34 OFFCURVE",
"98 80 OFFCURVE",
"110 119 CURVE SMOOTH",
"125 171 OFFCURVE",
"144 211 OFFCURVE",
"151 224 CURVE",
"173 229 OFFCURVE",
"330 235 OFFCURVE",
"352 235 CURVE",
"373 283 OFFCURVE",
"204 260 OFFCURVE",
"162 253 CURVE",
"171 277 OFFCURVE",
"212 338 OFFCURVE",
"248 392 CURVE SMOOTH",
"310 485 OFFCURVE",
"346 487 OFFCURVE",
"407 492 CURVE SMOOTH",
"451 496 OFFCURVE",
"518 495 OFFCURVE",
"536 490 CURVE",
"536 517 OFFCURVE",
"532 534 OFFCURVE",
"482 534 CURVE SMOOTH",
"453 534 OFFCURVE",
"357 534 OFFCURVE",
"281 524 CURVE SMOOTH",
"243 519 OFFCURVE",
"218 512 OFFCURVE",
"218 500 CURVE SMOOTH",
"218 492 OFFCURVE",
"235 485 OFFCURVE",
"280 485 CURVE",
"251 459 OFFCURVE",
"34 193 OFFCURVE",
"34 47 CURVE SMOOTH"
);
}
);
width = 366;
}
);
note = F;
unicode = 0046;
},
{
color = 0;
glyphname = G;
lastChange = "2021-06-22 21:39:34 +0000";
layers = (
{
hints = (
{
place = "{-36, 22}";
type = Stem;
},
{
place = "{34, 44}";
type = Stem;
},
{
place = "{435, 27}";
type = Stem;
},
{
place = "{468, 44}";
type = Stem;
},
{
place = "{518, 39}";
type = Stem;
}
);
layerId = "1C8B4FDB-B0E8-4411-8E26-068C67144FEF";
paths = (
{
closed = 1;
nodes = (
"233 195 OFFCURVE",
"238 188 OFFCURVE",
"250 182 CURVE SMOOTH",
"282 167 OFFCURVE",
"347 170 OFFCURVE",
"396 176 CURVE",
"394 150 OFFCURVE",
"380 115 OFFCURVE",
"362 93 CURVE SMOOTH",
"317 36 OFFCURVE",
"266 2 OFFCURVE",
"207 2 CURVE SMOOTH",
"133 2 OFFCURVE",
"113 48 OFFCURVE",
"113 112 CURVE SMOOTH",
"113 255 OFFCURVE",
"253 517 OFFCURVE",
"429 517 CURVE SMOOTH",
"484 517 OFFCURVE",
"491 466 OFFCURVE",
"469 415 CURVE SMOOTH",
"446 361 OFFCURVE",
"429 297 OFFCURVE",
"474 297 CURVE",
"480 312 OFFCURVE",
"505 367 OFFCURVE",
"520 411 CURVE SMOOTH",
"541 477 OFFCURVE",
"509 541 OFFCURVE",
"410 541 CURVE SMOOTH",
"230 541 OFFCURVE",
"50 310 OFFCURVE",
"50 132 CURVE SMOOTH",
"50 46 OFFCURVE",
"91 -20 OFFCURVE",
"202 -20 CURVE SMOOTH",
"290 -20 OFFCURVE",
"435 49 OFFCURVE",
"435 164 CURVE SMOOTH",
"435 171 OFFCURVE",
"435 176 OFFCURVE",
"433 181 CURVE",
"478 189 OFFCURVE",
"502 198 OFFCURVE",
"527 191 CURVE",
"523 217 OFFCURVE",
"502 229 OFFCURVE",
"466 229 CURVE SMOOTH",
"455 229 OFFCURVE",
"353 212 OFFCURVE",
"305 207 CURVE SMOOTH",
"264 203 OFFCURVE",
"232 206 OFFCURVE",
"232 206 CURVE"
);
}
);
width = 508;
}
);
note = G;
unicode = 0047;
},
{
color = 0;
glyphname = Gbreve;
lastChange = "2021-05-17 19:56:03 +0000";
layers = (
{
hints = (
{
place = "{-36, 22}";
type = Stem;
},
{
place = "{34, 44}";
type = Stem;
},
{
place = "{435, 27}";
type = Stem;
},
{
place = "{468, 44}";
type = Stem;
},
{
place = "{518, 39}";
type = Stem;
},
{
horizontal = 1;
place = "{509, 19}";
type = Stem;
}
);
layerId = "1C8B4FDB-B0E8-4411-8E26-068C67144FEF";
paths = (
{
closed = 1;
nodes = (
"220 195 OFFCURVE",
"225 188 OFFCURVE",
"237 182 CURVE SMOOTH",
"269 167 OFFCURVE",
"334 170 OFFCURVE",
"383 176 CURVE",
"381 150 OFFCURVE",
"367 115 OFFCURVE",
"349 93 CURVE SMOOTH",
"304 36 OFFCURVE",
"253 2 OFFCURVE",
"194 2 CURVE SMOOTH",
"120 2 OFFCURVE",
"100 48 OFFCURVE",
"100 112 CURVE SMOOTH",
"100 255 OFFCURVE",
"240 517 OFFCURVE",
"416 517 CURVE SMOOTH",
"471 517 OFFCURVE",
"478 466 OFFCURVE",
"456 415 CURVE SMOOTH",
"433 361 OFFCURVE",
"416 297 OFFCURVE",
"461 297 CURVE",
"467 312 OFFCURVE",
"492 367 OFFCURVE",
"507 411 CURVE SMOOTH",
"528 477 OFFCURVE",
"496 541 OFFCURVE",
"397 541 CURVE SMOOTH",
"217 541 OFFCURVE",
"37 310 OFFCURVE",
"37 132 CURVE SMOOTH",
"37 46 OFFCURVE",
"78 -20 OFFCURVE",
"189 -20 CURVE SMOOTH",
"277 -20 OFFCURVE",
"422 49 OFFCURVE",
"422 164 CURVE SMOOTH",
"422 171 OFFCURVE",
"422 176 OFFCURVE",
"420 181 CURVE",
"465 189 OFFCURVE",
"489 198 OFFCURVE",
"514 191 CURVE",
"510 217 OFFCURVE",
"489 229 OFFCURVE",
"453 229 CURVE SMOOTH",
"442 229 OFFCURVE",
"340 212 OFFCURVE",
"292 207 CURVE SMOOTH",
"251 203 OFFCURVE",
"219 206 OFFCURVE",
"219 206 CURVE"
);
},
{
closed = 1;
nodes = (
"500 620 OFFCURVE",
"416 626 OFFCURVE",
"409 674 CURVE SMOOTH",
"407 687 OFFCURVE",
"396 682 OFFCURVE",
"392 670 CURVE SMOOTH",
"377 632 OFFCURVE",
"404 604 OFFCURVE",
"445 604 CURVE SMOOTH",
"489 604 OFFCURVE",
"545 637 OFFCURVE",
"559 677 CURVE SMOOTH",
"561 684 OFFCURVE",
"552 687 OFFCURVE",
"545 678 CURVE SMOOTH"
);
}
);
width = 495;
}
);
note = Gbreve;
unicode = 011E;
},
{
color = 0;
glyphname = Gcircumflex;
lastChange = "2021-05-17 19:56:03 +0000";
layers = (
{
hints = (
{
place = "{-36, 22}";
type = Stem;
},
{
place = "{34, 44}";
type = Stem;
},
{
place = "{435, 27}";
type = Stem;
},
{
place = "{468, 44}";
type = Stem;
},
{
place = "{518, 39}";
type = Stem;
},
{
horizontal = 1;
place = "{469, 108}";
type = Stem;
},
{
place = "{272, 231}";
type = Stem;
}
);
layerId = "1C8B4FDB-B0E8-4411-8E26-068C67144FEF";
paths = (
{
closed = 1;
nodes = (
"220 195 OFFCURVE",
"225 188 OFFCURVE",
"237 182 CURVE SMOOTH",
"269 167 OFFCURVE",
"334 170 OFFCURVE",
"383 176 CURVE",
"381 150 OFFCURVE",
"367 115 OFFCURVE",
"349 93 CURVE SMOOTH",
"304 36 OFFCURVE",
"253 2 OFFCURVE",
"194 2 CURVE SMOOTH",
"120 2 OFFCURVE",
"100 48 OFFCURVE",
"100 112 CURVE SMOOTH",
"100 255 OFFCURVE",
"240 517 OFFCURVE",
"416 517 CURVE SMOOTH",
"471 517 OFFCURVE",
"478 466 OFFCURVE",
"456 415 CURVE SMOOTH",
"433 361 OFFCURVE",
"416 297 OFFCURVE",
"461 297 CURVE",
"467 312 OFFCURVE",
"492 367 OFFCURVE",
"507 411 CURVE SMOOTH",
"528 477 OFFCURVE",
"496 541 OFFCURVE",
"397 541 CURVE SMOOTH",
"217 541 OFFCURVE",
"37 310 OFFCURVE",
"37 132 CURVE SMOOTH",
"37 46 OFFCURVE",
"78 -20 OFFCURVE",
"189 -20 CURVE SMOOTH",
"277 -20 OFFCURVE",
"422 49 OFFCURVE",
"422 164 CURVE SMOOTH",
"422 171 OFFCURVE",
"422 176 OFFCURVE",
"420 181 CURVE",
"465 189 OFFCURVE",
"489 198 OFFCURVE",
"514 191 CURVE",
"510 217 OFFCURVE",
"489 229 OFFCURVE",
"453 229 CURVE SMOOTH",
"442 229 OFFCURVE",
"340 212 OFFCURVE",
"292 207 CURVE SMOOTH",
"251 203 OFFCURVE",
"219 206 OFFCURVE",
"219 206 CURVE"
);
},
{
closed = 1;
nodes = (
"348 611 OFFCURVE",
"425 655 OFFCURVE",
"460 667 CURVE",
"468 655 OFFCURVE",
"504 604 OFFCURVE",
"559 604 CURVE",
"538 623 OFFCURVE",
"491 712 OFFCURVE",
"479 718 CURVE",
"433 690 OFFCURVE",
"316 638 OFFCURVE",
"316 586 CURVE"
);
}
);
width = 495;
}
);
note = Gcircumflex;
unicode = 011C;
},
{
color = 0;
glyphname = Gcommaaccent;
lastChange = "2021-05-17 19:56:03 +0000";
layers = (
{
hints = (
{
place = "{-36, 22}";
type = Stem;
},
{
place = "{34, 44}";
type = Stem;
},
{
place = "{435, 27}";
type = Stem;
},
{
place = "{468, 44}";
type = Stem;
},
{
place = "{518, 39}";
type = Stem;
},
{
place = "{160, 40}";
type = Stem;
}
);
layerId = "1C8B4FDB-B0E8-4411-8E26-068C67144FEF";
paths = (
{
closed = 1;
nodes = (
"220 195 OFFCURVE",
"225 188 OFFCURVE",
"237 182 CURVE SMOOTH",
"269 167 OFFCURVE",
"334 170 OFFCURVE",
"383 176 CURVE",
"381 150 OFFCURVE",
"367 115 OFFCURVE",
"349 93 CURVE SMOOTH",
"304 36 OFFCURVE",
"253 2 OFFCURVE",
"194 2 CURVE SMOOTH",
"120 2 OFFCURVE",
"100 48 OFFCURVE",
"100 112 CURVE SMOOTH",
"100 255 OFFCURVE",
"240 517 OFFCURVE",
"416 517 CURVE SMOOTH",
"471 517 OFFCURVE",
"478 466 OFFCURVE",
"456 415 CURVE SMOOTH",
"433 361 OFFCURVE",
"416 297 OFFCURVE",
"461 297 CURVE",
"467 312 OFFCURVE",
"492 367 OFFCURVE",
"507 411 CURVE SMOOTH",
"528 477 OFFCURVE",
"496 541 OFFCURVE",
"397 541 CURVE SMOOTH",
"217 541 OFFCURVE",
"37 310 OFFCURVE",
"37 132 CURVE SMOOTH",
"37 46 OFFCURVE",
"78 -20 OFFCURVE",
"189 -20 CURVE SMOOTH",
"277 -20 OFFCURVE",
"422 49 OFFCURVE",
"422 164 CURVE SMOOTH",
"422 171 OFFCURVE",
"422 176 OFFCURVE",
"420 181 CURVE",
"465 189 OFFCURVE",
"489 198 OFFCURVE",
"514 191 CURVE",
"510 217 OFFCURVE",
"489 229 OFFCURVE",
"453 229 CURVE SMOOTH",
"442 229 OFFCURVE",
"340 212 OFFCURVE",
"292 207 CURVE SMOOTH",
"251 203 OFFCURVE",
"219 206 OFFCURVE",
"219 206 CURVE"
);
},
{
closed = 1;
nodes = (
"111 -115 OFFCURVE",
"89 -146 OFFCURVE",
"64 -171 CURVE SMOOTH",
"31 -209 LINE SMOOTH",
"29 -211 OFFCURVE",
"29 -218 OFFCURVE",
"40 -213 CURVE SMOOTH",
"43 -211 OFFCURVE",
"46 -202 OFFCURVE",
"52 -199 CURVE SMOOTH",
"91 -178 OFFCURVE",
"143 -154 OFFCURVE",
"156 -114 CURVE SMOOTH",
"165 -89 OFFCURVE",
"159 -67 OFFCURVE",
"143 -55 CURVE SMOOTH",
"132 -48 OFFCURVE",
"115 -43 OFFCURVE",
"124 -55 CURVE SMOOTH",
"128 -62 OFFCURVE",
"126 -75 OFFCURVE",
"124 -84 CURVE"
);
}
);
width = 495;
}
);
note = uni0122;
unicode = 0122;
},
{
color = 0;
glyphname = Gdotaccent;
lastChange = "2021-05-17 19:56:03 +0000";
layers = (
{
hints = (
{
horizontal = 1;
place = "{575, 74}";
type = Stem;
},
{
place = "{-36, 22}";
type = Stem;
},
{
place = "{34, 44}";
type = Stem;
},
{
place = "{435, 27}";
type = Stem;
},
{
place = "{443, 67}";
type = Stem;
},
{
place = "{463, 75}";
type = Stem;
},
{
place = "{468, 44}";
type = Stem;
},
{
place = "{518, 39}";
type = Stem;
}
);
layerId = "1C8B4FDB-B0E8-4411-8E26-068C67144FEF";
paths = (
{
closed = 1;
nodes = (
"220 195 OFFCURVE",
"225 188 OFFCURVE",
"237 182 CURVE SMOOTH",
"269 167 OFFCURVE",
"334 170 OFFCURVE",
"383 176 CURVE",
"381 150 OFFCURVE",
"367 115 OFFCURVE",
"349 93 CURVE SMOOTH",
"304 36 OFFCURVE",
"253 2 OFFCURVE",
"194 2 CURVE SMOOTH",
"120 2 OFFCURVE",
"100 48 OFFCURVE",
"100 112 CURVE SMOOTH",
"100 255 OFFCURVE",
"240 517 OFFCURVE",
"416 517 CURVE SMOOTH",
"471 517 OFFCURVE",
"478 466 OFFCURVE",
"456 415 CURVE SMOOTH",
"433 361 OFFCURVE",
"416 297 OFFCURVE",
"461 297 CURVE",
"467 312 OFFCURVE",
"492 367 OFFCURVE",
"507 411 CURVE SMOOTH",
"528 477 OFFCURVE",
"496 541 OFFCURVE",
"397 541 CURVE SMOOTH",
"217 541 OFFCURVE",
"37 310 OFFCURVE",
"37 132 CURVE SMOOTH",
"37 46 OFFCURVE",
"78 -20 OFFCURVE",
"189 -20 CURVE SMOOTH",
"277 -20 OFFCURVE",
"422 49 OFFCURVE",
"422 164 CURVE SMOOTH",
"422 171 OFFCURVE",
"422 176 OFFCURVE",
"420 181 CURVE",
"465 189 OFFCURVE",
"489 198 OFFCURVE",
"514 191 CURVE",
"510 217 OFFCURVE",
"489 229 OFFCURVE",
"453 229 CURVE SMOOTH",
"442 229 OFFCURVE",
"340 212 OFFCURVE",
"292 207 CURVE SMOOTH",
"251 203 OFFCURVE",
"219 206 OFFCURVE",
"219 206 CURVE"
);
},
{
closed = 1;
nodes = (
"518 659 OFFCURVE",
"484 650 OFFCURVE",
"483 649 CURVE",
"472 644 OFFCURVE",
"462 637 OFFCURVE",
"453 629 CURVE SMOOTH",
"447 625 OFFCURVE",
"440 612 OFFCURVE",
"446 602 CURVE SMOOTH",
"450 594 OFFCURVE",
"456 586 OFFCURVE",
"467 585 CURVE SMOOTH",
"503 579 OFFCURVE",
"498 626 OFFCURVE",
"511 644 CURVE"
);
}
);
width = 495;
}
);
note = Gdotaccent;
unicode = 0120;
},
{
color = 0;
glyphname = H;
lastChange = "2021-06-22 21:42:11 +0000";
layers = (
{
hints = (
{
place = "{48, 10}";
type = Stem;
},
{
place = "{148, 56}";
type = Stem;
},
{
place = "{476, 21}";
type = Stem;
},
{
place = "{534, 42}";
type = Stem;
},
{
place = "{725, 9}";
type = Stem;
}
);
layerId = "1C8B4FDB-B0E8-4411-8E26-068C67144FEF";
paths = (
{
closed = 1;
nodes = (
"446 203 OFFCURVE",
"440 223 OFFCURVE",
"409 229 CURVE",
"413 235 LINE SMOOTH",
"446 286 OFFCURVE",
"537 442 OFFCURVE",
"538 484 CURVE SMOOTH",
"539 501 OFFCURVE",
"543 543 OFFCURVE",
"509 543 CURVE",
"488 454 OFFCURVE",
"416 337 OFFCURVE",
"349 229 CURVE",
"297 226 OFFCURVE",
"215 220 OFFCURVE",
"159 218 CURVE",
"170 235 LINE SMOOTH",
"203 286 OFFCURVE",
"293 442 OFFCURVE",
"295 484 CURVE SMOOTH",
"296 501 OFFCURVE",
"300 543 OFFCURVE",
"266 543 CURVE",
"244 451 OFFCURVE",
"169 331 OFFCURVE",
"100 218 CURVE",
"74 219 OFFCURVE",
"50 222 OFFCURVE",
"38 226 CURVE",
"35 216 OFFCURVE",
"44 185 OFFCURVE",
"74 177 CURVE",
"52 141 OFFCURVE",
"14 97 OFFCURVE",
"14 53 CURVE SMOOTH",
"14 14 OFFCURVE",
"24 -1 OFFCURVE",
"44 -12 CURVE",
"48 7 OFFCURVE",
"67 51 OFFCURVE",
"92 99 CURVE SMOOTH",
"106 126 OFFCURVE",
"121 154 OFFCURVE",
"136 180 CURVE",
"178 185 OFFCURVE",
"248 193 OFFCURVE",
"330 197 CURVE",
"327 193 OFFCURVE",
"324 188 OFFCURVE",
"322 184 CURVE SMOOTH",
"299 147 OFFCURVE",
"257 95 OFFCURVE",
"257 53 CURVE SMOOTH",
"257 14 OFFCURVE",
"267 -1 OFFCURVE",
"288 -12 CURVE",
"291 7 OFFCURVE",
"310 51 OFFCURVE",
"335 99 CURVE SMOOTH",
"352 132 OFFCURVE",
"372 167 OFFCURVE",
"390 197 CURVE",
"415 195 OFFCURVE",
"440 192 OFFCURVE",
"446 186 CURVE"
);
}
);
width = 434;
}
);
note = H;
unicode = 0048;
},
{
color = 0;
glyphname = Hbar;
lastChange = "2021-05-17 19:56:03 +0000";
layers = (
{
hints = (
{
horizontal = 1;
place = "{-12, 21}";
target = up;
type = BottomGhost;
},
{
horizontal = 1;
place = "{197, 21}";
type = Stem;
},
{
horizontal = 1;
place = "{360, 21}";
type = Stem;
},
{
place = "{1, 30}";
type = Stem;
},
{
place = "{244, 31}";
type = Stem;
}
);
layerId = "1C8B4FDB-B0E8-4411-8E26-068C67144FEF";
paths = (
{
closed = 1;
nodes = (
"522 368 OFFCURVE",
"526 382 OFFCURVE",
"485 384 CURVE",
"507 427 OFFCURVE",
"524 466 OFFCURVE",
"525 484 CURVE SMOOTH",
"526 501 OFFCURVE",
"530 543 OFFCURVE",
"496 543 CURVE",
"485 496 OFFCURVE",
"459 441 OFFCURVE",
"428 384 CURVE",
"372 383 OFFCURVE",
"303 381 OFFCURVE",
"240 381 CURVE",
"263 425 OFFCURVE",
"281 465 OFFCURVE",
"282 484 CURVE SMOOTH",
"283 501 OFFCURVE",
"287 543 OFFCURVE",
"253 543 CURVE",
"241 495 OFFCURVE",
"215 439 OFFCURVE",
"183 381 CURVE",
"153 381 OFFCURVE",
"125 382 OFFCURVE",
"107 384 CURVE",
"107 374 OFFCURVE",
"96 358 OFFCURVE",
"155 358 CURVE SMOOTH",
"171 358 LINE",
"144 311 OFFCURVE",
"115 264 OFFCURVE",
"87 218 CURVE",
"61 219 OFFCURVE",
"37 222 OFFCURVE",
"25 226 CURVE",
"22 216 OFFCURVE",
"31 185 OFFCURVE",
"61 177 CURVE",
"39 141 OFFCURVE",
"1 97 OFFCURVE",
"1 53 CURVE SMOOTH",
"1 14 OFFCURVE",
"11 -1 OFFCURVE",
"31 -12 CURVE",
"35 7 OFFCURVE",
"54 51 OFFCURVE",
"79 99 CURVE SMOOTH",
"93 126 OFFCURVE",
"108 154 OFFCURVE",
"123 180 CURVE",
"165 185 OFFCURVE",
"235 193 OFFCURVE",
"317 197 CURVE",
"309 184 LINE SMOOTH",
"286 147 OFFCURVE",
"244 95 OFFCURVE",
"244 53 CURVE SMOOTH",
"244 14 OFFCURVE",
"254 -1 OFFCURVE",
"275 -12 CURVE",
"278 7 OFFCURVE",
"297 51 OFFCURVE",
"322 99 CURVE SMOOTH",
"339 132 OFFCURVE",
"359 167 OFFCURVE",
"377 197 CURVE",
"402 195 OFFCURVE",
"427 192 OFFCURVE",
"433 186 CURVE",
"433 203 OFFCURVE",
"427 223 OFFCURVE",
"396 229 CURVE",
"400 235 LINE SMOOTH",
"416 260 OFFCURVE",
"447 310 OFFCURVE",
"473 360 CURVE",
"495 360 OFFCURVE",
"513 359 OFFCURVE",
"522 358 CURVE"
);
},
{
closed = 1;
nodes = (
"284 226 OFFCURVE",
"202 220 OFFCURVE",
"146 218 CURVE",
"157 235 LINE SMOOTH",
"173 260 OFFCURVE",
"202 309 OFFCURVE",
"229 358 CURVE",
"286 359 OFFCURVE",
"355 360 OFFCURVE",
"415 360 CURVE",
"390 316 OFFCURVE",
"363 272 OFFCURVE",
"336 229 CURVE"
);
}
);
width = 430;
}
);
note = Hbar;
unicode = 0126;
},
{
color = 0;
glyphname = Hcircumflex;
lastChange = "2021-05-17 19:56:03 +0000";
layers = (
{
hints = (
{
place = "{48, 10}";
type = Stem;
},
{
place = "{148, 56}";
type = Stem;
},
{
place = "{476, 21}";
type = Stem;
},
{
place = "{534, 42}";
type = Stem;
},
{
place = "{725, 9}";
type = Stem;
},
{
horizontal = 1;
place = "{482, 108}";
type = Stem;
},
{
place = "{259, 231}";
type = Stem;
}
);
layerId = "1C8B4FDB-B0E8-4411-8E26-068C67144FEF";
paths = (
{
closed = 1;
nodes = (
"433 203 OFFCURVE",
"427 223 OFFCURVE",
"396 229 CURVE",
"400 235 LINE SMOOTH",
"433 286 OFFCURVE",
"524 442 OFFCURVE",
"525 484 CURVE SMOOTH",
"526 501 OFFCURVE",
"530 543 OFFCURVE",
"496 543 CURVE",
"475 454 OFFCURVE",
"403 337 OFFCURVE",
"336 229 CURVE",
"284 226 OFFCURVE",
"202 220 OFFCURVE",
"146 218 CURVE",
"157 235 LINE SMOOTH",
"190 286 OFFCURVE",
"280 442 OFFCURVE",
"282 484 CURVE SMOOTH",
"283 501 OFFCURVE",
"287 543 OFFCURVE",
"253 543 CURVE",
"231 451 OFFCURVE",
"156 331 OFFCURVE",
"87 218 CURVE",
"61 219 OFFCURVE",
"37 222 OFFCURVE",
"25 226 CURVE",
"22 216 OFFCURVE",
"31 185 OFFCURVE",
"61 177 CURVE",
"39 141 OFFCURVE",
"1 97 OFFCURVE",
"1 53 CURVE SMOOTH",
"1 14 OFFCURVE",
"11 -1 OFFCURVE",
"31 -12 CURVE",
"35 7 OFFCURVE",
"54 51 OFFCURVE",
"79 99 CURVE SMOOTH",
"93 126 OFFCURVE",
"108 154 OFFCURVE",
"123 180 CURVE",
"165 185 OFFCURVE",
"235 193 OFFCURVE",
"317 197 CURVE",
"314 193 OFFCURVE",
"311 188 OFFCURVE",
"309 184 CURVE SMOOTH",
"286 147 OFFCURVE",
"244 95 OFFCURVE",
"244 53 CURVE SMOOTH",
"244 14 OFFCURVE",
"254 -1 OFFCURVE",
"275 -12 CURVE",
"278 7 OFFCURVE",
"297 51 OFFCURVE",
"322 99 CURVE SMOOTH",
"339 132 OFFCURVE",
"359 167 OFFCURVE",
"377 197 CURVE",
"402 195 OFFCURVE",
"427 192 OFFCURVE",
"433 186 CURVE"
);
},
{
closed = 1;
nodes = (
"335 624 OFFCURVE",
"412 668 OFFCURVE",
"447 680 CURVE",
"455 668 OFFCURVE",
"491 617 OFFCURVE",
"546 617 CURVE",
"525 636 OFFCURVE",
"478 725 OFFCURVE",
"466 731 CURVE",
"420 703 OFFCURVE",
"303 651 OFFCURVE",
"303 599 CURVE"
);
}
);
width = 430;
}
);
note = Hcircumflex;
unicode = 0124;
},
{
color = 0;
glyphname = I;
lastChange = "2021-06-22 21:42:14 +0000";
layers = (
{
hints = (
{
place = "{254, 51}";
type = Stem;
},
{
place = "{330, 23}";
type = Stem;
}
);
layerId = "1C8B4FDB-B0E8-4411-8E26-068C67144FEF";
paths = (
{
closed = 1;
nodes = (
"204 286 OFFCURVE",
"295 442 OFFCURVE",
"297 484 CURVE SMOOTH",
"298 501 OFFCURVE",
"302 543 OFFCURVE",
"268 543 CURVE",
"244 442 OFFCURVE",
"155 307 OFFCURVE",
"80 184 CURVE SMOOTH",
"58 147 OFFCURVE",
"15 95 OFFCURVE",
"15 53 CURVE SMOOTH",
"15 14 OFFCURVE",
"26 -1 OFFCURVE",
"46 -12 CURVE",
"49 7 OFFCURVE",
"68 51 OFFCURVE",
"94 99 CURVE SMOOTH",
"118 146 OFFCURVE",
"147 197 OFFCURVE",
"172 235 CURVE SMOOTH"
);
}
);
width = 154;
}
);
note = I;
unicode = 0049;
},
{
color = 0;
glyphname = IJ;
lastChange = "2021-05-17 19:56:03 +0000";
layers = (
{
hints = (
{
place = "{254, 51}";
type = Stem;
},
{
place = "{330, 23}";
type = Stem;
},
{
place = "{91, 25}";
type = Stem;
},
{
place = "{682, 41}";
type = Stem;
}
);
layerId = "1C8B4FDB-B0E8-4411-8E26-068C67144FEF";
paths = (
{
closed = 1;
nodes = (
"215 286 OFFCURVE",
"306 442 OFFCURVE",
"308 484 CURVE SMOOTH",
"309 501 OFFCURVE",
"313 543 OFFCURVE",
"279 543 CURVE",
"255 442 OFFCURVE",
"166 307 OFFCURVE",
"91 184 CURVE SMOOTH",
"69 147 OFFCURVE",
"26 95 OFFCURVE",
"26 53 CURVE SMOOTH",
"26 14 OFFCURVE",
"37 -1 OFFCURVE",
"57 -12 CURVE",
"60 7 OFFCURVE",
"79 51 OFFCURVE",
"105 99 CURVE SMOOTH",
"129 146 OFFCURVE",
"158 197 OFFCURVE",
"183 235 CURVE SMOOTH"
);
},
{
closed = 1;
nodes = (
"158 3 OFFCURVE",
"203 -34 OFFCURVE",
"251 -34 CURVE SMOOTH",
"397 -34 OFFCURVE",
"470 114 OFFCURVE",
"514 227 CURVE SMOOTH",
"560 344 OFFCURVE",
"588 411 OFFCURVE",
"588 460 CURVE SMOOTH",
"588 489 OFFCURVE",
"584 515 OFFCURVE",
"565 535 CURVE",
"554 491 OFFCURVE",
"488 299 OFFCURVE",
"453 223 CURVE SMOOTH",
"392 89 OFFCURVE",
"334 -16 OFFCURVE",
"258 -16 CURVE SMOOTH",
"213 -16 OFFCURVE",
"201 35 OFFCURVE",
"201 68 CURVE SMOOTH",
"201 93 OFFCURVE",
"213 136 OFFCURVE",
"230 168 CURVE",
"167 168 OFFCURVE",
"158 97 OFFCURVE",
"158 66 CURVE SMOOTH"
);
}
);
width = 570;
}
);
note = IJ;
unicode = 0132;
},
{
color = 0;
glyphname = Iacute;
lastChange = "2021-05-17 19:56:03 +0000";
layers = (
{
hints = (
{
place = "{254, 51}";
type = Stem;
},
{
place = "{330, 23}";
type = Stem;
},
{
horizontal = 1;
place = "{630, 118}";
type = Stem;
},
{
place = "{289, 157}";
type = Stem;
}
);
layerId = "1C8B4FDB-B0E8-4411-8E26-068C67144FEF";
paths = (
{
closed = 1;
nodes = (
"215 286 OFFCURVE",
"306 442 OFFCURVE",
"308 484 CURVE SMOOTH",
"309 501 OFFCURVE",
"313 543 OFFCURVE",
"279 543 CURVE",
"255 442 OFFCURVE",
"166 307 OFFCURVE",
"91 184 CURVE SMOOTH",
"69 147 OFFCURVE",
"26 95 OFFCURVE",
"26 53 CURVE SMOOTH",
"26 14 OFFCURVE",
"37 -1 OFFCURVE",
"57 -12 CURVE",
"60 7 OFFCURVE",
"79 51 OFFCURVE",
"105 99 CURVE SMOOTH",
"129 146 OFFCURVE",
"158 197 OFFCURVE",
"183 235 CURVE SMOOTH"
);
},
{
closed = 1;
nodes = (
"455 711 OFFCURVE",
"443 720 OFFCURVE",
"435 721 CURVE SMOOTH",
"431 722 OFFCURVE",
"426 722 OFFCURVE",
"423 719 CURVE",
"408 713 OFFCURVE",
"313 650 OFFCURVE",
"295 645 CURVE SMOOTH",
"285 643 OFFCURVE",
"283 640 OFFCURVE",
"283 639 CURVE SMOOTH",
"283 637 OFFCURVE",
"286 635 OFFCURVE",
"290 634 CURVE SMOOTH",
"296 633 OFFCURVE",
"307 633 OFFCURVE",
"320 636 CURVE",
"358 639 OFFCURVE",
"471 690 OFFCURVE",
"469 702 CURVE SMOOTH",
"469 703 OFFCURVE",
"467 704 OFFCURVE",
"466 705 CURVE"
);
}
);
width = 229;
}
);
note = Iacute;
unicode = 00CD;
},
{
color = 0;
glyphname = Icircumflex;
lastChange = "2021-05-17 19:56:03 +0000";
layers = (
{
hints = (
{
place = "{254, 51}";
type = Stem;
},
{
place = "{330, 23}";
type = Stem;
},
{
horizontal = 1;
place = "{472, 108}";
type = Stem;
},
{
place = "{167, 231}";
type = Stem;
}
);
layerId = "1C8B4FDB-B0E8-4411-8E26-068C67144FEF";
paths = (
{
closed = 1;
nodes = (
"215 286 OFFCURVE",
"306 442 OFFCURVE",
"308 484 CURVE SMOOTH",
"309 501 OFFCURVE",
"313 543 OFFCURVE",
"279 543 CURVE",
"255 442 OFFCURVE",
"166 307 OFFCURVE",
"91 184 CURVE SMOOTH",
"69 147 OFFCURVE",
"26 95 OFFCURVE",
"26 53 CURVE SMOOTH",
"26 14 OFFCURVE",
"37 -1 OFFCURVE",
"57 -12 CURVE",
"60 7 OFFCURVE",
"79 51 OFFCURVE",
"105 99 CURVE SMOOTH",
"129 146 OFFCURVE",
"158 197 OFFCURVE",
"183 235 CURVE SMOOTH"
);
},
{
closed = 1;
nodes = (
"243 614 OFFCURVE",
"320 658 OFFCURVE",
"355 670 CURVE",
"363 658 OFFCURVE",
"399 607 OFFCURVE",
"454 607 CURVE",
"433 626 OFFCURVE",
"386 715 OFFCURVE",
"374 721 CURVE",
"328 693 OFFCURVE",
"211 641 OFFCURVE",
"211 589 CURVE"
);
}
);
width = 229;
}
);
note = Icircumflex;
unicode = 00CE;
},
{
color = 0;
glyphname = Idieresis;
lastChange = "2021-05-17 19:56:03 +0000";
layers = (
{
hints = (
{
place = "{254, 51}";
type = Stem;
},
{
place = "{330, 23}";
type = Stem;
},
{
place = "{258, 75}";
type = Stem;
},
{
place = "{378, 75}";
type = Stem;
}
);
layerId = "1C8B4FDB-B0E8-4411-8E26-068C67144FEF";
paths = (
{
closed = 1;
nodes = (
"215 286 OFFCURVE",
"306 442 OFFCURVE",
"308 484 CURVE SMOOTH",
"309 501 OFFCURVE",
"313 543 OFFCURVE",
"279 543 CURVE",
"255 442 OFFCURVE",
"166 307 OFFCURVE",
"91 184 CURVE SMOOTH",
"69 147 OFFCURVE",
"26 95 OFFCURVE",
"26 53 CURVE SMOOTH",
"26 14 OFFCURVE",
"37 -1 OFFCURVE",
"57 -12 CURVE",
"60 7 OFFCURVE",
"79 51 OFFCURVE",
"105 99 CURVE SMOOTH",
"129 146 OFFCURVE",
"158 197 OFFCURVE",
"183 235 CURVE SMOOTH"
);
},
{
closed = 1;
nodes = (
"318 709 OFFCURVE",
"314 713 OFFCURVE",
"310 711 CURVE SMOOTH",
"300 704 OFFCURVE",
"293 702 OFFCURVE",
"283 697 CURVE SMOOTH",
"271 692 OFFCURVE",
"261 685 OFFCURVE",
"252 677 CURVE SMOOTH",
"246 672 OFFCURVE",
"237 659 OFFCURVE",
"244 648 CURVE",
"248 639 OFFCURVE",
"254 631 OFFCURVE",
"266 629 CURVE SMOOTH",
"304 623 OFFCURVE",
"303 686 OFFCURVE",
"316 706 CURVE SMOOTH"
);
},
{
closed = 1;
nodes = (
"438 709 OFFCURVE",
"434 713 OFFCURVE",
"430 711 CURVE SMOOTH",
"420 704 OFFCURVE",
"413 702 OFFCURVE",
"403 697 CURVE SMOOTH",
"391 692 OFFCURVE",
"381 685 OFFCURVE",
"371 677 CURVE SMOOTH",
"365 672 OFFCURVE",
"357 659 OFFCURVE",
"364 648 CURVE",
"368 639 OFFCURVE",
"374 631 OFFCURVE",
"386 629 CURVE SMOOTH",
"424 623 OFFCURVE",
"422 686 OFFCURVE",
"436 706 CURVE SMOOTH"
);
}
);
width = 229;
}
);
note = Idieresis;
unicode = 00CF;
},
{
color = 0;
glyphname = Idotaccent;
lastChange = "2021-05-17 19:56:03 +0000";
layers = (
{
hints = (
{
horizontal = 1;
place = "{587, 74}";
type = Stem;
},
{
place = "{254, 51}";
type = Stem;
},
{
place = "{310, 67}";
type = Stem;
},
{
place = "{330, 23}";
type = Stem;
},
{
place = "{330, 75}";
type = Stem;
}
);
layerId = "1C8B4FDB-B0E8-4411-8E26-068C67144FEF";
paths = (
{
closed = 1;
nodes = (
"215 286 OFFCURVE",
"306 442 OFFCURVE",
"308 484 CURVE SMOOTH",
"309 501 OFFCURVE",
"313 543 OFFCURVE",
"279 543 CURVE",
"255 442 OFFCURVE",
"166 307 OFFCURVE",
"91 184 CURVE SMOOTH",
"69 147 OFFCURVE",
"26 95 OFFCURVE",
"26 53 CURVE SMOOTH",
"26 14 OFFCURVE",
"37 -1 OFFCURVE",
"57 -12 CURVE",
"60 7 OFFCURVE",
"79 51 OFFCURVE",
"105 99 CURVE SMOOTH",
"129 146 OFFCURVE",
"158 197 OFFCURVE",
"183 235 CURVE SMOOTH"
);
},
{
closed = 1;
nodes = (
"385 671 OFFCURVE",
"351 662 OFFCURVE",
"350 661 CURVE",
"339 656 OFFCURVE",
"329 649 OFFCURVE",
"320 641 CURVE SMOOTH",
"314 637 OFFCURVE",
"307 624 OFFCURVE",
"313 614 CURVE SMOOTH",
"317 606 OFFCURVE",
"323 598 OFFCURVE",
"334 597 CURVE SMOOTH",
"370 591 OFFCURVE",
"365 638 OFFCURVE",
"378 656 CURVE"
);
}
);
width = 229;
}
);
note = Idotaccent;
unicode = 0130;
},
{
color = 0;
glyphname = Igrave;
lastChange = "2021-05-17 19:56:03 +0000";
layers = (
{
hints = (
{
horizontal = 1;
place = "{587, 118}";
type = Stem;
},
{
horizontal = 1;
place = "{610, 118}";
type = Stem;
},
{
place = "{252, 157}";
type = Stem;
},
{
place = "{254, 51}";
type = Stem;
},
{
place = "{330, 23}";
type = Stem;
},
{
place = "{435, 157}";
type = Stem;
}
);
layerId = "1C8B4FDB-B0E8-4411-8E26-068C67144FEF";
paths = (
{
closed = 1;
nodes = (
"215 286 OFFCURVE",
"306 442 OFFCURVE",
"308 484 CURVE SMOOTH",
"309 501 OFFCURVE",
"313 543 OFFCURVE",
"279 543 CURVE",
"255 442 OFFCURVE",
"166 307 OFFCURVE",
"91 184 CURVE SMOOTH",
"69 147 OFFCURVE",
"26 95 OFFCURVE",
"26 53 CURVE SMOOTH",
"26 14 OFFCURVE",
"37 -1 OFFCURVE",
"57 -12 CURVE",
"60 7 OFFCURVE",
"79 51 OFFCURVE",
"105 99 CURVE SMOOTH",
"129 146 OFFCURVE",
"158 197 OFFCURVE",
"183 235 CURVE SMOOTH"
);
},
{
closed = 1;
nodes = (
"247 709 OFFCURVE",
"246 708 OFFCURVE",
"246 707 CURVE",
"241 696 OFFCURVE",
"345 629 OFFCURVE",
"382 619 CURVE SMOOTH",
"395 615 OFFCURVE",
"406 613 OFFCURVE",
"412 613 CURVE SMOOTH",
"416 613 OFFCURVE",
"419 614 OFFCURVE",
"420 616 CURVE",
"420 618 OFFCURVE",
"418 621 OFFCURVE",
"408 625 CURVE SMOOTH",
"392 632 OFFCURVE",
"307 709 OFFCURVE",
"293 717 CURVE",
"291 720 OFFCURVE",
"286 721 OFFCURVE",
"282 721 CURVE SMOOTH",
"273 721 OFFCURVE",
"260 713 OFFCURVE",
"248 709 CURVE"
);
}
);
width = 229;
}
);
note = Igrave;
unicode = 00CC;
},
{
color = 0;
glyphname = Imacron;
lastChange = "2021-05-17 19:56:03 +0000";
layers = (
{
hints = (
{
place = "{254, 51}";
type = Stem;
},
{
place = "{330, 23}";
type = Stem;
},
{
horizontal = 1;
place = "{540, 22}";
type = Stem;
},
{
place = "{216, 169}";
type = Stem;
}
);
layerId = "1C8B4FDB-B0E8-4411-8E26-068C67144FEF";
paths = (
{
closed = 1;
nodes = (
"215 286 OFFCURVE",
"306 442 OFFCURVE",
"308 484 CURVE SMOOTH",
"309 501 OFFCURVE",
"313 543 OFFCURVE",
"279 543 CURVE",
"255 442 OFFCURVE",
"166 307 OFFCURVE",
"91 184 CURVE SMOOTH",
"69 147 OFFCURVE",
"26 95 OFFCURVE",
"26 53 CURVE SMOOTH",
"26 14 OFFCURVE",
"37 -1 OFFCURVE",
"57 -12 CURVE",
"60 7 OFFCURVE",
"79 51 OFFCURVE",
"105 99 CURVE SMOOTH",
"129 146 OFFCURVE",
"158 197 OFFCURVE",
"183 235 CURVE SMOOTH"
);
},
{
closed = 1;
nodes = (
"415 636 OFFCURVE",
"417 660 OFFCURVE",
"394 660 CURVE SMOOTH",
"349 660 OFFCURVE",
"258 650 OFFCURVE",
"224 660 CURVE",
"224 644 OFFCURVE",
"219 620 OFFCURVE",
"246 620 CURVE SMOOTH",
"280 620 OFFCURVE",
"394 629 OFFCURVE",
"415 619 CURVE"
);
}
);
width = 229;
}
);
note = Imacron;
unicode = 012A;
},
{
color = 0;
glyphname = Iogonek;
lastChange = "2021-05-17 19:56:03 +0000";
layers = (
{
hints = (
{
place = "{254, 51}";
type = Stem;
},
{
place = "{330, 23}";
type = Stem;
},
{
horizontal = 1;
place = "{-131, 24}";
type = Stem;
},
{
horizontal = 1;
place = "{1, 34}";
type = Stem;
},
{
horizontal = 1;
place = "{306, 9}";
type = Stem;
},
{
place = "{-16, 27}";
type = Stem;
},
{
horizontal = 1;
place = "{-20, 21}";
target = up;
type = BottomGhost;
},
{
place = "{-52, 342}";
type = Stem;
}
);
layerId = "1C8B4FDB-B0E8-4411-8E26-068C67144FEF";
paths = (
{
closed = 1;
nodes = (
"215 286 OFFCURVE",
"306 442 OFFCURVE",
"308 484 CURVE SMOOTH",
"309 501 OFFCURVE",
"313 543 OFFCURVE",
"279 543 CURVE",
"255 442 OFFCURVE",
"166 307 OFFCURVE",
"91 184 CURVE SMOOTH",
"69 147 OFFCURVE",
"26 95 OFFCURVE",
"26 53 CURVE SMOOTH",
"26 14 OFFCURVE",
"37 -1 OFFCURVE",
"57 -12 CURVE",
"60 7 OFFCURVE",
"79 51 OFFCURVE",
"105 99 CURVE SMOOTH",
"129 146 OFFCURVE",
"158 197 OFFCURVE",
"183 235 CURVE SMOOTH"
);
},
{
closed = 1;
nodes = (
"33 -180 OFFCURVE",
"59 -171 OFFCURVE",
"83 -156 CURVE SMOOTH",
"98 -146 OFFCURVE",
"124 -127 OFFCURVE",
"139 -113 CURVE SMOOTH",
"145 -107 OFFCURVE",
"156 -86 OFFCURVE",
"147 -75 CURVE",
"120 -99 OFFCURVE",
"72 -135 OFFCURVE",
"42 -141 CURVE SMOOTH",
"0 -152 OFFCURVE",
"-4 -124 OFFCURVE",
"14 -84 CURVE SMOOTH",
"36 -33 OFFCURVE",
"50 -8 OFFCURVE",
"51 -5 CURVE SMOOTH",
"59 11 OFFCURVE",
"38 10 OFFCURVE",
"28 1 CURVE SMOOTH",
"-7 -28 OFFCURVE",
"-98 -180 OFFCURVE",
"11 -180 CURVE SMOOTH"
);
}
);
width = 229;
}
);
note = Iogonek;
unicode = 012E;
},
{
color = 0;
glyphname = Itilde;
lastChange = "2021-05-17 19:56:03 +0000";
layers = (
{
hints = (
{
horizontal = 1;
place = "{538, 28}";
type = Stem;
},
{
horizontal = 1;
place = "{561, 23}";
type = Stem;
},
{
place = "{192, 188}";
type = Stem;
},
{
place = "{254, 51}";
type = Stem;
},
{
place = "{330, 23}";
type = Stem;
}
);
layerId = "1C8B4FDB-B0E8-4411-8E26-068C67144FEF";
paths = (
{
closed = 1;
nodes = (
"215 286 OFFCURVE",
"306 442 OFFCURVE",
"308 484 CURVE SMOOTH",
"309 501 OFFCURVE",
"313 543 OFFCURVE",
"279 543 CURVE",
"255 442 OFFCURVE",
"166 307 OFFCURVE",
"91 184 CURVE SMOOTH",
"69 147 OFFCURVE",
"26 95 OFFCURVE",
"26 53 CURVE SMOOTH",
"26 14 OFFCURVE",
"37 -1 OFFCURVE",
"57 -12 CURVE",
"60 7 OFFCURVE",
"79 51 OFFCURVE",
"105 99 CURVE SMOOTH",
"129 146 OFFCURVE",
"158 197 OFFCURVE",
"183 235 CURVE SMOOTH"
);
},
{
closed = 1;
nodes = (
"439 650 OFFCURVE",
"434 650 OFFCURVE",
"430 650 CURVE",
"418 634 OFFCURVE",
"411 627 OFFCURVE",
"395 627 CURVE SMOOTH",
"361 627 OFFCURVE",
"330 651 OFFCURVE",
"289 651 CURVE SMOOTH",
"256 651 OFFCURVE",
"219 618 OFFCURVE",
"219 594 CURVE SMOOTH",
"219 593 OFFCURVE",
"221 590 OFFCURVE",
"227 592 CURVE",
"236 600 OFFCURVE",
"251 621 OFFCURVE",
"275 621 CURVE SMOOTH",
"310 621 OFFCURVE",
"327 591 OFFCURVE",
"373 591 CURVE SMOOTH",
"396 591 OFFCURVE",
"439 613 OFFCURVE",
"439 640 CURVE SMOOTH"
);
}
);
width = 229;
}
);
note = Itilde;
unicode = 0128;
},
{
color = 0;
glyphname = J;
lastChange = "2021-06-22 21:42:21 +0000";
layers = (
{
hints = (
{
place = "{-50, 25}";
type = Stem;
},
{
place = "{541, 41}";
type = Stem;
}
);
layerId = "1C8B4FDB-B0E8-4411-8E26-068C67144FEF";
paths = (
{
closed = 1;
nodes = (
"7 25 OFFCURVE",
"52 -12 OFFCURVE",
"100 -12 CURVE SMOOTH",
"246 -12 OFFCURVE",
"319 136 OFFCURVE",
"363 249 CURVE SMOOTH",
"409 366 OFFCURVE",
"437 433 OFFCURVE",
"437 482 CURVE SMOOTH",
"437 511 OFFCURVE",
"433 537 OFFCURVE",
"414 557 CURVE",
"403 513 OFFCURVE",
"337 321 OFFCURVE",
"302 245 CURVE SMOOTH",
"241 111 OFFCURVE",
"183 6 OFFCURVE",
"107 6 CURVE SMOOTH",
"62 6 OFFCURVE",
"50 57 OFFCURVE",
"50 90 CURVE SMOOTH",
"50 115 OFFCURVE",
"62 158 OFFCURVE",
"79 190 CURVE",
"16 190 OFFCURVE",
"7 119 OFFCURVE",
"7 88 CURVE SMOOTH"
);
}
);
width = 310;
}
);
note = J;
unicode = 004A;
},
{
color = 0;
glyphname = Jcircumflex;
lastChange = "2021-05-17 19:56:03 +0000";
layers = (
{
hints = (
{
place = "{-50, 25}";
type = Stem;
},
{
place = "{541, 41}";
type = Stem;
},
{
horizontal = 1;
place = "{468, 108}";
type = Stem;
},
{
place = "{285, 231}";
type = Stem;
}
);
layerId = "1C8B4FDB-B0E8-4411-8E26-068C67144FEF";
paths = (
{
closed = 1;
nodes = (
"17 25 OFFCURVE",
"62 -12 OFFCURVE",
"110 -12 CURVE SMOOTH",
"256 -12 OFFCURVE",
"329 136 OFFCURVE",
"373 249 CURVE SMOOTH",
"419 366 OFFCURVE",
"447 433 OFFCURVE",
"447 482 CURVE SMOOTH",
"447 511 OFFCURVE",
"443 537 OFFCURVE",
"424 557 CURVE",
"413 513 OFFCURVE",
"347 321 OFFCURVE",
"312 245 CURVE SMOOTH",
"251 111 OFFCURVE",
"193 6 OFFCURVE",
"117 6 CURVE SMOOTH",
"72 6 OFFCURVE",
"60 57 OFFCURVE",
"60 90 CURVE SMOOTH",
"60 115 OFFCURVE",
"72 158 OFFCURVE",
"89 190 CURVE",
"26 190 OFFCURVE",
"17 119 OFFCURVE",
"17 88 CURVE SMOOTH"
);
},
{
closed = 1;
nodes = (
"361 610 OFFCURVE",
"438 654 OFFCURVE",
"473 666 CURVE",
"481 654 OFFCURVE",
"517 603 OFFCURVE",
"572 603 CURVE",
"551 622 OFFCURVE",
"504 711 OFFCURVE",
"492 717 CURVE",
"446 689 OFFCURVE",
"329 637 OFFCURVE",
"329 585 CURVE"
);
}
);
width = 364;
}
);
note = Jcircumflex;
unicode = 0134;
},
{
color = 0;
glyphname = K;
lastChange = "2021-06-22 21:41:55 +0000";
layers = (
{
hints = (
{
place = "{15, 10}";
type = Stem;
},
{
place = "{174, 20}";
type = Stem;
},
{
place = "{403, 79}";
type = Stem;
}
);
layerId = "1C8B4FDB-B0E8-4411-8E26-068C67144FEF";
paths = (
{
closed = 1;
nodes = (
"291 -9 OFFCURVE",
"298 6 OFFCURVE",
"298 30 CURVE SMOOTH",
"298 93 OFFCURVE",
"219 162 OFFCURVE",
"184 207 CURVE",
"238 246 OFFCURVE",
"440 378 OFFCURVE",
"517 483 CURVE SMOOTH",
"537 511 OFFCURVE",
"562 561 OFFCURVE",
"536 561 CURVE",
"508 533 OFFCURVE",
"269 291 OFFCURVE",
"184 240 CURVE",
"219 294 OFFCURVE",
"308 445 OFFCURVE",
"310 485 CURVE SMOOTH",
"310 503 OFFCURVE",
"315 545 OFFCURVE",
"281 545 CURVE",
"257 444 OFFCURVE",
"164 307 OFFCURVE",
"89 184 CURVE SMOOTH",
"67 147 OFFCURVE",
"25 98 OFFCURVE",
"25 53 CURVE SMOOTH",
"25 12 OFFCURVE",
"35 -1 OFFCURVE",
"55 -12 CURVE",
"59 7 OFFCURVE",
"78 51 OFFCURVE",
"103 99 CURVE SMOOTH",
"116 124 OFFCURVE",
"129 150 OFFCURVE",
"144 174 CURVE",
"175 150 OFFCURVE",
"244 63 OFFCURVE",
"278 -9 CURVE"
);
}
);
width = 291;
}
);
note = K;
unicode = 004B;
},
{
color = 0;
glyphname = Kcommaaccent;
lastChange = "2021-05-17 19:56:03 +0000";
layers = (
{
hints = (
{
place = "{15, 10}";
type = Stem;
},
{
place = "{174, 20}";
type = Stem;
},
{
place = "{403, 79}";
type = Stem;
},
{
place = "{145, 40}";
type = Stem;
}
);
layerId = "1C8B4FDB-B0E8-4411-8E26-068C67144FEF";
paths = (
{
closed = 1;
nodes = (
"284 -9 OFFCURVE",
"291 6 OFFCURVE",
"291 30 CURVE SMOOTH",
"291 93 OFFCURVE",
"212 162 OFFCURVE",
"177 207 CURVE",
"231 246 OFFCURVE",
"433 378 OFFCURVE",
"510 483 CURVE SMOOTH",
"530 511 OFFCURVE",
"555 561 OFFCURVE",
"529 561 CURVE",
"501 533 OFFCURVE",
"262 291 OFFCURVE",
"177 240 CURVE",
"212 294 OFFCURVE",
"301 445 OFFCURVE",
"303 485 CURVE SMOOTH",
"303 503 OFFCURVE",
"308 545 OFFCURVE",
"274 545 CURVE",
"250 444 OFFCURVE",
"157 307 OFFCURVE",
"82 184 CURVE SMOOTH",
"60 147 OFFCURVE",
"18 98 OFFCURVE",
"18 53 CURVE SMOOTH",
"18 12 OFFCURVE",
"28 -1 OFFCURVE",
"48 -12 CURVE",
"52 7 OFFCURVE",
"71 51 OFFCURVE",
"96 99 CURVE SMOOTH",
"109 124 OFFCURVE",
"122 150 OFFCURVE",
"137 174 CURVE",
"168 150 OFFCURVE",
"237 63 OFFCURVE",
"271 -9 CURVE"
);
},
{
closed = 1;
nodes = (
"96 -101 OFFCURVE",
"74 -132 OFFCURVE",
"49 -157 CURVE SMOOTH",
"16 -195 LINE SMOOTH",
"14 -197 OFFCURVE",
"14 -204 OFFCURVE",
"25 -199 CURVE SMOOTH",
"28 -197 OFFCURVE",
"31 -188 OFFCURVE",
"37 -185 CURVE SMOOTH",
"76 -164 OFFCURVE",
"128 -140 OFFCURVE",
"141 -100 CURVE SMOOTH",
"150 -75 OFFCURVE",
"144 -53 OFFCURVE",
"128 -41 CURVE SMOOTH",
"117 -34 OFFCURVE",
"100 -29 OFFCURVE",
"109 -41 CURVE SMOOTH",
"113 -48 OFFCURVE",
"111 -61 OFFCURVE",
"109 -70 CURVE"
);
}
);
width = 304;
}
);
note = uni0136;
unicode = 0136;
},
{
color = 0;
glyphname = L;
lastChange = "2021-05-17 19:56:03 +0000";
layers = (
{
hints = (
{
place = "{-14, 17}";
type = Stem;
},
{
place = "{151, 37}";
type = Stem;
},
{
place = "{755, 21}";
type = Stem;
}
);
layerId = "1C8B4FDB-B0E8-4411-8E26-068C67144FEF";
paths = (
{
closed = 1;
nodes = (
"79 215 OFFCURVE",
"34 131 OFFCURVE",
"34 65 CURVE SMOOTH",
"34 41 OFFCURVE",
"54 3 OFFCURVE",
"113 3 CURVE SMOOTH",
"149 3 OFFCURVE",
"281 38 OFFCURVE",
"324 31 CURVE",
"323 63 OFFCURVE",
"291 65 OFFCURVE",
"255 65 CURVE SMOOTH",
"207 65 OFFCURVE",
"161 49 OFFCURVE",
"116 49 CURVE SMOOTH",
"100 49 OFFCURVE",
"89 57 OFFCURVE",
"89 74 CURVE SMOOTH",
"89 113 OFFCURVE",
"130 182 OFFCURVE",
"147 214 CURVE SMOOTH",
"178 271 OFFCURVE",
"219 336 OFFCURVE",
"248 393 CURVE SMOOTH",
"268 433 OFFCURVE",
"283 469 OFFCURVE",
"284 491 CURVE SMOOTH",
"285 513 OFFCURVE",
"269 556 OFFCURVE",
"241 545 CURVE",
"241 487 OFFCURVE",
"178 374 OFFCURVE",
"128 294 CURVE SMOOTH"
);
}
);
width = 338;
}
);
note = L;
unicode = 004C;
},
{
color = 0;
glyphname = Lacute;
lastChange = "2021-05-17 19:56:03 +0000";
layers = (
{
hints = (
{
place = "{-14, 17}";
type = Stem;
},
{
place = "{151, 37}";
type = Stem;
},
{
place = "{755, 21}";
type = Stem;
},
{
horizontal = 1;
place = "{615, 118}";
type = Stem;
},
{
place = "{224, 157}";
type = Stem;
}
);
layerId = "1C8B4FDB-B0E8-4411-8E26-068C67144FEF";
paths = (
{
closed = 1;
nodes = (
"79 215 OFFCURVE",
"34 131 OFFCURVE",
"34 65 CURVE SMOOTH",
"34 41 OFFCURVE",
"54 3 OFFCURVE",
"113 3 CURVE SMOOTH",
"149 3 OFFCURVE",
"281 38 OFFCURVE",
"324 31 CURVE",
"323 63 OFFCURVE",
"291 65 OFFCURVE",
"255 65 CURVE SMOOTH",
"207 65 OFFCURVE",
"161 49 OFFCURVE",
"116 49 CURVE SMOOTH",
"100 49 OFFCURVE",
"89 57 OFFCURVE",
"89 74 CURVE SMOOTH",
"89 113 OFFCURVE",
"130 182 OFFCURVE",
"147 214 CURVE SMOOTH",
"178 271 OFFCURVE",
"219 336 OFFCURVE",
"248 393 CURVE SMOOTH",
"268 433 OFFCURVE",
"283 469 OFFCURVE",
"284 491 CURVE SMOOTH",
"285 513 OFFCURVE",
"269 556 OFFCURVE",
"241 545 CURVE",
"241 487 OFFCURVE",
"178 374 OFFCURVE",
"128 294 CURVE SMOOTH"
);
},
{
closed = 1;
nodes = (
"390 696 OFFCURVE",
"378 705 OFFCURVE",
"370 706 CURVE SMOOTH",
"366 707 OFFCURVE",
"361 707 OFFCURVE",
"358 704 CURVE",
"343 698 OFFCURVE",
"248 635 OFFCURVE",
"230 630 CURVE SMOOTH",
"220 628 OFFCURVE",
"218 625 OFFCURVE",
"218 624 CURVE SMOOTH",
"218 622 OFFCURVE",
"221 620 OFFCURVE",
"225 619 CURVE SMOOTH",
"231 618 OFFCURVE",
"242 618 OFFCURVE",
"255 621 CURVE",
"293 624 OFFCURVE",
"406 675 OFFCURVE",
"404 687 CURVE SMOOTH",
"404 688 OFFCURVE",
"402 689 OFFCURVE",
"401 690 CURVE"
);
}
);
width = 338;
}
);
note = Lacute;
unicode = 0139;
},
{
color = 0;
glyphname = Lcaron;
lastChange = "2021-05-17 19:56:03 +0000";
layers = (
{
hints = (
{
place = "{-14, 17}";
type = Stem;
},
{
place = "{151, 37}";
type = Stem;
},
{
place = "{755, 21}";
type = Stem;
},
{
place = "{442, 39}";
type = Stem;
}
);
layerId = "1C8B4FDB-B0E8-4411-8E26-068C67144FEF";
paths = (
{
closed = 1;
nodes = (
"79 215 OFFCURVE",
"34 131 OFFCURVE",
"34 65 CURVE SMOOTH",
"34 41 OFFCURVE",
"54 3 OFFCURVE",
"113 3 CURVE SMOOTH",
"149 3 OFFCURVE",
"281 38 OFFCURVE",
"324 31 CURVE",
"323 63 OFFCURVE",
"291 65 OFFCURVE",
"255 65 CURVE SMOOTH",
"207 65 OFFCURVE",
"161 49 OFFCURVE",
"116 49 CURVE SMOOTH",
"100 49 OFFCURVE",
"89 57 OFFCURVE",
"89 74 CURVE SMOOTH",
"89 113 OFFCURVE",
"130 182 OFFCURVE",
"147 214 CURVE SMOOTH",
"178 271 OFFCURVE",
"219 336 OFFCURVE",
"248 393 CURVE SMOOTH",
"268 433 OFFCURVE",
"283 469 OFFCURVE",
"284 491 CURVE SMOOTH",
"285 513 OFFCURVE",
"269 556 OFFCURVE",
"241 545 CURVE",
"241 487 OFFCURVE",
"178 374 OFFCURVE",
"128 294 CURVE SMOOTH"
);
},
{
closed = 1;
nodes = (
"405 554 OFFCURVE",
"406 538 OFFCURVE",
"403 529 CURVE SMOOTH",
"390 493 OFFCURVE",
"324 389 OFFCURVE",
"312 376 CURVE SMOOTH",
"304 367 OFFCURVE",
"312 368 OFFCURVE",
"314 369 CURVE SMOOTH",
"364 390 OFFCURVE",
"427 452 OFFCURVE",
"441 504 CURVE SMOOTH",
"451 540 OFFCURVE",
"437 561 OFFCURVE",
"403 558 CURVE"
);
}
);
width = 338;
}
);
note = Lcaron;
unicode = 013D;
},
{
color = 0;
glyphname = Lcommaaccent;
lastChange = "2021-05-17 19:56:03 +0000";
layers = (
{
hints = (
{
place = "{-14, 17}";
type = Stem;
},
{
place = "{151, 37}";
type = Stem;
},
{
place = "{755, 21}";
type = Stem;
},
{
place = "{145, 40}";
type = Stem;
}
);
layerId = "1C8B4FDB-B0E8-4411-8E26-068C67144FEF";
paths = (
{
closed = 1;
nodes = (
"79 215 OFFCURVE",
"34 131 OFFCURVE",
"34 65 CURVE SMOOTH",
"34 41 OFFCURVE",
"54 3 OFFCURVE",
"113 3 CURVE SMOOTH",
"149 3 OFFCURVE",
"281 38 OFFCURVE",
"324 31 CURVE",
"323 63 OFFCURVE",
"291 65 OFFCURVE",
"255 65 CURVE SMOOTH",
"207 65 OFFCURVE",
"161 49 OFFCURVE",
"116 49 CURVE SMOOTH",
"100 49 OFFCURVE",
"89 57 OFFCURVE",
"89 74 CURVE SMOOTH",
"89 113 OFFCURVE",
"130 182 OFFCURVE",
"147 214 CURVE SMOOTH",
"178 271 OFFCURVE",
"219 336 OFFCURVE",
"248 393 CURVE SMOOTH",
"268 433 OFFCURVE",
"283 469 OFFCURVE",
"284 491 CURVE SMOOTH",
"285 513 OFFCURVE",
"269 556 OFFCURVE",
"241 545 CURVE",
"241 487 OFFCURVE",
"178 374 OFFCURVE",
"128 294 CURVE SMOOTH"
);
},
{
closed = 1;
nodes = (
"96 -101 OFFCURVE",
"74 -132 OFFCURVE",
"49 -157 CURVE SMOOTH",
"16 -195 LINE SMOOTH",
"14 -197 OFFCURVE",
"14 -204 OFFCURVE",
"25 -199 CURVE SMOOTH",
"28 -197 OFFCURVE",
"31 -188 OFFCURVE",
"37 -185 CURVE SMOOTH",
"76 -164 OFFCURVE",
"128 -140 OFFCURVE",
"141 -100 CURVE SMOOTH",
"150 -75 OFFCURVE",
"144 -53 OFFCURVE",
"128 -41 CURVE SMOOTH",
"117 -34 OFFCURVE",
"100 -29 OFFCURVE",
"109 -41 CURVE SMOOTH",
"113 -48 OFFCURVE",
"111 -61 OFFCURVE",
"109 -70 CURVE"
);
}
);
width = 338;
}
);
note = uni013B;
unicode = 013B;
},
{
color = 0;
glyphname = Ldot;
lastChange = "2021-05-17 19:56:03 +0000";
layers = (
{
hints = (
{
place = "{-14, 17}";
type = Stem;
},
{
place = "{151, 37}";
type = Stem;
},
{
place = "{755, 21}";
type = Stem;
},
{
place = "{207, 75}";
type = Stem;
}
);
layerId = "1C8B4FDB-B0E8-4411-8E26-068C67144FEF";
paths = (
{
closed = 1;
nodes = (
"79 215 OFFCURVE",
"34 131 OFFCURVE",
"34 65 CURVE SMOOTH",
"34 41 OFFCURVE",
"54 3 OFFCURVE",
"113 3 CURVE SMOOTH",
"149 3 OFFCURVE",
"281 38 OFFCURVE",
"324 31 CURVE",
"323 63 OFFCURVE",
"291 65 OFFCURVE",
"255 65 CURVE SMOOTH",
"207 65 OFFCURVE",
"161 49 OFFCURVE",
"116 49 CURVE SMOOTH",
"100 49 OFFCURVE",
"89 57 OFFCURVE",
"89 74 CURVE SMOOTH",
"89 113 OFFCURVE",
"130 182 OFFCURVE",
"147 214 CURVE SMOOTH",
"178 271 OFFCURVE",
"219 336 OFFCURVE",
"248 393 CURVE SMOOTH",
"268 433 OFFCURVE",
"283 469 OFFCURVE",
"284 491 CURVE SMOOTH",
"285 513 OFFCURVE",
"269 556 OFFCURVE",
"241 545 CURVE",
"241 487 OFFCURVE",
"178 374 OFFCURVE",
"128 294 CURVE SMOOTH"
);
},
{
closed = 1;
nodes = (
"351 328 OFFCURVE",
"348 332 OFFCURVE",
"344 329 CURVE SMOOTH",
"334 323 OFFCURVE",
"327 321 OFFCURVE",
"317 316 CURVE SMOOTH",
"305 311 OFFCURVE",
"294 303 OFFCURVE",
"285 295 CURVE SMOOTH",
"279 290 OFFCURVE",
"271 278 OFFCURVE",
"277 267 CURVE SMOOTH",
"282 257 OFFCURVE",
"288 250 OFFCURVE",
"300 248 CURVE SMOOTH",
"338 242 OFFCURVE",
"336 305 OFFCURVE",
"350 324 CURVE"
);
}
);
width = 338;
}
);
note = Ldot;
unicode = 013F;
},
{
color = 0;
glyphname = Lslash;
lastChange = "2021-05-17 19:56:03 +0000";
layers = (
{
hints = (
{
place = "{-14, 17}";
type = Stem;
},
{
place = "{12, 256}";
type = Stem;
},
{
place = "{151, 37}";
type = Stem;
},
{
place = "{755, 21}";
type = Stem;
}
);
layerId = "1C8B4FDB-B0E8-4411-8E26-068C67144FEF";
paths = (
{
closed = 1;
nodes = (
"237 230 OFFCURVE",
"234 252 OFFCURVE",
"201 247 CURVE SMOOTH",
"193 246 OFFCURVE",
"177 241 OFFCURVE",
"158 235 CURVE",
"186 284 OFFCURVE",
"216 332 OFFCURVE",
"241 382 CURVE SMOOTH",
"261 422 OFFCURVE",
"276 459 OFFCURVE",
"277 481 CURVE SMOOTH",
"278 503 OFFCURVE",
"262 546 OFFCURVE",
"235 535 CURVE",
"234 477 OFFCURVE",
"178 374 OFFCURVE",
"128 294 CURVE SMOOTH",
"110 266 OFFCURVE",
"93 237 OFFCURVE",
"79 208 CURVE",
"44 197 OFFCURVE",
"11 188 OFFCURVE",
"-4 187 CURVE",
"-1 168 OFFCURVE",
"4 149 OFFCURVE",
"31 156 CURVE SMOOTH",
"58 164 LINE",
"43 128 OFFCURVE",
"34 95 OFFCURVE",
"34 65 CURVE SMOOTH",
"34 41 OFFCURVE",
"54 3 OFFCURVE",
"113 3 CURVE SMOOTH",
"149 3 OFFCURVE",
"281 38 OFFCURVE",
"324 31 CURVE",
"323 63 OFFCURVE",
"291 65 OFFCURVE",
"255 65 CURVE SMOOTH",
"207 65 OFFCURVE",
"161 49 OFFCURVE",
"116 49 CURVE SMOOTH",
"100 49 OFFCURVE",
"89 57 OFFCURVE",
"89 74 CURVE SMOOTH",
"89 105 OFFCURVE",
"116 156 OFFCURVE",
"134 191 CURVE",
"146 195 OFFCURVE",
"155 200 OFFCURVE",
"159 201 CURVE SMOOTH",
"210 221 OFFCURVE",
"235 218 OFFCURVE",
"241 212 CURVE"
);
}
);
width = 338;
}
);
note = Lslash;
unicode = 0141;
},
{
color = 0;
glyphname = M;
lastChange = "2021-05-17 19:56:03 +0000";
layers = (
{
hints = (
{
place = "{-7, 38}";
type = Stem;
},
{
place = "{180, 34}";
type = Stem;
},
{
place = "{691, 48}";
type = Stem;
}
);
layerId = "1C8B4FDB-B0E8-4411-8E26-068C67144FEF";
paths = (
{
closed = 1;
nodes = (
"269 377 OFFCURVE",
"238 237 OFFCURVE",
"224 152 CURVE SMOOTH",
"217 104 OFFCURVE",
"206 15 OFFCURVE",
"261 15 CURVE",
"261 32 OFFCURVE",
"264 54 OFFCURVE",
"278 82 CURVE SMOOTH",
"303 130 OFFCURVE",
"355 195 OFFCURVE",
"413 274 CURVE SMOOTH",
"432 299 OFFCURVE",
"560 474 OFFCURVE",
"560 474 CURVE",
"560 398 OFFCURVE",
"382 172 OFFCURVE",
"382 65 CURVE SMOOTH",
"382 33 OFFCURVE",
"394 6 OFFCURVE",
"422 -9 CURVE",
"423 3 OFFCURVE",
"424 25 OFFCURVE",
"433 53 CURVE SMOOTH",
"449 99 OFFCURVE",
"466 141 OFFCURVE",
"482 181 CURVE SMOOTH",
"519 272 OFFCURVE",
"567 360 OFFCURVE",
"609 445 CURVE SMOOTH",
"634 493 OFFCURVE",
"634 501 OFFCURVE",
"634 507 CURVE SMOOTH",
"634 533 OFFCURVE",
"602 547 OFFCURVE",
"578 547 CURVE",
"566 525 OFFCURVE",
"359 246 OFFCURVE",
"265 122 CURVE",
"272 157 OFFCURVE",
"280 210 OFFCURVE",
"290 265 CURVE SMOOTH",
"304 349 OFFCURVE",
"337 446 OFFCURVE",
"331 494 CURVE SMOOTH",
"328 520 OFFCURVE",
"288 553 OFFCURVE",
"264 545 CURVE",
"241 444 OFFCURVE",
"148 307 OFFCURVE",
"73 184 CURVE SMOOTH",
"51 147 OFFCURVE",
"8 95 OFFCURVE",
"8 53 CURVE SMOOTH",
"8 14 OFFCURVE",
"19 -1 OFFCURVE",
"39 -12 CURVE",
"42 7 OFFCURVE",
"61 51 OFFCURVE",
"87 99 CURVE SMOOTH",
"111 146 OFFCURVE",
"140 197 OFFCURVE",
"165 235 CURVE SMOOTH",
"189 273 OFFCURVE",
"258 384 OFFCURVE",
"282 453 CURVE"
);
}
);
width = 542;
}
);
note = M;
unicode = 004D;
},
{
color = 0;
glyphname = N;
lastChange = "2021-05-17 19:56:03 +0000";
layers = (
{
hints = (
{
place = "{3, 28}";
type = Stem;
},
{
place = "{48, 10}";
type = Stem;
},
{
place = "{148, 56}";
type = Stem;
},
{
place = "{246, 57}";
type = Stem;
},
{
place = "{476, 21}";
type = Stem;
},
{
place = "{534, 42}";
type = Stem;
},
{
place = "{572, 34}";
type = Stem;
},
{
place = "{725, 9}";
type = Stem;
},
{
place = "{882, 61}";
type = Stem;
}
);
layerId = "1C8B4FDB-B0E8-4411-8E26-068C67144FEF";
paths = (
{
closed = 1;
nodes = (
"256 150 OFFCURVE",
"273 208 OFFCURVE",
"282 265 CURVE SMOOTH",
"297 349 OFFCURVE",
"322 436 OFFCURVE",
"317 484 CURVE",
"310 509 OFFCURVE",
"275 545 OFFCURVE",
"250 535 CURVE",
"226 433 OFFCURVE",
"140 307 OFFCURVE",
"65 184 CURVE SMOOTH",
"31 127 OFFCURVE",
"-29 20 OFFCURVE",
"31 -12 CURVE",
"37 25 OFFCURVE",
"108 158 OFFCURVE",
"157 235 CURVE SMOOTH",
"180 272 OFFCURVE",
"262 416 OFFCURVE",
"268 443 CURVE",
"255 367 OFFCURVE",
"230 237 OFFCURVE",
"217 152 CURVE SMOOTH",
"201 56 OFFCURVE",
"221 -7 OFFCURVE",
"268 -10 CURVE",
"268 -11 OFFCURVE",
"269 -11 OFFCURVE",
"269 -12 CURVE SMOOTH",
"293 89 OFFCURVE",
"382 222 OFFCURVE",
"457 345 CURVE SMOOTH",
"479 382 OFFCURVE",
"522 433 OFFCURVE",
"522 476 CURVE SMOOTH",
"522 515 OFFCURVE",
"512 530 OFFCURVE",
"491 541 CURVE",
"488 522 OFFCURVE",
"469 478 OFFCURVE",
"444 429 CURVE SMOOTH",
"419 382 OFFCURVE",
"390 331 OFFCURVE",
"365 293 CURVE SMOOTH",
"342 256 OFFCURVE",
"278 156 OFFCURVE",
"254 87 CURVE"
);
}
);
width = 430;
}
);
note = N;
unicode = 004E;
},
{
color = 0;
glyphname = Nacute;
lastChange = "2021-05-17 19:56:03 +0000";
layers = (
{
hints = (
{
horizontal = 1;
place = "{599, 118}";
type = Stem;
},
{
place = "{3, 28}";
type = Stem;
},
{
place = "{48, 10}";
type = Stem;
},
{
place = "{148, 56}";
type = Stem;
},
{
place = "{246, 57}";
type = Stem;
},
{
place = "{370, 157}";
type = Stem;
},
{
place = "{476, 21}";
type = Stem;
},
{
place = "{534, 42}";
type = Stem;
},
{
place = "{572, 34}";
type = Stem;
},
{
place = "{725, 9}";
type = Stem;
},
{
place = "{882, 61}";
type = Stem;
}
);
layerId = "1C8B4FDB-B0E8-4411-8E26-068C67144FEF";
paths = (
{
closed = 1;
nodes = (
"256 150 OFFCURVE",
"273 208 OFFCURVE",
"282 265 CURVE SMOOTH",
"297 349 OFFCURVE",
"322 436 OFFCURVE",
"317 484 CURVE",
"310 509 OFFCURVE",
"275 545 OFFCURVE",
"250 535 CURVE",
"226 433 OFFCURVE",
"140 307 OFFCURVE",
"65 184 CURVE SMOOTH",
"31 127 OFFCURVE",
"-29 20 OFFCURVE",
"31 -12 CURVE",
"37 25 OFFCURVE",
"108 158 OFFCURVE",
"157 235 CURVE SMOOTH",
"180 272 OFFCURVE",
"262 416 OFFCURVE",
"268 443 CURVE",
"255 367 OFFCURVE",
"230 237 OFFCURVE",
"217 152 CURVE SMOOTH",
"201 56 OFFCURVE",
"221 -7 OFFCURVE",
"268 -10 CURVE",
"268 -11 OFFCURVE",
"269 -11 OFFCURVE",
"269 -12 CURVE SMOOTH",
"293 89 OFFCURVE",
"382 222 OFFCURVE",
"457 345 CURVE SMOOTH",
"479 382 OFFCURVE",
"522 433 OFFCURVE",
"522 476 CURVE SMOOTH",
"522 515 OFFCURVE",
"512 530 OFFCURVE",
"491 541 CURVE",
"488 522 OFFCURVE",
"469 478 OFFCURVE",
"444 429 CURVE SMOOTH",
"419 382 OFFCURVE",
"390 331 OFFCURVE",
"365 293 CURVE SMOOTH",
"342 256 OFFCURVE",
"278 156 OFFCURVE",
"254 87 CURVE"
);
},
{
closed = 1;
nodes = (
"536 680 OFFCURVE",
"524 689 OFFCURVE",
"516 690 CURVE SMOOTH",
"512 691 OFFCURVE",
"507 691 OFFCURVE",
"504 688 CURVE",
"489 682 OFFCURVE",
"394 619 OFFCURVE",
"376 614 CURVE SMOOTH",
"366 612 OFFCURVE",
"364 609 OFFCURVE",
"364 608 CURVE SMOOTH",
"364 606 OFFCURVE",
"367 604 OFFCURVE",
"371 603 CURVE SMOOTH",
"377 602 OFFCURVE",
"388 602 OFFCURVE",
"401 605 CURVE",
"439 608 OFFCURVE",
"552 659 OFFCURVE",
"550 671 CURVE SMOOTH",
"550 672 OFFCURVE",
"548 673 OFFCURVE",
"547 674 CURVE"
);
}
);
width = 430;
}
);
note = Nacute;
unicode = 0143;
},
{
color = 0;
glyphname = Ncaron;
lastChange = "2021-05-17 19:56:03 +0000";
layers = (
{
hints = (
{
horizontal = 1;
place = "{503, 108}";
type = Stem;
},
{
place = "{3, 28}";
type = Stem;
},
{
place = "{48, 10}";
type = Stem;
},
{
place = "{148, 56}";
type = Stem;
},
{
place = "{246, 57}";
type = Stem;
},
{
place = "{307, 231}";
type = Stem;
},
{
place = "{476, 21}";
type = Stem;
},
{
place = "{534, 42}";
type = Stem;
},
{
place = "{572, 34}";
type = Stem;
},
{
place = "{725, 9}";
type = Stem;
},
{
place = "{882, 61}";
type = Stem;
}
);
layerId = "1C8B4FDB-B0E8-4411-8E26-068C67144FEF";
paths = (
{
closed = 1;
nodes = (
"256 150 OFFCURVE",
"273 208 OFFCURVE",
"282 265 CURVE SMOOTH",
"297 349 OFFCURVE",
"322 436 OFFCURVE",
"317 484 CURVE",
"310 509 OFFCURVE",
"275 545 OFFCURVE",
"250 535 CURVE",
"226 433 OFFCURVE",
"140 307 OFFCURVE",
"65 184 CURVE SMOOTH",
"31 127 OFFCURVE",
"-29 20 OFFCURVE",
"31 -12 CURVE",
"37 25 OFFCURVE",
"108 158 OFFCURVE",
"157 235 CURVE SMOOTH",
"180 272 OFFCURVE",
"262 416 OFFCURVE",
"268 443 CURVE",
"255 367 OFFCURVE",
"230 237 OFFCURVE",
"217 152 CURVE SMOOTH",
"201 56 OFFCURVE",
"221 -7 OFFCURVE",
"268 -10 CURVE",
"268 -11 OFFCURVE",
"269 -11 OFFCURVE",
"269 -12 CURVE SMOOTH",
"293 89 OFFCURVE",
"382 222 OFFCURVE",
"457 345 CURVE SMOOTH",
"479 382 OFFCURVE",
"522 433 OFFCURVE",
"522 476 CURVE SMOOTH",
"522 515 OFFCURVE",
"512 530 OFFCURVE",
"491 541 CURVE",
"488 522 OFFCURVE",
"469 478 OFFCURVE",
"444 429 CURVE SMOOTH",
"419 382 OFFCURVE",
"390 331 OFFCURVE",
"365 293 CURVE SMOOTH",
"342 256 OFFCURVE",
"278 156 OFFCURVE",
"254 87 CURVE"
);
},
{
closed = 1;
nodes = (
"539 705 OFFCURVE",
"462 662 OFFCURVE",
"427 649 CURVE",
"419 662 OFFCURVE",
"383 713 OFFCURVE",
"328 713 CURVE",
"349 693 OFFCURVE",
"396 605 OFFCURVE",
"408 598 CURVE",
"454 626 OFFCURVE",
"571 679 OFFCURVE",
"571 730 CURVE"
);
}
);
width = 430;
}
);
note = Ncaron;
unicode = 0147;
},
{
color = 0;
glyphname = Ncommaaccent;
lastChange = "2021-05-17 19:56:03 +0000";
layers = (
{
hints = (
{
place = "{3, 28}";
type = Stem;
},
{
place = "{48, 10}";
type = Stem;
},
{
place = "{145, 40}";
type = Stem;
},
{
place = "{148, 56}";
type = Stem;
},
{
place = "{246, 57}";
type = Stem;
},
{
place = "{476, 21}";
type = Stem;
},
{
place = "{534, 42}";
type = Stem;
},
{
place = "{572, 34}";
type = Stem;
},
{
place = "{725, 9}";
type = Stem;
},
{
place = "{882, 61}";
type = Stem;
}
);
layerId = "1C8B4FDB-B0E8-4411-8E26-068C67144FEF";
paths = (
{
closed = 1;
nodes = (
"256 150 OFFCURVE",
"273 208 OFFCURVE",
"282 265 CURVE SMOOTH",
"297 349 OFFCURVE",
"322 436 OFFCURVE",
"317 484 CURVE",
"310 509 OFFCURVE",
"275 545 OFFCURVE",
"250 535 CURVE",
"226 433 OFFCURVE",
"140 307 OFFCURVE",
"65 184 CURVE SMOOTH",
"31 127 OFFCURVE",
"-29 20 OFFCURVE",
"31 -12 CURVE",
"37 25 OFFCURVE",
"108 158 OFFCURVE",
"157 235 CURVE SMOOTH",
"180 272 OFFCURVE",
"262 416 OFFCURVE",
"268 443 CURVE",
"255 367 OFFCURVE",
"230 237 OFFCURVE",
"217 152 CURVE SMOOTH",
"201 56 OFFCURVE",
"221 -7 OFFCURVE",
"268 -10 CURVE",
"268 -11 OFFCURVE",
"269 -11 OFFCURVE",
"269 -12 CURVE SMOOTH",
"293 89 OFFCURVE",
"382 222 OFFCURVE",
"457 345 CURVE SMOOTH",
"479 382 OFFCURVE",
"522 433 OFFCURVE",
"522 476 CURVE SMOOTH",
"522 515 OFFCURVE",
"512 530 OFFCURVE",
"491 541 CURVE",
"488 522 OFFCURVE",
"469 478 OFFCURVE",
"444 429 CURVE SMOOTH",
"419 382 OFFCURVE",
"390 331 OFFCURVE",
"365 293 CURVE SMOOTH",
"342 256 OFFCURVE",
"278 156 OFFCURVE",
"254 87 CURVE"
);
},
{
closed = 1;
nodes = (
"96 -101 OFFCURVE",
"74 -132 OFFCURVE",
"49 -157 CURVE SMOOTH",
"16 -195 LINE SMOOTH",
"14 -197 OFFCURVE",
"14 -204 OFFCURVE",
"25 -199 CURVE SMOOTH",
"28 -197 OFFCURVE",
"31 -188 OFFCURVE",
"37 -185 CURVE SMOOTH",
"76 -164 OFFCURVE",
"128 -140 OFFCURVE",
"141 -100 CURVE SMOOTH",
"150 -75 OFFCURVE",
"144 -53 OFFCURVE",
"128 -41 CURVE SMOOTH",
"117 -34 OFFCURVE",
"100 -29 OFFCURVE",
"109 -41 CURVE SMOOTH",
"113 -48 OFFCURVE",
"111 -61 OFFCURVE",
"109 -70 CURVE"
);
}
);
width = 430;
}
);
note = uni0145;
unicode = 0145;
},
{
color = 0;
glyphname = Eng;
lastChange = "2021-05-17 19:56:03 +0000";
layers = (
{
hints = (
{
place = "{3, 28}";
type = Stem;
},
{
place = "{48, 10}";
type = Stem;
},
{
place = "{148, 56}";
type = Stem;
},
{
place = "{246, 57}";
type = Stem;
},
{
place = "{476, 21}";
type = Stem;
},
{
place = "{534, 42}";
type = Stem;
},
{
place = "{572, 34}";
type = Stem;
},
{
place = "{725, 9}";
type = Stem;
},
{
place = "{882, 61}";
type = Stem;
},
{
place = "{-50, 25}";
type = Stem;
},
{
place = "{541, 41}";
type = Stem;
}
);
layerId = "1C8B4FDB-B0E8-4411-8E26-068C67144FEF";
paths = (
{
closed = 1;
nodes = (
"488 522 OFFCURVE",
"469 478 OFFCURVE",
"444 429 CURVE SMOOTH",
"322 199 OFFCURVE",
"268 122 OFFCURVE",
"254 50 CURVE",
"256 113 OFFCURVE",
"273 208 OFFCURVE",
"282 265 CURVE SMOOTH",
"297 349 OFFCURVE",
"322 436 OFFCURVE",
"317 484 CURVE",
"310 509 OFFCURVE",
"275 545 OFFCURVE",
"250 535 CURVE",
"226 433 OFFCURVE",
"140 307 OFFCURVE",
"65 184 CURVE SMOOTH",
"31 127 OFFCURVE",
"-29 20 OFFCURVE",
"31 -12 CURVE",
"37 25 OFFCURVE",
"108 158 OFFCURVE",
"157 235 CURVE SMOOTH",
"180 272 OFFCURVE",
"262 416 OFFCURVE",
"268 443 CURVE",
"255 367 OFFCURVE",
"230 237 OFFCURVE",
"217 152 CURVE SMOOTH",
"207 89 OFFCURVE",
"203 35 OFFCURVE",
"215 4 CURVE",
"170 -86 LINE",
"128 -160 OFFCURVE",
"89 -217 OFFCURVE",
"46 -212 CURVE SMOOTH",
"21 -209 OFFCURVE",
"17 -178 OFFCURVE",
"20 -160 CURVE SMOOTH",
"22 -146 OFFCURVE",
"32 -122 OFFCURVE",
"43 -104 CURVE",
"8 -100 OFFCURVE",
"-7 -140 OFFCURVE",
"-9 -158 CURVE SMOOTH",
"-13 -194 OFFCURVE",
"15 -230 OFFCURVE",
"41 -230 CURVE SMOOTH",
"150 -230 OFFCURVE",
"210 -112 OFFCURVE",
"247 -51 CURVE SMOOTH",
"338 101 OFFCURVE",
"421 272 OFFCURVE",
"457 331 CURVE SMOOTH",
"479 368 OFFCURVE",
"522 433 OFFCURVE",
"522 476 CURVE SMOOTH",
"522 515 OFFCURVE",
"512 530 OFFCURVE",
"491 541 CURVE"
);
}
);
width = 430;
}
);
unicode = 014A;
},
{
color = 0;
glyphname = Ntilde;
lastChange = "2021-05-17 19:56:03 +0000";
layers = (
{
hints = (
{
horizontal = 1;
place = "{562, 28}";
type = Stem;
},
{
horizontal = 1;
place = "{585, 23}";
type = Stem;
},
{
place = "{3, 28}";
type = Stem;
},
{
place = "{48, 10}";
type = Stem;
},
{
place = "{148, 56}";
type = Stem;
},
{
place = "{246, 57}";
type = Stem;
},
{
place = "{280, 188}";
type = Stem;
},
{
place = "{476, 21}";
type = Stem;
},
{
place = "{534, 42}";
type = Stem;
},
{
place = "{572, 34}";
type = Stem;
},
{
place = "{725, 9}";
type = Stem;
},
{
place = "{882, 61}";
type = Stem;
}
);
layerId = "1C8B4FDB-B0E8-4411-8E26-068C67144FEF";
paths = (
{
closed = 1;
nodes = (
"256 150 OFFCURVE",
"273 208 OFFCURVE",
"282 265 CURVE SMOOTH",
"297 349 OFFCURVE",
"322 436 OFFCURVE",
"317 484 CURVE",
"310 509 OFFCURVE",
"275 545 OFFCURVE",
"250 535 CURVE",
"226 433 OFFCURVE",
"140 307 OFFCURVE",
"65 184 CURVE SMOOTH",
"31 127 OFFCURVE",
"-29 20 OFFCURVE",
"31 -12 CURVE",
"37 25 OFFCURVE",
"108 158 OFFCURVE",
"157 235 CURVE SMOOTH",
"180 272 OFFCURVE",
"262 416 OFFCURVE",
"268 443 CURVE",
"255 367 OFFCURVE",
"230 237 OFFCURVE",
"217 152 CURVE SMOOTH",
"201 56 OFFCURVE",
"221 -7 OFFCURVE",
"268 -10 CURVE",
"268 -11 OFFCURVE",
"269 -11 OFFCURVE",
"269 -12 CURVE SMOOTH",
"293 89 OFFCURVE",
"382 222 OFFCURVE",
"457 345 CURVE SMOOTH",
"479 382 OFFCURVE",
"522 433 OFFCURVE",
"522 476 CURVE SMOOTH",
"522 515 OFFCURVE",
"512 530 OFFCURVE",
"491 541 CURVE",
"488 522 OFFCURVE",
"469 478 OFFCURVE",
"444 429 CURVE SMOOTH",
"419 382 OFFCURVE",
"390 331 OFFCURVE",
"365 293 CURVE SMOOTH",
"342 256 OFFCURVE",
"278 156 OFFCURVE",
"254 87 CURVE"
);
},
{
closed = 1;
nodes = (
"527 673 OFFCURVE",
"522 673 OFFCURVE",
"518 673 CURVE",
"506 658 OFFCURVE",
"499 650 OFFCURVE",
"483 650 CURVE SMOOTH",
"449 650 OFFCURVE",
"418 674 OFFCURVE",
"377 674 CURVE SMOOTH",
"344 674 OFFCURVE",
"307 642 OFFCURVE",
"307 617 CURVE SMOOTH",
"307 616 OFFCURVE",
"309 614 OFFCURVE",
"315 615 CURVE",
"324 623 OFFCURVE",
"339 644 OFFCURVE",
"363 644 CURVE SMOOTH",
"398 644 OFFCURVE",
"415 615 OFFCURVE",
"461 615 CURVE SMOOTH",
"484 615 OFFCURVE",
"527 637 OFFCURVE",
"527 664 CURVE SMOOTH"
);
}
);
width = 430;
}
);
note = Ntilde;
unicode = 00D1;
},
{
color = 0;
glyphname = O;
lastChange = "2021-05-17 19:56:03 +0000";
layers = (
{
hints = (
{
place = "{69, 55}";
type = Stem;
},
{
place = "{598, 19}";
type = Stem;
}
);
layerId = "1C8B4FDB-B0E8-4411-8E26-068C67144FEF";
paths = (
{
closed = 1;
nodes = (
"436 -9 OFFCURVE",
"657 540 OFFCURVE",
"353 540 CURVE SMOOTH",
"97 540 OFFCURVE",
"-94 -9 OFFCURVE",
"194 -9 CURVE SMOOTH"
);
},
{
closed = 1;
nodes = (
"533 508 OFFCURVE",
"396 14 OFFCURVE",
"189 14 CURVE SMOOTH",
"4 14 OFFCURVE",
"165 508 OFFCURVE",
"370 508 CURVE SMOOTH"
);
}
);
width = 475;
}
);
note = O;
unicode = 004F;
},
{
color = 0;
glyphname = Oacute;
lastChange = "2021-05-17 19:56:03 +0000";
layers = (
{
hints = (
{
place = "{36, 55}";
type = Stem;
},
{
place = "{565, 19}";
type = Stem;
},
{
horizontal = 1;
place = "{627, 118}";
type = Stem;
},
{
place = "{293, 157}";
type = Stem;
}
);
layerId = "1C8B4FDB-B0E8-4411-8E26-068C67144FEF";
paths = (
{
closed = 1;
nodes = (
"403 -9 OFFCURVE",
"624 540 OFFCURVE",
"320 540 CURVE SMOOTH",
"64 540 OFFCURVE",
"-127 -9 OFFCURVE",
"161 -9 CURVE SMOOTH"
);
},
{
closed = 1;
nodes = (
"500 508 OFFCURVE",
"363 14 OFFCURVE",
"156 14 CURVE SMOOTH",
"-29 14 OFFCURVE",
"132 508 OFFCURVE",
"337 508 CURVE SMOOTH"
);
},
{
closed = 1;
nodes = (
"459 708 OFFCURVE",
"447 717 OFFCURVE",
"439 718 CURVE SMOOTH",
"435 719 OFFCURVE",
"430 719 OFFCURVE",
"427 716 CURVE",
"412 710 OFFCURVE",
"317 647 OFFCURVE",
"299 642 CURVE SMOOTH",
"289 640 OFFCURVE",
"287 637 OFFCURVE",
"287 636 CURVE SMOOTH",
"287 634 OFFCURVE",
"290 632 OFFCURVE",
"294 631 CURVE SMOOTH",
"300 630 OFFCURVE",
"311 630 OFFCURVE",
"324 633 CURVE",
"362 636 OFFCURVE",
"475 687 OFFCURVE",
"473 699 CURVE SMOOTH",
"473 700 OFFCURVE",
"471 701 OFFCURVE",
"470 702 CURVE"
);
}
);
width = 442;
}
);
note = Oacute;
unicode = 00D3;
},
{
color = 0;
glyphname = Obreve;
lastChange = "2021-05-17 19:56:03 +0000";
layers = (
{
hints = (
{
place = "{69, 55}";
type = Stem;
},
{
place = "{598, 19}";
type = Stem;
},
{
horizontal = 1;
place = "{511, 19}";
type = Stem;
}
);
layerId = "1C8B4FDB-B0E8-4411-8E26-068C67144FEF";
paths = (
{
closed = 1;
nodes = (
"436 -9 OFFCURVE",
"657 540 OFFCURVE",
"353 540 CURVE SMOOTH",
"97 540 OFFCURVE",
"-94 -9 OFFCURVE",
"194 -9 CURVE SMOOTH"
);
},
{
closed = 1;
nodes = (
"533 508 OFFCURVE",
"396 14 OFFCURVE",
"189 14 CURVE SMOOTH",
"4 14 OFFCURVE",
"165 508 OFFCURVE",
"370 508 CURVE SMOOTH"
);
},
{
closed = 1;
nodes = (
"470 622 OFFCURVE",
"386 628 OFFCURVE",
"379 676 CURVE SMOOTH",
"377 689 OFFCURVE",
"366 684 OFFCURVE",
"362 672 CURVE SMOOTH",
"347 634 OFFCURVE",
"374 606 OFFCURVE",
"415 606 CURVE SMOOTH",
"459 606 OFFCURVE",
"515 639 OFFCURVE",
"529 679 CURVE SMOOTH",
"531 686 OFFCURVE",
"522 689 OFFCURVE",
"515 680 CURVE SMOOTH"
);
}
);
width = 475;
}
);
note = Obreve;
unicode = 014E;
},
{
color = 0;
glyphname = Ocircumflex;
lastChange = "2021-05-17 19:56:03 +0000";
layers = (
{
hints = (
{
place = "{36, 55}";
type = Stem;
},
{
place = "{565, 19}";
type = Stem;
},
{
horizontal = 1;
place = "{472, 108}";
type = Stem;
},
{
place = "{204, 231}";
type = Stem;
}
);
layerId = "1C8B4FDB-B0E8-4411-8E26-068C67144FEF";
paths = (
{
closed = 1;
nodes = (
"403 -9 OFFCURVE",
"624 540 OFFCURVE",
"320 540 CURVE SMOOTH",
"64 540 OFFCURVE",
"-127 -9 OFFCURVE",
"161 -9 CURVE SMOOTH"
);
},
{
closed = 1;
nodes = (
"500 508 OFFCURVE",
"363 14 OFFCURVE",
"156 14 CURVE SMOOTH",
"-29 14 OFFCURVE",
"132 508 OFFCURVE",
"337 508 CURVE SMOOTH"
);
},
{
closed = 1;
nodes = (
"280 614 OFFCURVE",
"357 658 OFFCURVE",
"392 670 CURVE",
"400 658 OFFCURVE",
"436 607 OFFCURVE",
"491 607 CURVE",
"470 626 OFFCURVE",
"423 715 OFFCURVE",
"411 721 CURVE",
"365 693 OFFCURVE",
"248 641 OFFCURVE",
"248 589 CURVE"
);
}
);
width = 442;
}
);
note = Ocircumflex;
unicode = 00D4;
},
{
color = 0;
glyphname = Odieresis;
lastChange = "2021-05-17 19:56:03 +0000";
layers = (
{
hints = (
{
place = "{36, 55}";
type = Stem;
},
{
place = "{565, 19}";
type = Stem;
},
{
place = "{289, 75}";
type = Stem;
},
{
place = "{409, 75}";
type = Stem;
}
);
layerId = "1C8B4FDB-B0E8-4411-8E26-068C67144FEF";
paths = (
{
closed = 1;
nodes = (
"403 -9 OFFCURVE",
"624 540 OFFCURVE",
"320 540 CURVE SMOOTH",
"64 540 OFFCURVE",
"-127 -9 OFFCURVE",
"161 -9 CURVE SMOOTH"
);
},
{
closed = 1;
nodes = (
"500 508 OFFCURVE",
"363 14 OFFCURVE",
"156 14 CURVE SMOOTH",
"-29 14 OFFCURVE",
"132 508 OFFCURVE",
"337 508 CURVE SMOOTH"
);
},
{
closed = 1;
nodes = (
"349 693 OFFCURVE",
"345 697 OFFCURVE",
"341 695 CURVE SMOOTH",
"331 688 OFFCURVE",
"324 686 OFFCURVE",
"314 681 CURVE SMOOTH",
"302 676 OFFCURVE",
"292 669 OFFCURVE",
"283 661 CURVE SMOOTH",
"277 656 OFFCURVE",
"268 643 OFFCURVE",
"275 632 CURVE",
"279 623 OFFCURVE",
"285 615 OFFCURVE",
"297 613 CURVE SMOOTH",
"335 607 OFFCURVE",
"334 670 OFFCURVE",
"347 690 CURVE SMOOTH"
);
},
{
closed = 1;
nodes = (
"469 693 OFFCURVE",
"465 697 OFFCURVE",
"461 695 CURVE SMOOTH",
"451 688 OFFCURVE",
"444 686 OFFCURVE",
"434 681 CURVE SMOOTH",
"422 676 OFFCURVE",
"412 669 OFFCURVE",
"402 661 CURVE SMOOTH",
"396 656 OFFCURVE",
"388 643 OFFCURVE",
"395 632 CURVE",
"399 623 OFFCURVE",
"405 615 OFFCURVE",
"417 613 CURVE SMOOTH",
"455 607 OFFCURVE",
"453 670 OFFCURVE",
"467 690 CURVE SMOOTH"
);
}
);
width = 442;
}
);
note = Odieresis;
unicode = 00D6;
},
{
color = 0;
glyphname = Ograve;
lastChange = "2021-05-17 19:56:03 +0000";
layers = (
{
hints = (
{
horizontal = 1;
place = "{586, 118}";
type = Stem;
},
{
horizontal = 1;
place = "{609, 118}";
type = Stem;
},
{
place = "{36, 55}";
type = Stem;
},
{
place = "{295, 157}";
type = Stem;
},
{
place = "{478, 157}";
type = Stem;
},
{
place = "{565, 19}";
type = Stem;
}
);
layerId = "1C8B4FDB-B0E8-4411-8E26-068C67144FEF";
paths = (
{
closed = 1;
nodes = (
"403 -9 OFFCURVE",
"624 540 OFFCURVE",
"320 540 CURVE SMOOTH",
"64 540 OFFCURVE",
"-127 -9 OFFCURVE",
"161 -9 CURVE SMOOTH"
);
},
{
closed = 1;
nodes = (
"500 508 OFFCURVE",
"363 14 OFFCURVE",
"156 14 CURVE SMOOTH",
"-29 14 OFFCURVE",
"132 508 OFFCURVE",
"337 508 CURVE SMOOTH"
);
},
{
closed = 1;
nodes = (
"290 708 OFFCURVE",
"289 707 OFFCURVE",
"289 706 CURVE",
"284 695 OFFCURVE",
"388 628 OFFCURVE",
"425 618 CURVE SMOOTH",
"438 614 OFFCURVE",
"449 612 OFFCURVE",
"455 612 CURVE SMOOTH",
"459 612 OFFCURVE",
"462 613 OFFCURVE",
"463 615 CURVE",
"463 617 OFFCURVE",
"461 620 OFFCURVE",
"451 624 CURVE SMOOTH",
"435 631 OFFCURVE",
"350 708 OFFCURVE",
"336 716 CURVE",
"334 719 OFFCURVE",
"329 720 OFFCURVE",
"325 720 CURVE SMOOTH",
"316 720 OFFCURVE",
"303 712 OFFCURVE",
"291 708 CURVE"
);
}
);
width = 442;
}
);
note = Ograve;
unicode = 00D2;
},
{
color = 0;
glyphname = Ohungarumlaut;
lastChange = "2021-05-17 19:56:03 +0000";
layers = (
{
hints = (
{
horizontal = 1;
place = "{581, 105}";
type = Stem;
},
{
place = "{36, 55}";
type = Stem;
},
{
place = "{311, 152}";
type = Stem;
},
{
place = "{457, 41}";
type = Stem;
},
{
place = "{565, 19}";
type = Stem;
}
);
layerId = "1C8B4FDB-B0E8-4411-8E26-068C67144FEF";
paths = (
{
closed = 1;
nodes = (
"403 -9 OFFCURVE",
"624 540 OFFCURVE",
"320 540 CURVE SMOOTH",
"64 540 OFFCURVE",
"-127 -9 OFFCURVE",
"161 -9 CURVE SMOOTH"
);
},
{
closed = 1;
nodes = (
"500 508 OFFCURVE",
"363 14 OFFCURVE",
"156 14 CURVE SMOOTH",
"-29 14 OFFCURVE",
"132 508 OFFCURVE",
"337 508 CURVE SMOOTH"
);
},
{
closed = 1;
nodes = (
"423 680 OFFCURVE",
"418 629 OFFCURVE",
"416 608 CURVE SMOOTH",
"415 600 OFFCURVE",
"429 604 OFFCURVE",
"429 606 CURVE",
"444 637 OFFCURVE",
"460 669 OFFCURVE",
"465 685 CURVE SMOOTH",
"478 722 OFFCURVE",
"451 739 OFFCURVE",
"435 706 CURVE SMOOTH"
);
},
{
closed = 1;
nodes = (
"346 680 OFFCURVE",
"340 629 OFFCURVE",
"338 608 CURVE SMOOTH",
"338 600 OFFCURVE",
"351 604 OFFCURVE",
"352 606 CURVE SMOOTH",
"367 637 OFFCURVE",
"383 669 OFFCURVE",
"388 685 CURVE SMOOTH",
"401 722 OFFCURVE",
"373 739 OFFCURVE",
"358 706 CURVE SMOOTH"
);
}
);
width = 442;
}
);
note = Ohungarumlaut;
unicode = 0150;
},
{
color = 0;
glyphname = Omacron;
lastChange = "2021-05-17 19:56:03 +0000";
layers = (
{
hints = (
{
place = "{36, 55}";
type = Stem;
},
{
place = "{565, 19}";
type = Stem;
},
{
horizontal = 1;
place = "{537, 22}";
type = Stem;
},
{
place = "{281, 169}";
type = Stem;
}
);
layerId = "1C8B4FDB-B0E8-4411-8E26-068C67144FEF";
paths = (
{
closed = 1;
nodes = (
"403 -9 OFFCURVE",
"624 540 OFFCURVE",
"320 540 CURVE SMOOTH",
"64 540 OFFCURVE",
"-127 -9 OFFCURVE",
"161 -9 CURVE SMOOTH"
);
},
{
closed = 1;
nodes = (
"500 508 OFFCURVE",
"363 14 OFFCURVE",
"156 14 CURVE SMOOTH",
"-29 14 OFFCURVE",
"132 508 OFFCURVE",
"337 508 CURVE SMOOTH"
);
},
{
closed = 1;
nodes = (
"480 633 OFFCURVE",
"482 657 OFFCURVE",
"459 657 CURVE SMOOTH",
"414 657 OFFCURVE",
"323 647 OFFCURVE",
"289 657 CURVE",
"289 641 OFFCURVE",
"284 617 OFFCURVE",
"311 617 CURVE SMOOTH",
"345 617 OFFCURVE",
"459 626 OFFCURVE",
"480 616 CURVE"
);
}
);
width = 442;
}
);
note = Omacron;
unicode = 014C;
},
{
color = 0;
glyphname = Oslash;
lastChange = "2021-05-17 19:56:03 +0000";
layers = (
{
hints = (
{
horizontal = 1;
place = "{-60, 644}";
type = Stem;
},
{
place = "{36, 55}";
type = Stem;
},
{
place = "{48, 28}";
type = Stem;
},
{
place = "{565, 19}";
type = Stem;
}
);
layerId = "1C8B4FDB-B0E8-4411-8E26-068C67144FEF";
paths = (
{
closed = 1;
nodes = (
"467 561 OFFCURVE",
"467 562 OFFCURVE",
"467 564 CURVE SMOOTH",
"469 579 OFFCURVE",
"458 590 OFFCURVE",
"452 590 CURVE",
"448 588 LINE",
"428 564 OFFCURVE",
"408 540 OFFCURVE",
"388 513 CURVE",
"367 524 OFFCURVE",
"341 531 OFFCURVE",
"309 531 CURVE SMOOTH",
"112 531 OFFCURVE",
"-52 156 OFFCURVE",
"66 36 CURVE",
"39 -9 OFFCURVE",
"20 -44 OFFCURVE",
"13 -62 CURVE SMOOTH",
"4 -82 OFFCURVE",
"16 -91 OFFCURVE",
"31 -66 CURVE SMOOTH",
"41 -52 OFFCURVE",
"61 -20 OFFCURVE",
"88 19 CURVE",
"109 6 OFFCURVE",
"135 -1 OFFCURVE",
"167 -1 CURVE SMOOTH",
"360 -1 OFFCURVE",
"541 371 OFFCURVE",
"417 493 CURVE",
"439 524 OFFCURVE",
"456 547 OFFCURVE",
"466 558 CURVE"
);
},
{
closed = 1;
nodes = (
"133 22 OFFCURVE",
"116 29 OFFCURVE",
"105 42 CURVE",
"187 162 OFFCURVE",
"314 348 OFFCURVE",
"396 464 CURVE",
"444 352 OFFCURVE",
"324 22 OFFCURVE",
"154 22 CURVE SMOOTH"
);
},
{
closed = 1;
nodes = (
"356 501 OFFCURVE",
"365 498 OFFCURVE",
"373 493 CURVE",
"264 348 OFFCURVE",
"156 184 OFFCURVE",
"87 70 CURVE",
"41 191 OFFCURVE",
"172 501 OFFCURVE",
"345 501 CURVE SMOOTH"
);
}
);
width = 442;
}
);
note = Oslash;
unicode = 00D8;
},
{
color = 0;
glyphname = Otilde;
lastChange = "2021-05-17 19:56:03 +0000";
layers = (
{
hints = (
{
horizontal = 1;
place = "{572, 28}";
type = Stem;
},
{
horizontal = 1;
place = "{595, 23}";
type = Stem;
},
{
place = "{36, 55}";
type = Stem;
},
{
place = "{252, 188}";
type = Stem;
},
{
place = "{565, 19}";
type = Stem;
}
);
layerId = "1C8B4FDB-B0E8-4411-8E26-068C67144FEF";
paths = (
{
closed = 1;
nodes = (
"403 -9 OFFCURVE",
"624 540 OFFCURVE",
"320 540 CURVE SMOOTH",
"64 540 OFFCURVE",
"-127 -9 OFFCURVE",
"161 -9 CURVE SMOOTH"
);
},
{
closed = 1;
nodes = (
"500 508 OFFCURVE",
"363 14 OFFCURVE",
"156 14 CURVE SMOOTH",
"-29 14 OFFCURVE",
"132 508 OFFCURVE",
"337 508 CURVE SMOOTH"
);
},
{
closed = 1;
nodes = (
"499 684 OFFCURVE",
"494 684 OFFCURVE",
"490 684 CURVE",
"478 668 OFFCURVE",
"471 661 OFFCURVE",
"455 661 CURVE SMOOTH",
"421 661 OFFCURVE",
"390 685 OFFCURVE",
"349 685 CURVE SMOOTH",
"316 685 OFFCURVE",
"279 652 OFFCURVE",
"279 628 CURVE SMOOTH",
"279 627 OFFCURVE",
"281 624 OFFCURVE",
"287 626 CURVE",
"296 634 OFFCURVE",
"311 655 OFFCURVE",
"335 655 CURVE SMOOTH",
"370 655 OFFCURVE",
"387 625 OFFCURVE",
"433 625 CURVE SMOOTH",
"456 625 OFFCURVE",
"499 647 OFFCURVE",
"499 674 CURVE SMOOTH"
);
}
);
width = 442;
}
);
note = Otilde;
unicode = 00D5;
},
{
color = 0;
glyphname = OE;
lastChange = "2021-05-17 19:56:03 +0000";
layers = (
{
hints = (
{
place = "{36, 55}";
type = Stem;
},
{
place = "{431, 52}";
type = Stem;
},
{
place = "{565, 19}";
type = Stem;
},
{
place = "{605, 24}";
type = Stem;
},
{
place = "{971, 27}";
type = Stem;
},
{
place = "{1070, 32}";
type = Stem;
}
);
layerId = "1C8B4FDB-B0E8-4411-8E26-068C67144FEF";
paths = (
{
closed = 1;
nodes = (
"519 481 OFFCURVE",
"490 448 OFFCURVE",
"456 403 CURVE",
"449 477 OFFCURVE",
"405 531 OFFCURVE",
"309 531 CURVE SMOOTH",
"75 531 OFFCURVE",
"-115 -1 OFFCURVE",
"167 -1 CURVE SMOOTH",
"209 -1 OFFCURVE",
"251 17 OFFCURVE",
"289 46 CURVE",
"297 25 OFFCURVE",
"320 3 OFFCURVE",
"364 3 CURVE SMOOTH",
"399 3 OFFCURVE",
"532 38 OFFCURVE",
"575 31 CURVE",
"574 63 OFFCURVE",
"541 65 OFFCURVE",
"506 65 CURVE SMOOTH",
"455 65 OFFCURVE",
"408 48 OFFCURVE",
"365 48 CURVE SMOOTH",
"353 48 OFFCURVE",
"346 54 OFFCURVE",
"346 67 CURVE SMOOTH",
"346 122 OFFCURVE",
"410 235 OFFCURVE",
"408 231 CURVE",
"570 231 LINE",
"581 254 OFFCURVE",
"566 272 OFFCURVE",
"527 272 CURVE SMOOTH",
"482 272 OFFCURVE",
"443 262 OFFCURVE",
"422 258 CURVE",
"436 298 OFFCURVE",
"534 450 OFFCURVE",
"558 474 CURVE SMOOTH",
"572 487 OFFCURVE",
"597 493 OFFCURVE",
"624 496 CURVE SMOOTH",
"668 500 OFFCURVE",
"734 499 OFFCURVE",
"753 495 CURVE",
"753 521 OFFCURVE",
"749 538 OFFCURVE",
"699 538 CURVE SMOOTH",
"671 538 OFFCURVE",
"596 538 OFFCURVE",
"531 530 CURVE SMOOTH",
"502 525 OFFCURVE",
"492 518 OFFCURVE",
"492 511 CURVE SMOOTH",
"492 499 OFFCURVE",
"512 490 OFFCURVE",
"529 490 CURVE"
);
},
{
closed = 1;
nodes = (
"-20 22 OFFCURVE",
"129 501 OFFCURVE",
"345 501 CURVE SMOOTH",
"405 501 OFFCURVE",
"417 417 OFFCURVE",
"397 321 CURVE",
"379 294 LINE SMOOTH",
"335 226 OFFCURVE",
"297 154 OFFCURVE",
"287 93 CURVE",
"249 50 OFFCURVE",
"203 22 OFFCURVE",
"154 22 CURVE SMOOTH"
);
}
);
width = 609;
}
);
note = OE;
unicode = 0152;
},
{
color = 0;
glyphname = P;
lastChange = "2021-05-17 19:56:03 +0000";
layers = (
{
hints = (
{
place = "{-13, 40}";
type = Stem;
},
{
place = "{177, 31}";
type = Stem;
},
{
place = "{829, 43}";
type = Stem;
}
);
layerId = "1C8B4FDB-B0E8-4411-8E26-068C67144FEF";
paths = (
{
closed = 1;
nodes = (
"520 489 OFFCURVE",
"492 534 OFFCURVE",
"420 534 CURVE SMOOTH",
"385 534 OFFCURVE",
"344 524 OFFCURVE",
"302 514 CURVE",
"298 525 OFFCURVE",
"291 535 OFFCURVE",
"275 535 CURVE",
"273 525 OFFCURVE",
"270 515 OFFCURVE",
"267 506 CURVE",
"232 497 OFFCURVE",
"196 490 OFFCURVE",
"163 487 CURVE",
"153 464 OFFCURVE",
"162 443 OFFCURVE",
"215 449 CURVE SMOOTH",
"225 450 OFFCURVE",
"235 450 OFFCURVE",
"246 453 CURVE",
"208 369 OFFCURVE",
"146 275 OFFCURVE",
"91 184 CURVE SMOOTH",
"69 147 OFFCURVE",
"26 95 OFFCURVE",
"26 53 CURVE SMOOTH",
"26 14 OFFCURVE",
"37 -1 OFFCURVE",
"57 -12 CURVE",
"60 7 OFFCURVE",
"79 51 OFFCURVE",
"105 99 CURVE SMOOTH",
"121 131 OFFCURVE",
"139 164 OFFCURVE",
"157 195 CURVE",
"309 106 OFFCURVE",
"520 315 OFFCURVE",
"520 434 CURVE SMOOTH"
);
},
{
closed = 1;
nodes = (
"183 235 LINE SMOOTH",
"212 283 OFFCURVE",
"292 415 OFFCURVE",
"303 466 CURVE",
"343 475 OFFCURVE",
"385 485 OFFCURVE",
"424 485 CURVE SMOOTH",
"472 485 OFFCURVE",
"494 471 OFFCURVE",
"494 446 CURVE SMOOTH",
"494 332 OFFCURVE",
"276 204 OFFCURVE",
"167 212 CURVE"
);
}
);
width = 412;
}
);
note = P;
unicode = 0050;
},
{
color = 0;
glyphname = Thorn;
lastChange = "2021-05-17 19:56:03 +0000";
layers = (
{
hints = (
{
horizontal = 1;
place = "{-3, 17}";
type = Stem;
},
{
place = "{-13, 40}";
type = Stem;
},
{
place = "{83, 35}";
type = Stem;
},
{
place = "{177, 31}";
type = Stem;
},
{
place = "{829, 43}";
type = Stem;
}
);
layerId = "1C8B4FDB-B0E8-4411-8E26-068C67144FEF";
paths = (
{
closed = 1;
nodes = (
"363 603 OFFCURVE",
"363 604 OFFCURVE",
"363 607 CURVE SMOOTH",
"360 625 OFFCURVE",
"333 650 OFFCURVE",
"327 649 CURVE",
"325 648 OFFCURVE",
"324 648 OFFCURVE",
"324 646 CURVE",
"299 594 OFFCURVE",
"275 541 OFFCURVE",
"253 490 CURVE",
"221 482 OFFCURVE",
"189 476 OFFCURVE",
"158 473 CURVE",
"148 450 OFFCURVE",
"157 429 OFFCURVE",
"210 435 CURVE SMOOTH",
"215 435 OFFCURVE",
"223 436 OFFCURVE",
"230 437 CURVE",
"142 223 OFFCURVE",
"81 31 OFFCURVE",
"74 -20 CURVE SMOOTH",
"71 -38 OFFCURVE",
"97 -38 OFFCURVE",
"105 -15 CURVE SMOOTH",
"114 9 OFFCURVE",
"143 82 OFFCURVE",
"178 168 CURVE",
"326 116 OFFCURVE",
"515 309 OFFCURVE",
"515 421 CURVE SMOOTH",
"515 475 OFFCURVE",
"487 520 OFFCURVE",
"415 520 CURVE SMOOTH",
"389 520 OFFCURVE",
"361 515 OFFCURVE",
"319 506 CURVE",
"337 548 OFFCURVE",
"353 583 OFFCURVE",
"361 601 CURVE"
);
},
{
closed = 1;
nodes = (
"467 472 OFFCURVE",
"489 457 OFFCURVE",
"489 433 CURVE SMOOTH",
"489 326 OFFCURVE",
"303 206 OFFCURVE",
"190 199 CURVE",
"225 282 OFFCURVE",
"263 376 OFFCURVE",
"297 453 CURVE",
"336 462 OFFCURVE",
"385 472 OFFCURVE",
"419 472 CURVE SMOOTH"
);
}
);
width = 412;
}
);
note = Thorn;
unicode = 00DE;
},
{
color = 0;
glyphname = Q;
lastChange = "2021-05-17 19:56:03 +0000";
layers = (
{
hints = (
{
place = "{100, 42}";
type = Stem;
},
{
place = "{635, 50}";
type = Stem;
},
{
place = "{659, 9}";
type = Stem;
},
{
place = "{743, 26}";
type = Stem;
}
);
layerId = "1C8B4FDB-B0E8-4411-8E26-068C67144FEF";
paths = (
{
closed = 1;
nodes = (
"65 -88 OFFCURVE",
"91 -83 OFFCURVE",
"119 -54 CURVE",
"126 -55 OFFCURVE",
"133 -57 OFFCURVE",
"141 -60 CURVE",
"213 -78 OFFCURVE",
"286 -151 OFFCURVE",
"354 -151 CURVE SMOOTH",
"406 -151 OFFCURVE",
"421 -113 OFFCURVE",
"420 -98 CURVE",
"388 -122 OFFCURVE",
"345 -101 OFFCURVE",
"312 -85 CURVE SMOOTH",
"253 -56 OFFCURVE",
"189 -38 OFFCURVE",
"143 -27 CURVE",
"153 -14 OFFCURVE",
"167 6 OFFCURVE",
"171 15 CURVE",
"187 9 OFFCURVE",
"206 7 OFFCURVE",
"227 7 CURVE SMOOTH",
"457 7 OFFCURVE",
"671 539 OFFCURVE",
"368 539 CURVE SMOOTH",
"156 539 OFFCURVE",
"-19 103 OFFCURVE",
"159 20 CURVE",
"125 -24 LINE",
"115 -24 LINE SMOOTH",
"66 -24 OFFCURVE",
"43 -58 OFFCURVE",
"54 -72 CURVE SMOOTH"
);
},
{
closed = 1;
nodes = (
"551 508 OFFCURVE",
"418 30 OFFCURVE",
"213 30 CURVE SMOOTH",
"40 30 OFFCURVE",
"189 508 OFFCURVE",
"405 508 CURVE SMOOTH"
);
}
);
width = 503;
}
);
note = Q;
unicode = 0051;
},
{
color = 0;
glyphname = R;
lastChange = "2021-05-17 19:56:03 +0000";
layers = (
{
hints = (
{
horizontal = 1;
place = "{-12, 21}";
target = up;
type = BottomGhost;
},
{
horizontal = 1;
place = "{174, 38}";
type = Stem;
},
{
horizontal = 1;
place = "{496, 48}";
type = Stem;
},
{
place = "{320, 15}";
type = Stem;
},
{
place = "{499, 26}";
type = Stem;
},
{
place = "{19, 30}";
type = Stem;
},
{
place = "{273, 27}";
type = Stem;
},
{
horizontal = 1;
place = "{-16, 21}";
target = up;
type = BottomGhost;
}
);
layerId = "1C8B4FDB-B0E8-4411-8E26-068C67144FEF";
paths = (
{
closed = 1;
nodes = (
"525 499 OFFCURVE",
"497 544 OFFCURVE",
"425 544 CURVE SMOOTH",
"388 544 OFFCURVE",
"344 534 OFFCURVE",
"300 523 CURVE",
"297 535 OFFCURVE",
"289 545 OFFCURVE",
"273 545 CURVE",
"270 535 OFFCURVE",
"267 524 OFFCURVE",
"263 513 CURVE",
"231 506 OFFCURVE",
"199 500 OFFCURVE",
"168 497 CURVE",
"158 474 OFFCURVE",
"167 453 OFFCURVE",
"220 459 CURVE SMOOTH",
"243 462 LINE",
"205 378 OFFCURVE",
"139 275 OFFCURVE",
"83 184 CURVE SMOOTH",
"61 147 OFFCURVE",
"19 95 OFFCURVE",
"19 53 CURVE SMOOTH",
"19 14 OFFCURVE",
"29 -1 OFFCURVE",
"49 -12 CURVE",
"53 7 OFFCURVE",
"71 51 OFFCURVE",
"97 99 CURVE SMOOTH",
"143 183 LINE",
"178 161 OFFCURVE",
"277 54 OFFCURVE",
"320 -16 CURVE",
"342 -14 OFFCURVE",
"337 29 OFFCURVE",
"325 53 CURVE SMOOTH",
"297 104 OFFCURVE",
"246 149 OFFCURVE",
"219 174 CURVE",
"360 160 OFFCURVE",
"525 341 OFFCURVE",
"525 445 CURVE SMOOTH"
);
},
{
closed = 1;
nodes = (
"220 309 OFFCURVE",
"285 421 OFFCURVE",
"300 473 CURVE",
"343 484 OFFCURVE",
"388 496 OFFCURVE",
"429 496 CURVE SMOOTH",
"477 496 OFFCURVE",
"499 481 OFFCURVE",
"499 456 CURVE SMOOTH",
"499 350 OFFCURVE",
"296 212 OFFCURVE",
"189 212 CURVE SMOOTH",
"166 212 OFFCURVE",
"172 229 OFFCURVE",
"179 241 CURVE SMOOTH"
);
}
);
width = 406;
}
);
note = R;
unicode = 0052;
},
{
color = 0;
glyphname = Racute;
lastChange = "2021-05-17 19:56:03 +0000";
layers = (
{
hints = (
{
horizontal = 1;
place = "{608, 118}";
type = Stem;
},
{
place = "{370, 157}";
type = Stem;
}
);
layerId = "1C8B4FDB-B0E8-4411-8E26-068C67144FEF";
paths = (
{
closed = 1;
nodes = (
"525 499 OFFCURVE",
"497 544 OFFCURVE",
"425 544 CURVE SMOOTH",
"388 544 OFFCURVE",
"344 534 OFFCURVE",
"300 523 CURVE",
"297 535 OFFCURVE",
"289 545 OFFCURVE",
"273 545 CURVE",
"270 535 OFFCURVE",
"267 524 OFFCURVE",
"263 513 CURVE",
"231 506 OFFCURVE",
"199 500 OFFCURVE",
"168 497 CURVE",
"158 474 OFFCURVE",
"167 453 OFFCURVE",
"220 459 CURVE SMOOTH",
"243 462 LINE",
"205 378 OFFCURVE",
"139 275 OFFCURVE",
"83 184 CURVE SMOOTH",
"61 147 OFFCURVE",
"19 95 OFFCURVE",
"19 53 CURVE SMOOTH",
"19 14 OFFCURVE",
"29 -1 OFFCURVE",
"49 -12 CURVE",
"53 7 OFFCURVE",
"71 51 OFFCURVE",
"97 99 CURVE SMOOTH",
"143 183 LINE",
"178 161 OFFCURVE",
"277 54 OFFCURVE",
"320 -16 CURVE",
"342 -14 OFFCURVE",
"337 29 OFFCURVE",
"325 53 CURVE SMOOTH",
"297 104 OFFCURVE",
"246 149 OFFCURVE",
"219 174 CURVE",
"360 160 OFFCURVE",
"525 341 OFFCURVE",
"525 445 CURVE SMOOTH"
);
},
{
closed = 1;
nodes = (
"220 309 OFFCURVE",
"285 421 OFFCURVE",
"300 473 CURVE",
"343 484 OFFCURVE",
"388 496 OFFCURVE",
"429 496 CURVE SMOOTH",
"477 496 OFFCURVE",
"499 481 OFFCURVE",
"499 456 CURVE SMOOTH",
"499 350 OFFCURVE",
"296 212 OFFCURVE",
"189 212 CURVE SMOOTH",
"166 212 OFFCURVE",
"172 229 OFFCURVE",
"179 241 CURVE SMOOTH"
);
},
{
closed = 1;
nodes = (
"536 689 OFFCURVE",
"524 698 OFFCURVE",
"516 699 CURVE SMOOTH",
"512 700 OFFCURVE",
"507 700 OFFCURVE",
"504 697 CURVE",
"489 691 OFFCURVE",
"394 628 OFFCURVE",
"376 623 CURVE SMOOTH",
"366 621 OFFCURVE",
"364 618 OFFCURVE",
"364 617 CURVE SMOOTH",
"364 615 OFFCURVE",
"367 613 OFFCURVE",
"371 612 CURVE SMOOTH",
"377 611 OFFCURVE",
"388 611 OFFCURVE",
"401 614 CURVE",
"439 617 OFFCURVE",
"552 668 OFFCURVE",
"550 680 CURVE SMOOTH",
"550 681 OFFCURVE",
"548 682 OFFCURVE",
"547 683 CURVE"
);
}
);
width = 406;
}
);
note = Racute;
unicode = 0154;
},
{
color = 0;
glyphname = Rcaron;
lastChange = "2021-05-17 19:56:03 +0000";
layers = (
{
hints = (
{
horizontal = 1;
place = "{505, 108}";
type = Stem;
},
{
place = "{316, 231}";
type = Stem;
}
);
layerId = "1C8B4FDB-B0E8-4411-8E26-068C67144FEF";
paths = (
{
closed = 1;
nodes = (
"525 499 OFFCURVE",
"497 544 OFFCURVE",
"425 544 CURVE SMOOTH",
"388 544 OFFCURVE",
"344 534 OFFCURVE",
"300 523 CURVE",
"297 535 OFFCURVE",
"289 545 OFFCURVE",
"273 545 CURVE",
"270 535 OFFCURVE",
"267 524 OFFCURVE",
"263 513 CURVE",
"231 506 OFFCURVE",
"199 500 OFFCURVE",
"168 497 CURVE",
"158 474 OFFCURVE",
"167 453 OFFCURVE",
"220 459 CURVE SMOOTH",
"243 462 LINE",
"205 378 OFFCURVE",
"139 275 OFFCURVE",
"83 184 CURVE SMOOTH",
"61 147 OFFCURVE",
"19 95 OFFCURVE",
"19 53 CURVE SMOOTH",
"19 14 OFFCURVE",
"29 -1 OFFCURVE",
"49 -12 CURVE",
"53 7 OFFCURVE",
"71 51 OFFCURVE",
"97 99 CURVE SMOOTH",
"143 183 LINE",
"178 161 OFFCURVE",
"277 54 OFFCURVE",
"320 -16 CURVE",
"342 -14 OFFCURVE",
"337 29 OFFCURVE",
"325 53 CURVE SMOOTH",
"297 104 OFFCURVE",
"246 149 OFFCURVE",
"219 174 CURVE",
"360 160 OFFCURVE",
"525 341 OFFCURVE",
"525 445 CURVE SMOOTH"
);
},
{
closed = 1;
nodes = (
"220 309 OFFCURVE",
"285 421 OFFCURVE",
"300 473 CURVE",
"343 484 OFFCURVE",
"388 496 OFFCURVE",
"429 496 CURVE SMOOTH",
"477 496 OFFCURVE",
"499 481 OFFCURVE",
"499 456 CURVE SMOOTH",
"499 350 OFFCURVE",
"296 212 OFFCURVE",
"189 212 CURVE SMOOTH",
"166 212 OFFCURVE",
"172 229 OFFCURVE",
"179 241 CURVE SMOOTH"
);
},
{
closed = 1;
nodes = (
"548 707 OFFCURVE",
"471 664 OFFCURVE",
"436 651 CURVE",
"428 664 OFFCURVE",
"392 715 OFFCURVE",
"337 715 CURVE",
"358 695 OFFCURVE",
"405 607 OFFCURVE",
"417 600 CURVE",
"463 628 OFFCURVE",
"580 681 OFFCURVE",
"580 732 CURVE"
);
}
);
width = 406;
}
);
note = Rcaron;
unicode = 0158;
},
{
color = 0;
glyphname = Rcommaaccent;
lastChange = "2021-05-17 19:56:03 +0000";
layers = (
{
hints = (
{
place = "{159, 40}";
type = Stem;
}
);
layerId = "1C8B4FDB-B0E8-4411-8E26-068C67144FEF";
paths = (
{
closed = 1;
nodes = (
"525 499 OFFCURVE",
"497 544 OFFCURVE",
"425 544 CURVE SMOOTH",
"388 544 OFFCURVE",
"344 534 OFFCURVE",
"300 523 CURVE",
"297 535 OFFCURVE",
"289 545 OFFCURVE",
"273 545 CURVE",
"270 535 OFFCURVE",
"267 524 OFFCURVE",
"263 513 CURVE",
"231 506 OFFCURVE",
"199 500 OFFCURVE",
"168 497 CURVE",
"158 474 OFFCURVE",
"167 453 OFFCURVE",
"220 459 CURVE SMOOTH",
"243 462 LINE",
"205 378 OFFCURVE",
"139 275 OFFCURVE",
"83 184 CURVE SMOOTH",
"61 147 OFFCURVE",
"19 95 OFFCURVE",
"19 53 CURVE SMOOTH",
"19 14 OFFCURVE",
"29 -1 OFFCURVE",
"49 -12 CURVE",
"53 7 OFFCURVE",
"71 51 OFFCURVE",
"97 99 CURVE SMOOTH",
"143 183 LINE",
"178 161 OFFCURVE",
"277 54 OFFCURVE",
"320 -16 CURVE",
"342 -14 OFFCURVE",
"337 29 OFFCURVE",
"325 53 CURVE SMOOTH",
"297 104 OFFCURVE",
"246 149 OFFCURVE",
"219 174 CURVE",
"360 160 OFFCURVE",
"525 341 OFFCURVE",
"525 445 CURVE SMOOTH"
);
},
{
closed = 1;
nodes = (
"220 309 OFFCURVE",
"285 421 OFFCURVE",
"300 473 CURVE",
"343 484 OFFCURVE",
"388 496 OFFCURVE",
"429 496 CURVE SMOOTH",
"477 496 OFFCURVE",
"499 481 OFFCURVE",
"499 456 CURVE SMOOTH",
"499 350 OFFCURVE",
"296 212 OFFCURVE",
"189 212 CURVE SMOOTH",
"166 212 OFFCURVE",
"172 229 OFFCURVE",
"179 241 CURVE SMOOTH"
);
},
{
closed = 1;
nodes = (
"110 -96 OFFCURVE",
"88 -127 OFFCURVE",
"63 -152 CURVE SMOOTH",
"30 -190 LINE SMOOTH",
"28 -192 OFFCURVE",
"28 -199 OFFCURVE",
"39 -194 CURVE SMOOTH",
"42 -192 OFFCURVE",
"45 -183 OFFCURVE",
"51 -180 CURVE SMOOTH",
"90 -159 OFFCURVE",
"142 -135 OFFCURVE",
"155 -95 CURVE SMOOTH",
"164 -70 OFFCURVE",
"158 -48 OFFCURVE",
"142 -36 CURVE SMOOTH",
"131 -29 OFFCURVE",
"114 -24 OFFCURVE",
"123 -36 CURVE SMOOTH",
"127 -43 OFFCURVE",
"125 -56 OFFCURVE",
"123 -65 CURVE"
);
}
);
width = 406;
}
);
note = uni0156;
unicode = 0156;
},
{
color = 0;
glyphname = S;
lastChange = "2021-05-17 19:56:03 +0000";
layers = (
{
hints = (
{
place = "{144, 40}";
type = Stem;
},
{
place = "{342, 48}";
type = Stem;
},
{
place = "{608, 32}";
type = Stem;
}
);
layerId = "1C8B4FDB-B0E8-4411-8E26-068C67144FEF";
paths = (
{
closed = 1;
nodes = (
"38 95 OFFCURVE",
"96 -15 OFFCURVE",
"216 -15 CURVE SMOOTH",
"285 -15 OFFCURVE",
"349 18 OFFCURVE",
"349 88 CURVE SMOOTH",
"349 177 OFFCURVE",
"172 199 OFFCURVE",
"172 297 CURVE SMOOTH",
"172 378 OFFCURVE",
"303 501 OFFCURVE",
"382 501 CURVE SMOOTH",
"411 501 OFFCURVE",
"415 476 OFFCURVE",
"415 471 CURVE SMOOTH",
"415 416 OFFCURVE",
"345 377 OFFCURVE",
"345 316 CURVE SMOOTH",
"345 294 OFFCURVE",
"359 273 OFFCURVE",
"379 273 CURVE",
"379 329 OFFCURVE",
"450 388 OFFCURVE",
"450 437 CURVE SMOOTH",
"450 493 OFFCURVE",
"421 535 OFFCURVE",
"371 535 CURVE SMOOTH",
"256 535 OFFCURVE",
"115 424 OFFCURVE",
"115 290 CURVE SMOOTH",
"115 161 OFFCURVE",
"299 144 OFFCURVE",
"299 64 CURVE SMOOTH",
"299 30 OFFCURVE",
"263 12 OFFCURVE",
"233 12 CURVE SMOOTH",
"184 12 OFFCURVE",
"150 37 OFFCURVE",
"113 77 CURVE SMOOTH",
"86 107 OFFCURVE",
"72 126 OFFCURVE",
"47 126 CURVE SMOOTH",
"27 126 OFFCURVE",
"18 116 OFFCURVE",
"13 99 CURVE"
);
}
);
width = 408;
}
);
note = S;
unicode = 0053;
},
{
color = 0;
glyphname = Sacute;
lastChange = "2021-05-17 19:56:03 +0000";
layers = (
{
hints = (
{
place = "{144, 40}";
type = Stem;
},
{
place = "{342, 48}";
type = Stem;
},
{
place = "{608, 32}";
type = Stem;
},
{
horizontal = 1;
place = "{587, 118}";
type = Stem;
},
{
place = "{353, 157}";
type = Stem;
}
);
layerId = "1C8B4FDB-B0E8-4411-8E26-068C67144FEF";
paths = (
{
closed = 1;
nodes = (
"38 95 OFFCURVE",
"96 -15 OFFCURVE",
"216 -15 CURVE SMOOTH",
"285 -15 OFFCURVE",
"349 18 OFFCURVE",
"349 88 CURVE SMOOTH",
"349 177 OFFCURVE",
"172 199 OFFCURVE",
"172 297 CURVE SMOOTH",
"172 378 OFFCURVE",
"303 501 OFFCURVE",
"382 501 CURVE SMOOTH",
"411 501 OFFCURVE",
"415 476 OFFCURVE",
"415 471 CURVE SMOOTH",
"415 416 OFFCURVE",
"345 377 OFFCURVE",
"345 316 CURVE SMOOTH",
"345 294 OFFCURVE",
"359 273 OFFCURVE",
"379 273 CURVE",
"379 329 OFFCURVE",
"450 388 OFFCURVE",
"450 437 CURVE SMOOTH",
"450 493 OFFCURVE",
"421 535 OFFCURVE",
"371 535 CURVE SMOOTH",
"256 535 OFFCURVE",
"115 424 OFFCURVE",
"115 290 CURVE SMOOTH",
"115 161 OFFCURVE",
"299 144 OFFCURVE",
"299 64 CURVE SMOOTH",
"299 30 OFFCURVE",
"263 12 OFFCURVE",
"233 12 CURVE SMOOTH",
"184 12 OFFCURVE",
"150 37 OFFCURVE",
"113 77 CURVE SMOOTH",
"86 107 OFFCURVE",
"72 126 OFFCURVE",
"47 126 CURVE SMOOTH",
"27 126 OFFCURVE",
"18 116 OFFCURVE",
"13 99 CURVE"
);
},
{
closed = 1;
nodes = (
"519 668 OFFCURVE",
"507 677 OFFCURVE",
"499 678 CURVE SMOOTH",
"495 679 OFFCURVE",
"490 679 OFFCURVE",
"487 676 CURVE",
"472 670 OFFCURVE",
"377 607 OFFCURVE",
"359 602 CURVE SMOOTH",
"349 600 OFFCURVE",
"347 597 OFFCURVE",
"347 596 CURVE SMOOTH",
"347 594 OFFCURVE",
"350 592 OFFCURVE",
"354 591 CURVE SMOOTH",
"360 590 OFFCURVE",
"371 590 OFFCURVE",
"384 593 CURVE",
"422 596 OFFCURVE",
"535 647 OFFCURVE",
"533 659 CURVE SMOOTH",
"533 660 OFFCURVE",
"531 661 OFFCURVE",
"530 662 CURVE"
);
}
);
width = 408;
}
);
note = Sacute;
unicode = 015A;
},
{
color = 0;
glyphname = Scaron;
lastChange = "2021-05-17 19:56:03 +0000";
layers = (
{
hints = (
{
place = "{144, 40}";
type = Stem;
},
{
place = "{342, 48}";
type = Stem;
},
{
place = "{608, 32}";
type = Stem;
},
{
horizontal = 1;
place = "{492, 108}";
type = Stem;
},
{
place = "{286, 230}";
type = Stem;
}
);
layerId = "1C8B4FDB-B0E8-4411-8E26-068C67144FEF";
paths = (
{
closed = 1;
nodes = (
"38 95 OFFCURVE",
"96 -15 OFFCURVE",
"216 -15 CURVE SMOOTH",
"285 -15 OFFCURVE",
"349 18 OFFCURVE",
"349 88 CURVE SMOOTH",
"349 177 OFFCURVE",
"172 199 OFFCURVE",
"172 297 CURVE SMOOTH",
"172 378 OFFCURVE",
"303 501 OFFCURVE",
"382 501 CURVE SMOOTH",
"411 501 OFFCURVE",
"415 476 OFFCURVE",
"415 471 CURVE SMOOTH",
"415 416 OFFCURVE",
"345 377 OFFCURVE",
"345 316 CURVE SMOOTH",
"345 294 OFFCURVE",
"359 273 OFFCURVE",
"379 273 CURVE",
"379 329 OFFCURVE",
"450 388 OFFCURVE",
"450 437 CURVE SMOOTH",
"450 493 OFFCURVE",
"421 535 OFFCURVE",
"371 535 CURVE SMOOTH",
"256 535 OFFCURVE",
"115 424 OFFCURVE",
"115 290 CURVE SMOOTH",
"115 161 OFFCURVE",
"299 144 OFFCURVE",
"299 64 CURVE SMOOTH",
"299 30 OFFCURVE",
"263 12 OFFCURVE",
"233 12 CURVE SMOOTH",
"184 12 OFFCURVE",
"150 37 OFFCURVE",
"113 77 CURVE SMOOTH",
"86 107 OFFCURVE",
"72 126 OFFCURVE",
"47 126 CURVE SMOOTH",
"27 126 OFFCURVE",
"18 116 OFFCURVE",
"13 99 CURVE"
);
},
{
closed = 1;
nodes = (
"518 694 OFFCURVE",
"440 650 OFFCURVE",
"405 637 CURVE",
"398 650 OFFCURVE",
"361 701 OFFCURVE",
"307 701 CURVE",
"327 682 OFFCURVE",
"375 593 OFFCURVE",
"387 586 CURVE",
"433 615 OFFCURVE",
"549 667 OFFCURVE",
"549 719 CURVE"
);
}
);
width = 408;
}
);
note = Scaron;
unicode = 0160;
},
{
color = 0;
glyphname = Scedilla;
lastChange = "2021-05-17 19:56:03 +0000";
layers = (
{
hints = (
{
place = "{144, 40}";
type = Stem;
},
{
place = "{342, 48}";
type = Stem;
},
{
place = "{608, 32}";
type = Stem;
},
{
place = "{109, 31}";
type = Stem;
},
{
place = "{153, 36}";
type = Stem;
}
);
layerId = "1C8B4FDB-B0E8-4411-8E26-068C67144FEF";
paths = (
{
closed = 1;
nodes = (
"38 95 OFFCURVE",
"96 -15 OFFCURVE",
"216 -15 CURVE SMOOTH",
"285 -15 OFFCURVE",
"349 18 OFFCURVE",
"349 88 CURVE SMOOTH",
"349 177 OFFCURVE",
"172 199 OFFCURVE",
"172 297 CURVE SMOOTH",
"172 378 OFFCURVE",
"303 501 OFFCURVE",
"382 501 CURVE SMOOTH",
"411 501 OFFCURVE",
"415 476 OFFCURVE",
"415 471 CURVE SMOOTH",
"415 416 OFFCURVE",
"345 377 OFFCURVE",
"345 316 CURVE SMOOTH",
"345 294 OFFCURVE",
"359 273 OFFCURVE",
"379 273 CURVE",
"379 329 OFFCURVE",
"450 388 OFFCURVE",
"450 437 CURVE SMOOTH",
"450 493 OFFCURVE",
"421 535 OFFCURVE",
"371 535 CURVE SMOOTH",
"256 535 OFFCURVE",
"115 424 OFFCURVE",
"115 290 CURVE SMOOTH",
"115 161 OFFCURVE",
"299 144 OFFCURVE",
"299 64 CURVE SMOOTH",
"299 30 OFFCURVE",
"263 12 OFFCURVE",
"233 12 CURVE SMOOTH",
"184 12 OFFCURVE",
"150 37 OFFCURVE",
"113 77 CURVE SMOOTH",
"86 107 OFFCURVE",
"72 126 OFFCURVE",
"47 126 CURVE SMOOTH",
"27 126 OFFCURVE",
"18 116 OFFCURVE",
"13 99 CURVE"
);
},
{
closed = 1;
nodes = (
"171 -126 OFFCURVE",
"133 -103 OFFCURVE",
"141 -65 CURVE SMOOTH",
"146 -40 OFFCURVE",
"164 -14 OFFCURVE",
"189 -10 CURVE",
"189 -6 OFFCURVE",
"186 -4 OFFCURVE",
"180 -4 CURVE SMOOTH",
"141 -4 OFFCURVE",
"106 -53 OFFCURVE",
"99 -86 CURVE SMOOTH",
"92 -122 OFFCURVE",
"131 -144 OFFCURVE",
"125 -177 CURVE SMOOTH",
"113 -236 OFFCURVE",
"48 -235 OFFCURVE",
"10 -235 CURVE",
"20 -283 OFFCURVE",
"151 -229 OFFCURVE",
"163 -168 CURVE SMOOTH"
);
}
);
width = 408;
}
);
note = Scedilla;
unicode = 015E;
},
{
color = 0;
glyphname = Scircumflex;
lastChange = "2021-05-17 19:56:03 +0000";
layers = (
{
hints = (
{
place = "{144, 40}";
type = Stem;
},
{
place = "{342, 48}";
type = Stem;
},
{
place = "{608, 32}";
type = Stem;
},
{
horizontal = 1;
place = "{461, 108}";
type = Stem;
},
{
place = "{225, 231}";
type = Stem;
}
);
layerId = "1C8B4FDB-B0E8-4411-8E26-068C67144FEF";
paths = (
{
closed = 1;
nodes = (
"38 95 OFFCURVE",
"96 -15 OFFCURVE",
"216 -15 CURVE SMOOTH",
"285 -15 OFFCURVE",
"349 18 OFFCURVE",
"349 88 CURVE SMOOTH",
"349 177 OFFCURVE",
"172 199 OFFCURVE",
"172 297 CURVE SMOOTH",
"172 378 OFFCURVE",
"303 501 OFFCURVE",
"382 501 CURVE SMOOTH",
"411 501 OFFCURVE",
"415 476 OFFCURVE",
"415 471 CURVE SMOOTH",
"415 416 OFFCURVE",
"345 377 OFFCURVE",
"345 316 CURVE SMOOTH",
"345 294 OFFCURVE",
"359 273 OFFCURVE",
"379 273 CURVE",
"379 329 OFFCURVE",
"450 388 OFFCURVE",
"450 437 CURVE SMOOTH",
"450 493 OFFCURVE",
"421 535 OFFCURVE",
"371 535 CURVE SMOOTH",
"256 535 OFFCURVE",
"115 424 OFFCURVE",
"115 290 CURVE SMOOTH",
"115 161 OFFCURVE",
"299 144 OFFCURVE",
"299 64 CURVE SMOOTH",
"299 30 OFFCURVE",
"263 12 OFFCURVE",
"233 12 CURVE SMOOTH",
"184 12 OFFCURVE",
"150 37 OFFCURVE",
"113 77 CURVE SMOOTH",
"86 107 OFFCURVE",
"72 126 OFFCURVE",
"47 126 CURVE SMOOTH",
"27 126 OFFCURVE",
"18 116 OFFCURVE",
"13 99 CURVE"
);
},
{
closed = 1;
nodes = (
"301 603 OFFCURVE",
"378 647 OFFCURVE",
"413 659 CURVE",
"421 647 OFFCURVE",
"457 596 OFFCURVE",
"512 596 CURVE",
"491 615 OFFCURVE",
"444 704 OFFCURVE",
"432 710 CURVE",
"386 682 OFFCURVE",
"269 630 OFFCURVE",
"269 578 CURVE"
);
}
);
width = 408;
}
);
note = Scircumflex;
unicode = 015C;
},
{
color = 0;
glyphname = Schwa;
lastChange = "2021-05-17 19:56:03 +0000";
layers = (
{
hints = (
{
place = "{9, -28}";
type = Stem;
},
{
place = "{-131, -25}";
type = Stem;
}
);
layerId = "1C8B4FDB-B0E8-4411-8E26-068C67144FEF";
paths = (
{
closed = 1;
nodes = (
"221 277 OFFCURVE",
"22 209 OFFCURVE",
"22 79 CURVE SMOOTH",
"22 32 OFFCURVE",
"67 -9 OFFCURVE",
"144 -9 CURVE SMOOTH",
"324 -9 OFFCURVE",
"504 222 OFFCURVE",
"504 400 CURVE SMOOTH",
"504 486 OFFCURVE",
"463 552 OFFCURVE",
"352 552 CURVE SMOOTH",
"264 552 OFFCURVE",
"121 476 OFFCURVE",
"121 372 CURVE SMOOTH",
"121 358 OFFCURVE",
"125 347 OFFCURVE",
"133 342 CURVE",
"176 452 OFFCURVE",
"257 529 OFFCURVE",
"345 529 CURVE SMOOTH",
"419 529 OFFCURVE",
"441 484 OFFCURVE",
"441 420 CURVE SMOOTH",
"441 277 OFFCURVE",
"306 16 OFFCURVE",
"130 16 CURVE SMOOTH",
"92 16 OFFCURVE",
"75 40 OFFCURVE",
"75 71 CURVE SMOOTH",
"75 181 OFFCURVE",
"222 241 OFFCURVE",
"376 264 CURVE SMOOTH",
"394 267 OFFCURVE",
"411 261 OFFCURVE",
"426 261 CURVE SMOOTH",
"431 261 OFFCURVE",
"436 262 OFFCURVE",
"441 264 CURVE SMOOTH",
"452 270 OFFCURVE",
"454 275 OFFCURVE",
"454 280 CURVE SMOOTH",
"454 284 OFFCURVE",
"452 288 OFFCURVE",
"452 290 CURVE SMOOTH",
"452 292 OFFCURVE",
"448 293 OFFCURVE",
"440 293 CURVE SMOOTH",
"430 293 OFFCURVE",
"415 292 OFFCURVE",
"396 290 CURVE SMOOTH"
);
}
);
width = 524;
}
);
unicode = 018F;
},
{
color = 0;
glyphname = T;
lastChange = "2021-06-22 23:12:52 +0000";
layers = (
{
anchors = (
{
name = bottom;
position = "{52, 0}";
},
{
name = center;
position = "{150, 313}";
},
{
name = top;
position = "{328, 554}";
}
);
hints = (
{
place = "{10, 62}";
type = Stem;
},
{
place = "{254, 51}";
type = Stem;
},
{
place = "{330, 23}";
type = Stem;
},
{
place = "{941, 16}";
type = Stem;
},
{
place = "{274, 23}";
type = Stem;
}
);
layerId = "1C8B4FDB-B0E8-4411-8E26-068C67144FEF";
paths = (
{
closed = 1;
nodes = (
"235 286 OFFCURVE",
"324 433 OFFCURVE",
"324 475 CURVE SMOOTH",
"324 490 LINE",
"429 497 OFFCURVE",
"482 484 OFFCURVE",
"492 477 CURVE",
"492 502 OFFCURVE",
"490 534 OFFCURVE",
"441 534 CURVE SMOOTH",
"416 534 OFFCURVE",
"362 529 OFFCURVE",
"317 524 CURVE",
"312 530 OFFCURVE",
"306 535 OFFCURVE",
"295 535 CURVE",
"295 530 OFFCURVE",
"294 526 OFFCURVE",
"292 523 CURVE",
"281 522 OFFCURVE",
"271 521 OFFCURVE",
"264 521 CURVE SMOOTH",
"177 516 OFFCURVE",
"110 514 OFFCURVE",
"86 522 CURVE",
"86 498 OFFCURVE",
"95 473 OFFCURVE",
"150 473 CURVE SMOOTH",
"196 473 OFFCURVE",
"244 479 OFFCURVE",
"280 484 CURVE",
"245 394 OFFCURVE",
"174 287 OFFCURVE",
"111 184 CURVE SMOOTH",
"89 147 OFFCURVE",
"46 95 OFFCURVE",
"46 53 CURVE SMOOTH",
"46 14 OFFCURVE",
"57 -1 OFFCURVE",
"77 -12 CURVE",
"80 7 OFFCURVE",
"99 51 OFFCURVE",
"125 99 CURVE SMOOTH",
"149 146 OFFCURVE",
"178 197 OFFCURVE",
"203 235 CURVE SMOOTH"
);
}
);
width = 269;
}
);
note = T;
unicode = 0054;
},
{
color = 0;
glyphname = Tbar;
lastChange = "2021-05-17 19:56:03 +0000";
layers = (
{
hints = (
{
horizontal = 1;
place = "{-12, 21}";
target = up;
type = BottomGhost;
},
{
horizontal = 1;
place = "{356, 36}";
type = Stem;
},
{
horizontal = 1;
place = "{473, 44}";
type = Stem;
},
{
place = "{26, 31}";
type = Stem;
},
{
place = "{275, 29}";
type = Stem;
},
{
horizontal = 1;
place = "{490, 44}";
type = Stem;
},
{
horizontal = 1;
place = "{353, 35}";
type = Stem;
}
);
layerId = "1C8B4FDB-B0E8-4411-8E26-068C67144FEF";
paths = (
{
closed = 1;
nodes = (
"376 368 OFFCURVE",
"379 392 OFFCURVE",
"345 392 CURVE SMOOTH",
"325 392 OFFCURVE",
"299 391 OFFCURVE",
"271 390 CURVE",
"290 426 OFFCURVE",
"303 458 OFFCURVE",
"304 475 CURVE SMOOTH",
"304 490 LINE",
"409 497 OFFCURVE",
"462 484 OFFCURVE",
"472 477 CURVE",
"472 502 OFFCURVE",
"470 534 OFFCURVE",
"421 534 CURVE SMOOTH",
"396 534 OFFCURVE",
"342 529 OFFCURVE",
"297 524 CURVE",
"292 530 OFFCURVE",
"286 535 OFFCURVE",
"275 535 CURVE",
"275 530 OFFCURVE",
"274 526 OFFCURVE",
"272 523 CURVE",
"261 522 OFFCURVE",
"251 521 OFFCURVE",
"244 521 CURVE SMOOTH",
"157 516 OFFCURVE",
"90 514 OFFCURVE",
"66 522 CURVE",
"66 498 OFFCURVE",
"75 473 OFFCURVE",
"130 473 CURVE SMOOTH",
"176 473 OFFCURVE",
"224 479 OFFCURVE",
"260 484 CURVE",
"248 453 OFFCURVE",
"232 421 OFFCURVE",
"214 388 CURVE",
"166 386 OFFCURVE",
"119 386 OFFCURVE",
"95 392 CURVE",
"95 376 OFFCURVE",
"87 353 OFFCURVE",
"127 353 CURVE SMOOTH",
"141 353 OFFCURVE",
"167 353 OFFCURVE",
"195 354 CURVE",
"163 298 OFFCURVE",
"126 241 OFFCURVE",
"91 184 CURVE SMOOTH",
"69 147 OFFCURVE",
"26 95 OFFCURVE",
"26 53 CURVE SMOOTH",
"26 14 OFFCURVE",
"37 -1 OFFCURVE",
"57 -12 CURVE",
"60 7 OFFCURVE",
"79 51 OFFCURVE",
"105 99 CURVE SMOOTH",
"129 146 OFFCURVE",
"158 197 OFFCURVE",
"183 235 CURVE SMOOTH",
"198 260 OFFCURVE",
"227 308 OFFCURVE",
"253 356 CURVE",
"307 357 OFFCURVE",
"360 356 OFFCURVE",
"376 352 CURVE"
);
}
);
width = 259;
}
);
note = Tbar;
unicode = 0166;
},
{
color = 0;
glyphname = Tcaron;
lastChange = "2021-05-17 19:56:03 +0000";
layers = (
{
hints = (
{
place = "{10, 62}";
type = Stem;
},
{
place = "{254, 51}";
type = Stem;
},
{
place = "{330, 23}";
type = Stem;
},
{
place = "{941, 16}";
type = Stem;
},
{
place = "{274, 23}";
type = Stem;
},
{
horizontal = 1;
place = "{487, 108}";
type = Stem;
},
{
place = "{207, 231}";
type = Stem;
}
);
layerId = "1C8B4FDB-B0E8-4411-8E26-068C67144FEF";
paths = (
{
closed = 1;
nodes = (
"215 286 OFFCURVE",
"303 433 OFFCURVE",
"304 475 CURVE SMOOTH",
"304 490 LINE",
"409 497 OFFCURVE",
"462 484 OFFCURVE",
"472 477 CURVE",
"472 502 OFFCURVE",
"470 534 OFFCURVE",
"421 534 CURVE SMOOTH",
"396 534 OFFCURVE",
"342 529 OFFCURVE",
"297 524 CURVE",
"292 530 OFFCURVE",
"286 535 OFFCURVE",
"275 535 CURVE",
"275 530 OFFCURVE",
"274 526 OFFCURVE",
"272 523 CURVE",
"261 522 OFFCURVE",
"251 521 OFFCURVE",
"244 521 CURVE SMOOTH",
"157 516 OFFCURVE",
"90 514 OFFCURVE",
"66 522 CURVE",
"66 498 OFFCURVE",
"75 473 OFFCURVE",
"130 473 CURVE SMOOTH",
"176 473 OFFCURVE",
"224 479 OFFCURVE",
"260 484 CURVE",
"225 394 OFFCURVE",
"154 287 OFFCURVE",
"91 184 CURVE SMOOTH",
"69 147 OFFCURVE",
"26 95 OFFCURVE",
"26 53 CURVE SMOOTH",
"26 14 OFFCURVE",
"37 -1 OFFCURVE",
"57 -12 CURVE",
"60 7 OFFCURVE",
"79 51 OFFCURVE",
"105 99 CURVE SMOOTH",
"129 146 OFFCURVE",
"158 197 OFFCURVE",
"183 235 CURVE SMOOTH"
);
},
{
closed = 1;
nodes = (
"439 689 OFFCURVE",
"362 646 OFFCURVE",
"327 633 CURVE",
"319 646 OFFCURVE",
"283 697 OFFCURVE",
"228 697 CURVE",
"249 677 OFFCURVE",
"296 589 OFFCURVE",
"308 582 CURVE",
"354 610 OFFCURVE",
"471 663 OFFCURVE",
"471 714 CURVE"
);
}
);
width = 259;
}
);
note = Tcaron;
unicode = 0164;
},
{
color = 1;
glyphname = Tcedilla;
lastChange = "2021-06-22 23:17:50 +0000";
layers = (
{
background = {
paths = (
{
closed = 1;
nodes = (
"215 286 OFFCURVE",
"303 433 OFFCURVE",
"304 475 CURVE SMOOTH",
"304 490 LINE",
"409 497 OFFCURVE",
"462 484 OFFCURVE",
"472 477 CURVE",
"472 502 OFFCURVE",
"470 534 OFFCURVE",
"421 534 CURVE SMOOTH",
"396 534 OFFCURVE",
"342 529 OFFCURVE",
"297 524 CURVE",
"292 530 OFFCURVE",
"286 535 OFFCURVE",
"275 535 CURVE",
"275 530 OFFCURVE",
"274 526 OFFCURVE",
"272 523 CURVE",
"261 522 OFFCURVE",
"251 521 OFFCURVE",
"244 521 CURVE SMOOTH",
"157 516 OFFCURVE",
"90 514 OFFCURVE",
"66 522 CURVE",
"66 498 OFFCURVE",
"75 473 OFFCURVE",
"130 473 CURVE SMOOTH",
"176 473 OFFCURVE",
"224 479 OFFCURVE",
"260 484 CURVE",
"225 394 OFFCURVE",
"154 287 OFFCURVE",
"91 184 CURVE SMOOTH",
"69 147 OFFCURVE",
"26 95 OFFCURVE",
"26 53 CURVE SMOOTH",
"26 14 OFFCURVE",
"37 -1 OFFCURVE",
"57 -12 CURVE",
"60 7 OFFCURVE",
"79 51 OFFCURVE",
"105 99 CURVE SMOOTH",
"129 146 OFFCURVE",
"158 197 OFFCURVE",
"183 235 CURVE SMOOTH"
);
},
{
closed = 1;
nodes = (
"215 286 OFFCURVE",
"303 433 OFFCURVE",
"304 475 CURVE SMOOTH",
"304 490 LINE",
"409 497 OFFCURVE",
"462 484 OFFCURVE",
"472 477 CURVE",
"472 502 OFFCURVE",
"470 534 OFFCURVE",
"421 534 CURVE SMOOTH",
"396 534 OFFCURVE",
"342 529 OFFCURVE",
"297 524 CURVE",
"292 530 OFFCURVE",
"286 535 OFFCURVE",
"275 535 CURVE",
"275 530 OFFCURVE",
"274 526 OFFCURVE",
"272 523 CURVE",
"261 522 OFFCURVE",
"251 521 OFFCURVE",
"244 521 CURVE SMOOTH",
"157 516 OFFCURVE",
"90 514 OFFCURVE",
"66 522 CURVE",
"66 498 OFFCURVE",
"75 473 OFFCURVE",
"130 473 CURVE SMOOTH",
"176 473 OFFCURVE",
"224 479 OFFCURVE",
"260 484 CURVE",
"225 394 OFFCURVE",
"154 287 OFFCURVE",
"91 184 CURVE SMOOTH",
"69 147 OFFCURVE",
"26 95 OFFCURVE",
"26 53 CURVE SMOOTH",
"26 14 OFFCURVE",
"37 -1 OFFCURVE",
"57 -12 CURVE",
"60 7 OFFCURVE",
"79 51 OFFCURVE",
"105 99 CURVE SMOOTH",
"129 146 OFFCURVE",
"158 197 OFFCURVE",
"183 235 CURVE SMOOTH"
);
},
{
closed = 1;
nodes = (
"-28 -109 OFFCURVE",
"-50 -140 OFFCURVE",
"-75 -165 CURVE SMOOTH",
"-108 -203 LINE SMOOTH",
"-110 -205 OFFCURVE",
"-110 -212 OFFCURVE",
"-99 -207 CURVE SMOOTH",
"-96 -205 OFFCURVE",
"-93 -196 OFFCURVE",
"-87 -193 CURVE SMOOTH",
"-48 -172 OFFCURVE",
"4 -148 OFFCURVE",
"17 -108 CURVE SMOOTH",
"26 -83 OFFCURVE",
"20 -61 OFFCURVE",
"4 -49 CURVE SMOOTH",
"-7 -42 OFFCURVE",
"-24 -37 OFFCURVE",
"-15 -49 CURVE SMOOTH",
"-11 -56 OFFCURVE",
"-13 -69 OFFCURVE",
"-15 -78 CURVE"
);
}
);
};
components = (
{
name = Tcommaaccent;
}
);
hints = (
{
place = "{10, 62}";
type = Stem;
},
{
place = "{254, 51}";
type = Stem;
},
{
place = "{330, 23}";
type = Stem;
},
{
place = "{941, 16}";
type = Stem;
},
{
place = "{274, 23}";
type = Stem;
},
{
place = "{21, 40}";
type = Stem;
}
);
layerId = "1C8B4FDB-B0E8-4411-8E26-068C67144FEF";
width = 269;
}
);
note = uni021A;
unicode = 0162;
},
{
color = 0;
glyphname = U;
lastChange = "2021-05-17 19:56:03 +0000";
layers = (
{
hints = (
{
place = "{48, 10}";
type = Stem;
},
{
place = "{215, 61}";
type = Stem;
},
{
place = "{502, 23}";
type = Stem;
},
{
place = "{537, 32}";
type = Stem;
},
{
place = "{741, 14}";
type = Stem;
}
);
layerId = "1C8B4FDB-B0E8-4411-8E26-068C67144FEF";
paths = (
{
closed = 1;
nodes = (
"544 437 OFFCURVE",
"546 467 OFFCURVE",
"546 490 CURVE SMOOTH",
"546 512 OFFCURVE",
"534 546 OFFCURVE",
"507 535 CURVE",
"507 521 OFFCURVE",
"503 494 OFFCURVE",
"467 416 CURVE SMOOTH",
"411 293 OFFCURVE",
"286 18 OFFCURVE",
"163 18 CURVE SMOOTH",
"111 18 OFFCURVE",
"95 48 OFFCURVE",
"95 89 CURVE SMOOTH",
"95 190 OFFCURVE",
"186 305 OFFCURVE",
"234 385 CURVE SMOOTH",
"258 427 OFFCURVE",
"276 466 OFFCURVE",
"276 499 CURVE SMOOTH",
"276 512 OFFCURVE",
"264 543 OFFCURVE",
"237 532 CURVE",
"237 491 OFFCURVE",
"117 313 OFFCURVE",
"63 190 CURVE SMOOTH",
"25 105 OFFCURVE",
"42 -5 OFFCURVE",
"178 -5 CURVE SMOOTH",
"245 -5 OFFCURVE",
"299 34 OFFCURVE",
"340 82 CURVE SMOOTH",
"385 134 OFFCURVE",
"450 237 OFFCURVE",
"492 326 CURVE SMOOTH"
);
}
);
width = 454;
}
);
note = U;
unicode = 0055;
},
{
color = 0;
glyphname = Uacute;
lastChange = "2021-05-17 19:56:03 +0000";
layers = (
{
hints = (
{
place = "{48, 10}";
type = Stem;
},
{
place = "{215, 61}";
type = Stem;
},
{
place = "{502, 23}";
type = Stem;
},
{
place = "{537, 32}";
type = Stem;
},
{
place = "{741, 14}";
type = Stem;
},
{
horizontal = 1;
place = "{630, 118}";
type = Stem;
},
{
place = "{339, 157}";
type = Stem;
}
);
layerId = "1C8B4FDB-B0E8-4411-8E26-068C67144FEF";
paths = (
{
closed = 1;
nodes = (
"544 437 OFFCURVE",
"546 467 OFFCURVE",
"546 490 CURVE SMOOTH",
"546 512 OFFCURVE",
"534 546 OFFCURVE",
"507 535 CURVE",
"507 521 OFFCURVE",
"503 494 OFFCURVE",
"467 416 CURVE SMOOTH",
"411 293 OFFCURVE",
"286 18 OFFCURVE",
"163 18 CURVE SMOOTH",
"111 18 OFFCURVE",
"95 48 OFFCURVE",
"95 89 CURVE SMOOTH",
"95 190 OFFCURVE",
"186 305 OFFCURVE",
"234 385 CURVE SMOOTH",
"258 427 OFFCURVE",
"276 466 OFFCURVE",
"276 499 CURVE SMOOTH",
"276 512 OFFCURVE",
"264 543 OFFCURVE",
"237 532 CURVE",
"237 491 OFFCURVE",
"117 313 OFFCURVE",
"63 190 CURVE SMOOTH",
"25 105 OFFCURVE",
"42 -5 OFFCURVE",
"178 -5 CURVE SMOOTH",
"245 -5 OFFCURVE",
"299 34 OFFCURVE",
"340 82 CURVE SMOOTH",
"385 134 OFFCURVE",
"450 237 OFFCURVE",
"492 326 CURVE SMOOTH"
);
},
{
closed = 1;
nodes = (
"505 711 OFFCURVE",
"493 720 OFFCURVE",
"485 721 CURVE SMOOTH",
"481 722 OFFCURVE",
"476 722 OFFCURVE",
"473 719 CURVE",
"458 713 OFFCURVE",
"363 650 OFFCURVE",
"345 645 CURVE SMOOTH",
"335 643 OFFCURVE",
"333 640 OFFCURVE",
"333 639 CURVE SMOOTH",
"333 637 OFFCURVE",
"336 635 OFFCURVE",
"340 634 CURVE SMOOTH",
"346 633 OFFCURVE",
"357 633 OFFCURVE",
"370 636 CURVE",
"408 639 OFFCURVE",
"521 690 OFFCURVE",
"519 702 CURVE SMOOTH",
"519 703 OFFCURVE",
"517 704 OFFCURVE",
"516 705 CURVE"
);
}
);
width = 423;
}
);
note = Uacute;
unicode = 00DA;
},
{
color = 0;
glyphname = Ubreve;
lastChange = "2021-05-17 19:56:03 +0000";
layers = (
{
hints = (
{
place = "{48, 10}";
type = Stem;
},
{
place = "{215, 61}";
type = Stem;
},
{
place = "{502, 23}";
type = Stem;
},
{
place = "{537, 32}";
type = Stem;
},
{
place = "{741, 14}";
type = Stem;
},
{
horizontal = 1;
place = "{501, 19}";
type = Stem;
}
);
layerId = "1C8B4FDB-B0E8-4411-8E26-068C67144FEF";
paths = (
{
closed = 1;
nodes = (
"544 437 OFFCURVE",
"546 467 OFFCURVE",
"546 490 CURVE SMOOTH",
"546 512 OFFCURVE",
"534 546 OFFCURVE",
"507 535 CURVE",
"507 521 OFFCURVE",
"503 494 OFFCURVE",
"467 416 CURVE SMOOTH",
"411 293 OFFCURVE",
"286 18 OFFCURVE",
"163 18 CURVE SMOOTH",
"111 18 OFFCURVE",
"95 48 OFFCURVE",
"95 89 CURVE SMOOTH",
"95 190 OFFCURVE",
"186 305 OFFCURVE",
"234 385 CURVE SMOOTH",
"258 427 OFFCURVE",
"276 466 OFFCURVE",
"276 499 CURVE SMOOTH",
"276 512 OFFCURVE",
"264 543 OFFCURVE",
"237 532 CURVE",
"237 491 OFFCURVE",
"117 313 OFFCURVE",
"63 190 CURVE SMOOTH",
"25 105 OFFCURVE",
"42 -5 OFFCURVE",
"178 -5 CURVE SMOOTH",
"245 -5 OFFCURVE",
"299 34 OFFCURVE",
"340 82 CURVE SMOOTH",
"385 134 OFFCURVE",
"450 237 OFFCURVE",
"492 326 CURVE SMOOTH"
);
},
{
closed = 1;
nodes = (
"464 612 OFFCURVE",
"380 618 OFFCURVE",
"373 666 CURVE SMOOTH",
"371 679 OFFCURVE",
"360 674 OFFCURVE",
"356 662 CURVE SMOOTH",
"341 624 OFFCURVE",
"368 596 OFFCURVE",
"409 596 CURVE SMOOTH",
"453 596 OFFCURVE",
"509 629 OFFCURVE",
"523 669 CURVE SMOOTH",
"525 676 OFFCURVE",
"516 679 OFFCURVE",
"509 670 CURVE SMOOTH"
);
}
);
width = 454;
}
);
note = Ubreve;
unicode = 016C;
},
{
color = 0;
glyphname = Ucircumflex;
lastChange = "2021-05-17 19:56:03 +0000";
layers = (
{
hints = (
{
place = "{48, 10}";
type = Stem;
},
{
place = "{215, 61}";
type = Stem;
},
{
place = "{502, 23}";
type = Stem;
},
{
place = "{537, 32}";
type = Stem;
},
{
place = "{741, 14}";
type = Stem;
},
{
horizontal = 1;
place = "{473, 108}";
type = Stem;
},
{
place = "{239, 231}";
type = Stem;
}
);
layerId = "1C8B4FDB-B0E8-4411-8E26-068C67144FEF";
paths = (
{
closed = 1;
nodes = (
"544 437 OFFCURVE",
"546 467 OFFCURVE",
"546 490 CURVE SMOOTH",
"546 512 OFFCURVE",
"534 546 OFFCURVE",
"507 535 CURVE",
"507 521 OFFCURVE",
"503 494 OFFCURVE",
"467 416 CURVE SMOOTH",
"411 293 OFFCURVE",
"286 18 OFFCURVE",
"163 18 CURVE SMOOTH",
"111 18 OFFCURVE",
"95 48 OFFCURVE",
"95 89 CURVE SMOOTH",
"95 190 OFFCURVE",
"186 305 OFFCURVE",
"234 385 CURVE SMOOTH",
"258 427 OFFCURVE",
"276 466 OFFCURVE",
"276 499 CURVE SMOOTH",
"276 512 OFFCURVE",
"264 543 OFFCURVE",
"237 532 CURVE",
"237 491 OFFCURVE",
"117 313 OFFCURVE",
"63 190 CURVE SMOOTH",
"25 105 OFFCURVE",
"42 -5 OFFCURVE",
"178 -5 CURVE SMOOTH",
"245 -5 OFFCURVE",
"299 34 OFFCURVE",
"340 82 CURVE SMOOTH",
"385 134 OFFCURVE",
"450 237 OFFCURVE",
"492 326 CURVE SMOOTH"
);
},
{
closed = 1;
nodes = (
"315 615 OFFCURVE",
"392 659 OFFCURVE",
"427 671 CURVE",
"435 659 OFFCURVE",
"471 608 OFFCURVE",
"526 608 CURVE",
"505 627 OFFCURVE",
"458 716 OFFCURVE",
"446 722 CURVE",
"400 694 OFFCURVE",
"283 642 OFFCURVE",
"283 590 CURVE"
);
}
);
width = 423;
}
);
note = Ucircumflex;
unicode = 00DB;
},
{
color = 0;
glyphname = Udieresis;
lastChange = "2021-05-17 19:56:03 +0000";
layers = (
{
hints = (
{
place = "{48, 10}";
type = Stem;
},
{
place = "{215, 61}";
type = Stem;
},
{
place = "{502, 23}";
type = Stem;
},
{
place = "{537, 32}";
type = Stem;
},
{
place = "{741, 14}";
type = Stem;
},
{
place = "{339, 75}";
type = Stem;
},
{
place = "{459, 75}";
type = Stem;
}
);
layerId = "1C8B4FDB-B0E8-4411-8E26-068C67144FEF";
paths = (
{
closed = 1;
nodes = (
"544 437 OFFCURVE",
"546 467 OFFCURVE",
"546 490 CURVE SMOOTH",
"546 512 OFFCURVE",
"534 546 OFFCURVE",
"507 535 CURVE",
"507 521 OFFCURVE",
"503 494 OFFCURVE",
"467 416 CURVE SMOOTH",
"411 293 OFFCURVE",
"286 18 OFFCURVE",
"163 18 CURVE SMOOTH",
"111 18 OFFCURVE",
"95 48 OFFCURVE",
"95 89 CURVE SMOOTH",
"95 190 OFFCURVE",
"186 305 OFFCURVE",
"234 385 CURVE SMOOTH",
"258 427 OFFCURVE",
"276 466 OFFCURVE",
"276 499 CURVE SMOOTH",
"276 512 OFFCURVE",
"264 543 OFFCURVE",
"237 532 CURVE",
"237 491 OFFCURVE",
"117 313 OFFCURVE",
"63 190 CURVE SMOOTH",
"25 105 OFFCURVE",
"42 -5 OFFCURVE",
"178 -5 CURVE SMOOTH",
"245 -5 OFFCURVE",
"299 34 OFFCURVE",
"340 82 CURVE SMOOTH",
"385 134 OFFCURVE",
"450 237 OFFCURVE",
"492 326 CURVE SMOOTH"
);
},
{
closed = 1;
nodes = (
"399 699 OFFCURVE",
"395 703 OFFCURVE",
"391 701 CURVE SMOOTH",
"381 694 OFFCURVE",
"374 692 OFFCURVE",
"364 687 CURVE SMOOTH",
"352 682 OFFCURVE",
"342 675 OFFCURVE",
"333 667 CURVE SMOOTH",
"327 662 OFFCURVE",
"318 649 OFFCURVE",
"325 638 CURVE",
"329 629 OFFCURVE",
"335 621 OFFCURVE",
"347 619 CURVE SMOOTH",
"385 613 OFFCURVE",
"384 676 OFFCURVE",
"397 696 CURVE SMOOTH"
);
},
{
closed = 1;
nodes = (
"519 699 OFFCURVE",
"515 703 OFFCURVE",
"511 701 CURVE SMOOTH",
"501 694 OFFCURVE",
"494 692 OFFCURVE",
"484 687 CURVE SMOOTH",
"472 682 OFFCURVE",
"462 675 OFFCURVE",
"452 667 CURVE SMOOTH",
"446 662 OFFCURVE",
"438 649 OFFCURVE",
"445 638 CURVE",
"449 629 OFFCURVE",
"455 621 OFFCURVE",
"467 619 CURVE SMOOTH",
"505 613 OFFCURVE",
"503 676 OFFCURVE",
"517 696 CURVE SMOOTH"
);
}
);
width = 423;
}
);
note = Udieresis;
unicode = 00DC;
},
{
color = 0;
glyphname = Ugrave;
lastChange = "2021-05-17 19:56:03 +0000";
layers = (
{
hints = (
{
horizontal = 1;
place = "{587, 118}";
type = Stem;
},
{
horizontal = 1;
place = "{610, 118}";
type = Stem;
},
{
place = "{48, 10}";
type = Stem;
},
{
place = "{215, 61}";
type = Stem;
},
{
place = "{339, 157}";
type = Stem;
},
{
place = "{502, 23}";
type = Stem;
},
{
place = "{522, 157}";
type = Stem;
},
{
place = "{537, 32}";
type = Stem;
},
{
place = "{741, 14}";
type = Stem;
}
);
layerId = "1C8B4FDB-B0E8-4411-8E26-068C67144FEF";
paths = (
{
closed = 1;
nodes = (
"544 437 OFFCURVE",
"546 467 OFFCURVE",
"546 490 CURVE SMOOTH",
"546 512 OFFCURVE",
"534 546 OFFCURVE",
"507 535 CURVE",
"507 521 OFFCURVE",
"503 494 OFFCURVE",
"467 416 CURVE SMOOTH",
"411 293 OFFCURVE",
"286 18 OFFCURVE",
"163 18 CURVE SMOOTH",
"111 18 OFFCURVE",
"95 48 OFFCURVE",
"95 89 CURVE SMOOTH",
"95 190 OFFCURVE",
"186 305 OFFCURVE",
"234 385 CURVE SMOOTH",
"258 427 OFFCURVE",
"276 466 OFFCURVE",
"276 499 CURVE SMOOTH",
"276 512 OFFCURVE",
"264 543 OFFCURVE",
"237 532 CURVE",
"237 491 OFFCURVE",
"117 313 OFFCURVE",
"63 190 CURVE SMOOTH",
"25 105 OFFCURVE",
"42 -5 OFFCURVE",
"178 -5 CURVE SMOOTH",
"245 -5 OFFCURVE",
"299 34 OFFCURVE",
"340 82 CURVE SMOOTH",
"385 134 OFFCURVE",
"450 237 OFFCURVE",
"492 326 CURVE SMOOTH"
);
},
{
closed = 1;
nodes = (
"334 709 OFFCURVE",
"333 708 OFFCURVE",
"333 707 CURVE",
"328 696 OFFCURVE",
"432 629 OFFCURVE",
"469 619 CURVE SMOOTH",
"482 615 OFFCURVE",
"493 613 OFFCURVE",
"499 613 CURVE SMOOTH",
"503 613 OFFCURVE",
"506 614 OFFCURVE",
"507 616 CURVE",
"507 618 OFFCURVE",
"505 621 OFFCURVE",
"495 625 CURVE SMOOTH",
"479 632 OFFCURVE",
"394 709 OFFCURVE",
"380 717 CURVE",
"378 720 OFFCURVE",
"373 721 OFFCURVE",
"369 721 CURVE SMOOTH",
"360 721 OFFCURVE",
"347 713 OFFCURVE",
"335 709 CURVE"
);
}
);
width = 423;
}
);
note = Ugrave;
unicode = 00D9;
},
{
color = 0;
glyphname = Uhungarumlaut;
lastChange = "2021-05-17 19:56:03 +0000";
layers = (
{
hints = (
{
horizontal = 1;
place = "{539, 105}";
type = Stem;
},
{
place = "{48, 10}";
type = Stem;
},
{
place = "{215, 61}";
type = Stem;
},
{
place = "{331, 152}";
type = Stem;
},
{
place = "{477, 41}";
type = Stem;
},
{
place = "{502, 23}";
type = Stem;
},
{
place = "{537, 32}";
type = Stem;
},
{
place = "{741, 14}";
type = Stem;
}
);
layerId = "1C8B4FDB-B0E8-4411-8E26-068C67144FEF";
paths = (
{
closed = 1;
nodes = (
"544 437 OFFCURVE",
"546 467 OFFCURVE",
"546 490 CURVE SMOOTH",
"546 512 OFFCURVE",
"534 546 OFFCURVE",
"507 535 CURVE",
"507 521 OFFCURVE",
"503 494 OFFCURVE",
"467 416 CURVE SMOOTH",
"411 293 OFFCURVE",
"286 18 OFFCURVE",
"163 18 CURVE SMOOTH",
"111 18 OFFCURVE",
"95 48 OFFCURVE",
"95 89 CURVE SMOOTH",
"95 190 OFFCURVE",
"186 305 OFFCURVE",
"234 385 CURVE SMOOTH",
"258 427 OFFCURVE",
"276 466 OFFCURVE",
"276 499 CURVE SMOOTH",
"276 512 OFFCURVE",
"264 543 OFFCURVE",
"237 532 CURVE",
"237 491 OFFCURVE",
"117 313 OFFCURVE",
"63 190 CURVE SMOOTH",
"25 105 OFFCURVE",
"42 -5 OFFCURVE",
"178 -5 CURVE SMOOTH",
"245 -5 OFFCURVE",
"299 34 OFFCURVE",
"340 82 CURVE SMOOTH",
"385 134 OFFCURVE",
"450 237 OFFCURVE",
"492 326 CURVE SMOOTH"
);
},
{
closed = 1;
nodes = (
"443 638 OFFCURVE",
"438 587 OFFCURVE",
"436 566 CURVE SMOOTH",
"435 558 OFFCURVE",
"449 562 OFFCURVE",
"449 564 CURVE",
"464 595 OFFCURVE",
"480 627 OFFCURVE",
"485 643 CURVE SMOOTH",
"498 680 OFFCURVE",
"471 697 OFFCURVE",
"455 664 CURVE SMOOTH"
);
},
{
closed = 1;
nodes = (
"366 638 OFFCURVE",
"360 587 OFFCURVE",
"358 566 CURVE SMOOTH",
"358 558 OFFCURVE",
"371 562 OFFCURVE",
"372 564 CURVE SMOOTH",
"387 595 OFFCURVE",
"403 627 OFFCURVE",
"408 643 CURVE SMOOTH",
"421 680 OFFCURVE",
"393 697 OFFCURVE",
"378 664 CURVE SMOOTH"
);
}
);
width = 454;
}
);
note = Uhungarumlaut;
unicode = 0170;
},
{
color = 0;
glyphname = Umacron;
lastChange = "2021-05-17 19:56:03 +0000";
layers = (
{
hints = (
{
place = "{48, 10}";
type = Stem;
},
{
place = "{215, 61}";
type = Stem;
},
{
place = "{502, 23}";
type = Stem;
},
{
place = "{537, 32}";
type = Stem;
},
{
place = "{741, 14}";
type = Stem;
},
{
horizontal = 1;
place = "{520, 22}";
type = Stem;
},
{
place = "{312, 169}";
type = Stem;
}
);
layerId = "1C8B4FDB-B0E8-4411-8E26-068C67144FEF";
paths = (
{
closed = 1;
nodes = (
"544 437 OFFCURVE",
"546 467 OFFCURVE",
"546 490 CURVE SMOOTH",
"546 512 OFFCURVE",
"534 546 OFFCURVE",
"507 535 CURVE",
"507 521 OFFCURVE",
"503 494 OFFCURVE",
"467 416 CURVE SMOOTH",
"411 293 OFFCURVE",
"286 18 OFFCURVE",
"163 18 CURVE SMOOTH",
"111 18 OFFCURVE",
"95 48 OFFCURVE",
"95 89 CURVE SMOOTH",
"95 190 OFFCURVE",
"186 305 OFFCURVE",
"234 385 CURVE SMOOTH",
"258 427 OFFCURVE",
"276 466 OFFCURVE",
"276 499 CURVE SMOOTH",
"276 512 OFFCURVE",
"264 543 OFFCURVE",
"237 532 CURVE",
"237 491 OFFCURVE",
"117 313 OFFCURVE",
"63 190 CURVE SMOOTH",
"25 105 OFFCURVE",
"42 -5 OFFCURVE",
"178 -5 CURVE SMOOTH",
"245 -5 OFFCURVE",
"299 34 OFFCURVE",
"340 82 CURVE SMOOTH",
"385 134 OFFCURVE",
"450 237 OFFCURVE",
"492 326 CURVE SMOOTH"
);
},
{
closed = 1;
nodes = (
"511 616 OFFCURVE",
"513 640 OFFCURVE",
"490 640 CURVE SMOOTH",
"445 640 OFFCURVE",
"354 630 OFFCURVE",
"320 640 CURVE",
"320 624 OFFCURVE",
"315 600 OFFCURVE",
"342 600 CURVE SMOOTH",
"376 600 OFFCURVE",
"490 609 OFFCURVE",
"511 599 CURVE"
);
}
);
width = 454;
}
);
note = Umacron;
unicode = 016A;
},
{
color = 0;
glyphname = Uogonek;
lastChange = "2021-05-17 19:56:03 +0000";
layers = (
{
hints = (
{
place = "{48, 10}";
type = Stem;
},
{
place = "{215, 61}";
type = Stem;
},
{
place = "{502, 23}";
type = Stem;
},
{
place = "{537, 32}";
type = Stem;
},
{
place = "{741, 14}";
type = Stem;
},
{
horizontal = 1;
place = "{-137, 24}";
type = Stem;
},
{
horizontal = 1;
place = "{-5, 34}";
type = Stem;
},
{
horizontal = 1;
place = "{300, 9}";
type = Stem;
},
{
place = "{96, 27}";
type = Stem;
},
{
horizontal = 1;
place = "{-26, 21}";
target = up;
type = BottomGhost;
},
{
place = "{60, 342}";
type = Stem;
}
);
layerId = "1C8B4FDB-B0E8-4411-8E26-068C67144FEF";
paths = (
{
closed = 1;
nodes = (
"544 437 OFFCURVE",
"546 467 OFFCURVE",
"546 490 CURVE SMOOTH",
"546 512 OFFCURVE",
"534 546 OFFCURVE",
"507 535 CURVE",
"507 521 OFFCURVE",
"503 494 OFFCURVE",
"467 416 CURVE SMOOTH",
"411 293 OFFCURVE",
"286 18 OFFCURVE",
"163 18 CURVE SMOOTH",
"111 18 OFFCURVE",
"95 48 OFFCURVE",
"95 89 CURVE SMOOTH",
"95 190 OFFCURVE",
"186 305 OFFCURVE",
"234 385 CURVE SMOOTH",
"258 427 OFFCURVE",
"276 466 OFFCURVE",
"276 499 CURVE SMOOTH",
"276 512 OFFCURVE",
"264 543 OFFCURVE",
"237 532 CURVE",
"237 491 OFFCURVE",
"117 313 OFFCURVE",
"63 190 CURVE SMOOTH",
"25 105 OFFCURVE",
"42 -5 OFFCURVE",
"178 -5 CURVE SMOOTH",
"245 -5 OFFCURVE",
"299 34 OFFCURVE",
"340 82 CURVE SMOOTH",
"385 134 OFFCURVE",
"450 237 OFFCURVE",
"492 326 CURVE SMOOTH"
);
},
{
closed = 1;
nodes = (
"145 -186 OFFCURVE",
"171 -177 OFFCURVE",
"195 -162 CURVE SMOOTH",
"210 -152 OFFCURVE",
"236 -133 OFFCURVE",
"251 -119 CURVE SMOOTH",
"257 -113 OFFCURVE",
"268 -92 OFFCURVE",
"259 -81 CURVE",
"232 -105 OFFCURVE",
"184 -141 OFFCURVE",
"154 -147 CURVE SMOOTH",
"112 -158 OFFCURVE",
"108 -130 OFFCURVE",
"126 -90 CURVE SMOOTH",
"148 -39 OFFCURVE",
"162 -14 OFFCURVE",
"163 -11 CURVE SMOOTH",
"171 5 OFFCURVE",
"150 4 OFFCURVE",
"140 -5 CURVE SMOOTH",
"105 -34 OFFCURVE",
"14 -186 OFFCURVE",
"123 -186 CURVE SMOOTH"
);
}
);
width = 454;
}
);
note = Uogonek;
unicode = 0172;
},
{
color = 0;
glyphname = Uring;
lastChange = "2021-05-17 19:56:03 +0000";
layers = (
{
hints = (
{
place = "{48, 10}";
type = Stem;
},
{
place = "{215, 61}";
type = Stem;
},
{
place = "{502, 23}";
type = Stem;
},
{
place = "{537, 32}";
type = Stem;
},
{
place = "{741, 14}";
type = Stem;
},
{
horizontal = 1;
place = "{586, 16}";
type = Stem;
},
{
horizontal = 1;
place = "{695, 15}";
type = Stem;
},
{
place = "{376, 31}";
type = Stem;
},
{
place = "{468, 21}";
type = Stem;
}
);
layerId = "1C8B4FDB-B0E8-4411-8E26-068C67144FEF";
paths = (
{
closed = 1;
nodes = (
"544 437 OFFCURVE",
"546 467 OFFCURVE",
"546 490 CURVE SMOOTH",
"546 512 OFFCURVE",
"534 546 OFFCURVE",
"507 535 CURVE",
"507 521 OFFCURVE",
"503 494 OFFCURVE",
"467 416 CURVE SMOOTH",
"411 293 OFFCURVE",
"286 18 OFFCURVE",
"163 18 CURVE SMOOTH",
"111 18 OFFCURVE",
"95 48 OFFCURVE",
"95 89 CURVE SMOOTH",
"95 190 OFFCURVE",
"186 305 OFFCURVE",
"234 385 CURVE SMOOTH",
"258 427 OFFCURVE",
"276 466 OFFCURVE",
"276 499 CURVE SMOOTH",
"276 512 OFFCURVE",
"264 543 OFFCURVE",
"237 532 CURVE",
"237 491 OFFCURVE",
"117 313 OFFCURVE",
"63 190 CURVE SMOOTH",
"25 105 OFFCURVE",
"42 -5 OFFCURVE",
"178 -5 CURVE SMOOTH",
"245 -5 OFFCURVE",
"299 34 OFFCURVE",
"340 82 CURVE SMOOTH",
"385 134 OFFCURVE",
"450 237 OFFCURVE",
"492 326 CURVE SMOOTH"
);
},
{
closed = 1;
nodes = (
"349 617 OFFCURVE",
"370 586 OFFCURVE",
"410 586 CURVE SMOOTH",
"450 586 OFFCURVE",
"493 617 OFFCURVE",
"505 656 CURVE SMOOTH",
"518 694 OFFCURVE",
"495 725 OFFCURVE",
"454 725 CURVE SMOOTH",
"413 725 OFFCURVE",
"372 694 OFFCURVE",
"360 656 CURVE SMOOTH"
);
},
{
closed = 1;
nodes = (
"403 684 OFFCURVE",
"432 709 OFFCURVE",
"454 709 CURVE SMOOTH",
"473 709 OFFCURVE",
"484 684 OFFCURVE",
"473 654 CURVE SMOOTH",
"459 624 OFFCURVE",
"434 600 OFFCURVE",
"412 600 CURVE SMOOTH",
"392 600 OFFCURVE",
"380 624 OFFCURVE",
"393 654 CURVE SMOOTH"
);
}
);
width = 454;
}
);
note = Uring;
unicode = 016E;
},
{
color = 0;
glyphname = Utilde;
lastChange = "2021-05-17 19:56:03 +0000";
layers = (
{
hints = (
{
horizontal = 1;
place = "{554, 28}";
type = Stem;
},
{
horizontal = 1;
place = "{577, 23}";
type = Stem;
},
{
place = "{48, 10}";
type = Stem;
},
{
place = "{215, 61}";
type = Stem;
},
{
place = "{285, 188}";
type = Stem;
},
{
place = "{502, 23}";
type = Stem;
},
{
place = "{537, 32}";
type = Stem;
},
{
place = "{741, 14}";
type = Stem;
}
);
layerId = "1C8B4FDB-B0E8-4411-8E26-068C67144FEF";
paths = (
{
closed = 1;
nodes = (
"544 437 OFFCURVE",
"546 467 OFFCURVE",
"546 490 CURVE SMOOTH",
"546 512 OFFCURVE",
"534 546 OFFCURVE",
"507 535 CURVE",
"507 521 OFFCURVE",
"503 494 OFFCURVE",
"467 416 CURVE SMOOTH",
"411 293 OFFCURVE",
"286 18 OFFCURVE",
"163 18 CURVE SMOOTH",
"111 18 OFFCURVE",
"95 48 OFFCURVE",
"95 89 CURVE SMOOTH",
"95 190 OFFCURVE",
"186 305 OFFCURVE",
"234 385 CURVE SMOOTH",
"258 427 OFFCURVE",
"276 466 OFFCURVE",
"276 499 CURVE SMOOTH",
"276 512 OFFCURVE",
"264 543 OFFCURVE",
"237 532 CURVE",
"237 491 OFFCURVE",
"117 313 OFFCURVE",
"63 190 CURVE SMOOTH",
"25 105 OFFCURVE",
"42 -5 OFFCURVE",
"178 -5 CURVE SMOOTH",
"245 -5 OFFCURVE",
"299 34 OFFCURVE",
"340 82 CURVE SMOOTH",
"385 134 OFFCURVE",
"450 237 OFFCURVE",
"492 326 CURVE SMOOTH"
);
},
{
closed = 1;
nodes = (
"532 666 OFFCURVE",
"527 666 OFFCURVE",
"523 666 CURVE",
"511 650 OFFCURVE",
"504 643 OFFCURVE",
"488 643 CURVE SMOOTH",
"454 643 OFFCURVE",
"423 667 OFFCURVE",
"382 667 CURVE SMOOTH",
"349 667 OFFCURVE",
"312 634 OFFCURVE",
"312 610 CURVE SMOOTH",
"312 609 OFFCURVE",
"314 606 OFFCURVE",
"320 608 CURVE",
"329 616 OFFCURVE",
"344 637 OFFCURVE",
"368 637 CURVE SMOOTH",
"403 637 OFFCURVE",
"420 607 OFFCURVE",
"466 607 CURVE SMOOTH",
"489 607 OFFCURVE",
"532 629 OFFCURVE",
"532 656 CURVE SMOOTH"
);
}
);
width = 454;
}
);
note = Utilde;
unicode = 0168;
},
{
color = 0;
glyphname = V;
lastChange = "2021-05-17 19:56:03 +0000";
layers = (
{
hints = (
{
place = "{58, 50}";
type = Stem;
},
{
place = "{150, 40}";
type = Stem;
}
);
layerId = "1C8B4FDB-B0E8-4411-8E26-068C67144FEF";
paths = (
{
closed = 1;
nodes = (
"115 3 OFFCURVE",
"127 24 OFFCURVE",
"144 49 CURVE SMOOTH",
"161 76 OFFCURVE",
"317 267 OFFCURVE",
"394 369 CURVE SMOOTH",
"424 410 OFFCURVE",
"433 424 OFFCURVE",
"454 468 CURVE SMOOTH",
"470 504 OFFCURVE",
"449 529 OFFCURVE",
"420 529 CURVE",
"379 428 OFFCURVE",
"257 280 OFFCURVE",
"166 154 CURVE SMOOTH",
"144 124 OFFCURVE",
"103 68 OFFCURVE",
"93 42 CURVE",
"96 106 OFFCURVE",
"123 200 OFFCURVE",
"138 245 CURVE SMOOTH",
"151 289 OFFCURVE",
"178 399 OFFCURVE",
"178 464 CURVE SMOOTH",
"178 512 OFFCURVE",
"151 532 OFFCURVE",
"115 533 CURVE",
"127 467 OFFCURVE",
"97 295 OFFCURVE",
"68 182 CURVE SMOOTH",
"57 139 OFFCURVE",
"41 56 OFFCURVE",
"62 14 CURVE SMOOTH",
"72 -4 OFFCURVE",
"92 -14 OFFCURVE",
"110 -8 CURVE"
);
}
);
width = 303;
}
);
note = V;
unicode = 0056;
},
{
color = 0;
glyphname = W;
lastChange = "2021-05-17 19:56:03 +0000";
layers = (
{
hints = (
{
place = "{11, 40}";
type = Stem;
},
{
place = "{247, 62}";
type = Stem;
},
{
place = "{535, 23}";
type = Stem;
},
{
place = "{683, 50}";
type = Stem;
},
{
place = "{1028, 59}";
type = Stem;
}
);
layerId = "1C8B4FDB-B0E8-4411-8E26-068C67144FEF";
paths = (
{
closed = 1;
nodes = (
"375 72 OFFCURVE",
"459 178 OFFCURVE",
"569 324 CURVE SMOOTH",
"599 365 OFFCURVE",
"672 462 OFFCURVE",
"683 490 CURVE SMOOTH",
"690 512 OFFCURVE",
"688 555 OFFCURVE",
"656 545 CURVE",
"599 409 OFFCURVE",
"404 199 OFFCURVE",
"314 42 CURVE",
"321 70 OFFCURVE",
"360 202 OFFCURVE",
"372 248 CURVE SMOOTH",
"403 364 OFFCURVE",
"425 419 OFFCURVE",
"420 465 CURVE SMOOTH",
"417 484 OFFCURVE",
"407 524 OFFCURVE",
"377 516 CURVE",
"348 416 OFFCURVE",
"239 275 OFFCURVE",
"161 150 CURVE SMOOTH",
"144 121 OFFCURVE",
"104 68 OFFCURVE",
"93 42 CURVE",
"88 49 OFFCURVE",
"122 195 OFFCURVE",
"139 245 CURVE SMOOTH",
"156 296 OFFCURVE",
"190 438 OFFCURVE",
"175 486 CURVE SMOOTH",
"169 506 OFFCURVE",
"139 542 OFFCURVE",
"116 530 CURVE",
"119 511 OFFCURVE",
"123 490 OFFCURVE",
"123 458 CURVE SMOOTH",
"123 391 OFFCURVE",
"73 200 OFFCURVE",
"63 160 CURVE SMOOTH",
"54 127 OFFCURVE",
"42 56 OFFCURVE",
"63 14 CURVE SMOOTH",
"73 -4 OFFCURVE",
"93 -14 OFFCURVE",
"111 -8 CURVE",
"116 3 OFFCURVE",
"130 23 OFFCURVE",
"144 48 CURVE",
"156 75 OFFCURVE",
"287 275 OFFCURVE",
"353 376 CURVE",
"356 382 OFFCURVE",
"360 388 OFFCURVE",
"365 394 CURVE",
"347 328 OFFCURVE",
"320 241 OFFCURVE",
"304 181 CURVE SMOOTH",
"284 104 OFFCURVE",
"272 46 OFFCURVE",
"284 14 CURVE SMOOTH",
"292 -5 OFFCURVE",
"314 -14 OFFCURVE",
"332 -8 CURVE"
);
}
);
width = 534;
}
);
note = W;
unicode = 0057;
},
{
color = 0;
glyphname = Wacute;
lastChange = "2021-05-17 19:56:03 +0000";
layers = (
{
hints = (
{
place = "{11, 40}";
type = Stem;
},
{
place = "{247, 62}";
type = Stem;
},
{
place = "{535, 23}";
type = Stem;
},
{
place = "{683, 50}";
type = Stem;
},
{
place = "{1028, 59}";
type = Stem;
},
{
horizontal = 1;
place = "{584, 118}";
type = Stem;
},
{
place = "{358, 157}";
type = Stem;
}
);
layerId = "1C8B4FDB-B0E8-4411-8E26-068C67144FEF";
paths = (
{
closed = 1;
nodes = (
"375 72 OFFCURVE",
"459 178 OFFCURVE",
"569 324 CURVE SMOOTH",
"599 365 OFFCURVE",
"672 462 OFFCURVE",
"683 490 CURVE SMOOTH",
"690 512 OFFCURVE",
"688 555 OFFCURVE",
"656 545 CURVE",
"599 409 OFFCURVE",
"404 199 OFFCURVE",
"314 42 CURVE",
"321 70 OFFCURVE",
"360 202 OFFCURVE",
"372 248 CURVE SMOOTH",
"403 364 OFFCURVE",
"425 419 OFFCURVE",
"420 465 CURVE SMOOTH",
"417 484 OFFCURVE",
"407 524 OFFCURVE",
"377 516 CURVE",
"348 416 OFFCURVE",
"239 275 OFFCURVE",
"161 150 CURVE SMOOTH",
"144 121 OFFCURVE",
"104 68 OFFCURVE",
"93 42 CURVE",
"88 49 OFFCURVE",
"122 195 OFFCURVE",
"139 245 CURVE SMOOTH",
"156 296 OFFCURVE",
"190 438 OFFCURVE",
"175 486 CURVE SMOOTH",
"169 506 OFFCURVE",
"139 542 OFFCURVE",
"116 530 CURVE",
"119 511 OFFCURVE",
"123 490 OFFCURVE",
"123 458 CURVE SMOOTH",
"123 391 OFFCURVE",
"73 200 OFFCURVE",
"63 160 CURVE SMOOTH",
"54 127 OFFCURVE",
"42 56 OFFCURVE",
"63 14 CURVE SMOOTH",
"73 -4 OFFCURVE",
"93 -14 OFFCURVE",
"111 -8 CURVE",
"116 3 OFFCURVE",
"130 23 OFFCURVE",
"144 48 CURVE",
"156 75 OFFCURVE",
"287 275 OFFCURVE",
"353 376 CURVE",
"356 382 OFFCURVE",
"360 388 OFFCURVE",
"365 394 CURVE",
"347 328 OFFCURVE",
"320 241 OFFCURVE",
"304 181 CURVE SMOOTH",
"284 104 OFFCURVE",
"272 46 OFFCURVE",
"284 14 CURVE SMOOTH",
"292 -5 OFFCURVE",
"314 -14 OFFCURVE",
"332 -8 CURVE"
);
},
{
closed = 1;
nodes = (
"524 665 OFFCURVE",
"512 674 OFFCURVE",
"504 675 CURVE SMOOTH",
"500 676 OFFCURVE",
"495 676 OFFCURVE",
"492 673 CURVE",
"477 667 OFFCURVE",
"382 604 OFFCURVE",
"364 599 CURVE SMOOTH",
"354 597 OFFCURVE",
"352 594 OFFCURVE",
"352 593 CURVE SMOOTH",
"352 591 OFFCURVE",
"355 589 OFFCURVE",
"359 588 CURVE SMOOTH",
"365 587 OFFCURVE",
"376 587 OFFCURVE",
"389 590 CURVE",
"427 593 OFFCURVE",
"540 644 OFFCURVE",
"538 656 CURVE SMOOTH",
"538 657 OFFCURVE",
"536 658 OFFCURVE",
"535 659 CURVE"
);
}
);
width = 534;
}
);
note = Wacute;
unicode = 1E82;
},
{
color = 0;
glyphname = Wcircumflex;
lastChange = "2021-05-17 19:56:03 +0000";
layers = (
{
hints = (
{
place = "{11, 40}";
type = Stem;
},
{
place = "{247, 62}";
type = Stem;
},
{
place = "{535, 23}";
type = Stem;
},
{
place = "{683, 50}";
type = Stem;
},
{
place = "{1028, 59}";
type = Stem;
},
{
horizontal = 1;
place = "{459, 108}";
type = Stem;
},
{
place = "{233, 231}";
type = Stem;
}
);
layerId = "1C8B4FDB-B0E8-4411-8E26-068C67144FEF";
paths = (
{
closed = 1;
nodes = (
"375 72 OFFCURVE",
"459 178 OFFCURVE",
"569 324 CURVE SMOOTH",
"599 365 OFFCURVE",
"672 462 OFFCURVE",
"683 490 CURVE SMOOTH",
"690 512 OFFCURVE",
"688 555 OFFCURVE",
"656 545 CURVE",
"599 409 OFFCURVE",
"404 199 OFFCURVE",
"314 42 CURVE",
"321 70 OFFCURVE",
"360 202 OFFCURVE",
"372 248 CURVE SMOOTH",
"403 364 OFFCURVE",
"425 419 OFFCURVE",
"420 465 CURVE SMOOTH",
"417 484 OFFCURVE",
"407 524 OFFCURVE",
"377 516 CURVE",
"348 416 OFFCURVE",
"239 275 OFFCURVE",
"161 150 CURVE SMOOTH",
"144 121 OFFCURVE",
"104 68 OFFCURVE",
"93 42 CURVE",
"88 49 OFFCURVE",
"122 195 OFFCURVE",
"139 245 CURVE SMOOTH",
"156 296 OFFCURVE",
"190 438 OFFCURVE",
"175 486 CURVE SMOOTH",
"169 506 OFFCURVE",
"139 542 OFFCURVE",
"116 530 CURVE",
"119 511 OFFCURVE",
"123 490 OFFCURVE",
"123 458 CURVE SMOOTH",
"123 391 OFFCURVE",
"73 200 OFFCURVE",
"63 160 CURVE SMOOTH",
"54 127 OFFCURVE",
"42 56 OFFCURVE",
"63 14 CURVE SMOOTH",
"73 -4 OFFCURVE",
"93 -14 OFFCURVE",
"111 -8 CURVE",
"116 3 OFFCURVE",
"130 23 OFFCURVE",
"144 48 CURVE",
"156 75 OFFCURVE",
"287 275 OFFCURVE",
"353 376 CURVE",
"356 382 OFFCURVE",
"360 388 OFFCURVE",
"365 394 CURVE",
"347 328 OFFCURVE",
"320 241 OFFCURVE",
"304 181 CURVE SMOOTH",
"284 104 OFFCURVE",
"272 46 OFFCURVE",
"284 14 CURVE SMOOTH",
"292 -5 OFFCURVE",
"314 -14 OFFCURVE",
"332 -8 CURVE"
);
},
{
closed = 1;
nodes = (
"309 601 OFFCURVE",
"386 645 OFFCURVE",
"421 657 CURVE",
"429 645 OFFCURVE",
"465 594 OFFCURVE",
"520 594 CURVE",
"499 613 OFFCURVE",
"452 702 OFFCURVE",
"440 708 CURVE",
"394 680 OFFCURVE",
"277 628 OFFCURVE",
"277 576 CURVE"
);
}
);
width = 534;
}
);
note = Wcircumflex;
unicode = 0174;
},
{
color = 0;
glyphname = Wdieresis;
lastChange = "2021-05-17 19:56:03 +0000";
layers = (
{
hints = (
{
place = "{11, 40}";
type = Stem;
},
{
place = "{247, 62}";
type = Stem;
},
{
place = "{535, 23}";
type = Stem;
},
{
place = "{683, 50}";
type = Stem;
},
{
place = "{1028, 59}";
type = Stem;
},
{
place = "{337, 75}";
type = Stem;
},
{
place = "{457, 75}";
type = Stem;
}
);
layerId = "1C8B4FDB-B0E8-4411-8E26-068C67144FEF";
paths = (
{
closed = 1;
nodes = (
"375 72 OFFCURVE",
"459 178 OFFCURVE",
"569 324 CURVE SMOOTH",
"599 365 OFFCURVE",
"672 462 OFFCURVE",
"683 490 CURVE SMOOTH",
"690 512 OFFCURVE",
"688 555 OFFCURVE",
"656 545 CURVE",
"599 409 OFFCURVE",
"404 199 OFFCURVE",
"314 42 CURVE",
"321 70 OFFCURVE",
"360 202 OFFCURVE",
"372 248 CURVE SMOOTH",
"403 364 OFFCURVE",
"425 419 OFFCURVE",
"420 465 CURVE SMOOTH",
"417 484 OFFCURVE",
"407 524 OFFCURVE",
"377 516 CURVE",
"348 416 OFFCURVE",
"239 275 OFFCURVE",
"161 150 CURVE SMOOTH",
"144 121 OFFCURVE",
"104 68 OFFCURVE",
"93 42 CURVE",
"88 49 OFFCURVE",
"122 195 OFFCURVE",
"139 245 CURVE SMOOTH",
"156 296 OFFCURVE",
"190 438 OFFCURVE",
"175 486 CURVE SMOOTH",
"169 506 OFFCURVE",
"139 542 OFFCURVE",
"116 530 CURVE",
"119 511 OFFCURVE",
"123 490 OFFCURVE",
"123 458 CURVE SMOOTH",
"123 391 OFFCURVE",
"73 200 OFFCURVE",
"63 160 CURVE SMOOTH",
"54 127 OFFCURVE",
"42 56 OFFCURVE",
"63 14 CURVE SMOOTH",
"73 -4 OFFCURVE",
"93 -14 OFFCURVE",
"111 -8 CURVE",
"116 3 OFFCURVE",
"130 23 OFFCURVE",
"144 48 CURVE",
"156 75 OFFCURVE",
"287 275 OFFCURVE",
"353 376 CURVE",
"356 382 OFFCURVE",
"360 388 OFFCURVE",
"365 394 CURVE",
"347 328 OFFCURVE",
"320 241 OFFCURVE",
"304 181 CURVE SMOOTH",
"284 104 OFFCURVE",
"272 46 OFFCURVE",
"284 14 CURVE SMOOTH",
"292 -5 OFFCURVE",
"314 -14 OFFCURVE",
"332 -8 CURVE"
);
},
{
closed = 1;
nodes = (
"397 663 OFFCURVE",
"393 667 OFFCURVE",
"389 665 CURVE SMOOTH",
"379 658 OFFCURVE",
"372 656 OFFCURVE",
"362 651 CURVE SMOOTH",
"350 646 OFFCURVE",
"340 639 OFFCURVE",
"331 631 CURVE SMOOTH",
"325 626 OFFCURVE",
"316 613 OFFCURVE",
"323 602 CURVE",
"327 593 OFFCURVE",
"333 585 OFFCURVE",
"345 583 CURVE SMOOTH",
"383 577 OFFCURVE",
"382 640 OFFCURVE",
"395 660 CURVE SMOOTH"
);
},
{
closed = 1;
nodes = (
"517 663 OFFCURVE",
"513 667 OFFCURVE",
"509 665 CURVE SMOOTH",
"499 658 OFFCURVE",
"492 656 OFFCURVE",
"482 651 CURVE SMOOTH",
"470 646 OFFCURVE",
"460 639 OFFCURVE",
"450 631 CURVE SMOOTH",
"444 626 OFFCURVE",
"436 613 OFFCURVE",
"443 602 CURVE",
"447 593 OFFCURVE",
"453 585 OFFCURVE",
"465 583 CURVE SMOOTH",
"503 577 OFFCURVE",
"501 640 OFFCURVE",
"515 660 CURVE SMOOTH"
);
}
);
width = 534;
}
);
note = Wdieresis;
unicode = 1E84;
},
{
color = 0;
glyphname = Wgrave;
lastChange = "2021-05-17 19:56:03 +0000";
layers = (
{
hints = (
{
horizontal = 1;
place = "{560, 118}";
type = Stem;
},
{
horizontal = 1;
place = "{583, 118}";
type = Stem;
},
{
place = "{11, 40}";
type = Stem;
},
{
place = "{247, 62}";
type = Stem;
},
{
place = "{329, 157}";
type = Stem;
},
{
place = "{512, 157}";
type = Stem;
},
{
place = "{535, 23}";
type = Stem;
},
{
place = "{683, 50}";
type = Stem;
},
{
place = "{1028, 59}";
type = Stem;
}
);
layerId = "1C8B4FDB-B0E8-4411-8E26-068C67144FEF";
paths = (
{
closed = 1;
nodes = (
"375 72 OFFCURVE",
"459 178 OFFCURVE",
"569 324 CURVE SMOOTH",
"599 365 OFFCURVE",
"672 462 OFFCURVE",
"683 490 CURVE SMOOTH",
"690 512 OFFCURVE",
"688 555 OFFCURVE",
"656 545 CURVE",
"599 409 OFFCURVE",
"404 199 OFFCURVE",
"314 42 CURVE",
"321 70 OFFCURVE",
"360 202 OFFCURVE",
"372 248 CURVE SMOOTH",
"403 364 OFFCURVE",
"425 419 OFFCURVE",
"420 465 CURVE SMOOTH",
"417 484 OFFCURVE",
"407 524 OFFCURVE",
"377 516 CURVE",
"348 416 OFFCURVE",
"239 275 OFFCURVE",
"161 150 CURVE SMOOTH",
"144 121 OFFCURVE",
"104 68 OFFCURVE",
"93 42 CURVE",
"88 49 OFFCURVE",
"122 195 OFFCURVE",
"139 245 CURVE SMOOTH",
"156 296 OFFCURVE",
"190 438 OFFCURVE",
"175 486 CURVE SMOOTH",
"169 506 OFFCURVE",
"139 542 OFFCURVE",
"116 530 CURVE",
"119 511 OFFCURVE",
"123 490 OFFCURVE",
"123 458 CURVE SMOOTH",
"123 391 OFFCURVE",
"73 200 OFFCURVE",
"63 160 CURVE SMOOTH",
"54 127 OFFCURVE",
"42 56 OFFCURVE",
"63 14 CURVE SMOOTH",
"73 -4 OFFCURVE",
"93 -14 OFFCURVE",
"111 -8 CURVE",
"116 3 OFFCURVE",
"130 23 OFFCURVE",
"144 48 CURVE",
"156 75 OFFCURVE",
"287 275 OFFCURVE",
"353 376 CURVE",
"356 382 OFFCURVE",
"360 388 OFFCURVE",
"365 394 CURVE",
"347 328 OFFCURVE",
"320 241 OFFCURVE",
"304 181 CURVE SMOOTH",
"284 104 OFFCURVE",
"272 46 OFFCURVE",
"284 14 CURVE SMOOTH",
"292 -5 OFFCURVE",
"314 -14 OFFCURVE",
"332 -8 CURVE"
);
},
{
closed = 1;
nodes = (
"324 682 OFFCURVE",
"323 681 OFFCURVE",
"323 680 CURVE",
"318 669 OFFCURVE",
"422 602 OFFCURVE",
"459 592 CURVE SMOOTH",
"472 588 OFFCURVE",
"483 586 OFFCURVE",
"489 586 CURVE SMOOTH",
"493 586 OFFCURVE",
"496 587 OFFCURVE",
"497 589 CURVE",
"497 591 OFFCURVE",
"495 594 OFFCURVE",
"485 598 CURVE SMOOTH",
"469 605 OFFCURVE",
"384 682 OFFCURVE",
"370 690 CURVE",
"368 693 OFFCURVE",
"363 694 OFFCURVE",
"359 694 CURVE SMOOTH",
"350 694 OFFCURVE",
"337 686 OFFCURVE",
"325 682 CURVE"
);
}
);
width = 534;
}
);
note = Wgrave;
unicode = 1E80;
},
{
color = 0;
glyphname = X;
lastChange = "2021-05-17 19:56:03 +0000";
layers = (
{
hints = (
{
place = "{8, 33}";
type = Stem;
}
);
layerId = "1C8B4FDB-B0E8-4411-8E26-068C67144FEF";
paths = (
{
closed = 1;
nodes = (
"149 524 OFFCURVE",
"181 490 OFFCURVE",
"193 411 CURVE SMOOTH",
"215 267 LINE",
"174 229 OFFCURVE",
"134 191 OFFCURVE",
"99 156 CURVE SMOOTH",
"60 117 OFFCURVE",
"6 72 OFFCURVE",
"6 19 CURVE SMOOTH",
"6 -2 OFFCURVE",
"13 -17 OFFCURVE",
"24 -15 CURVE",
"51 30 OFFCURVE",
"127 130 OFFCURVE",
"220 228 CURVE",
"230 160 OFFCURVE",
"232 86 OFFCURVE",
"259 25 CURVE SMOOTH",
"275 -10 OFFCURVE",
"317 -24 OFFCURVE",
"339 -1 CURVE",
"320 8 OFFCURVE",
"292 82 OFFCURVE",
"284 144 CURVE SMOOTH",
"266 274 LINE",
"306 311 OFFCURVE",
"373 362 OFFCURVE",
"421 408 CURVE SMOOTH",
"451 438 OFFCURVE",
"484 475 OFFCURVE",
"484 514 CURVE SMOOTH",
"484 530 OFFCURVE",
"473 538 OFFCURVE",
"460 538 CURVE",
"422 479 OFFCURVE",
"341 392 OFFCURVE",
"261 312 CURVE",
"245 429 LINE SMOOTH",
"238 481 OFFCURVE",
"225 536 OFFCURVE",
"177 536 CURVE SMOOTH",
"167 536 OFFCURVE",
"150 532 OFFCURVE",
"143 529 CURVE"
);
}
);
width = 364;
}
);
note = X;
unicode = 0058;
},
{
color = 0;
glyphname = Y;
lastChange = "2021-05-17 19:56:03 +0000";
layers = (
{
hints = (
{
place = "{29, 37}";
type = Stem;
},
{
place = "{96, 26}";
type = Stem;
},
{
place = "{348, 44}";
type = Stem;
},
{
place = "{666, 31}";
type = Stem;
},
{
place = "{694, 41}";
type = Stem;
}
);
layerId = "1C8B4FDB-B0E8-4411-8E26-068C67144FEF";
paths = (
{
closed = 1;
nodes = (
"102 30 OFFCURVE",
"117 -4 OFFCURVE",
"145 -11 CURVE",
"140 4 OFFCURVE",
"143 25 OFFCURVE",
"153 62 CURVE SMOOTH",
"168 118 OFFCURVE",
"206 210 OFFCURVE",
"235 274 CURVE",
"277 311 OFFCURVE",
"345 365 OFFCURVE",
"389 408 CURVE SMOOTH",
"420 438 OFFCURVE",
"452 475 OFFCURVE",
"452 514 CURVE SMOOTH",
"452 530 OFFCURVE",
"442 538 OFFCURVE",
"428 538 CURVE",
"390 479 OFFCURVE",
"309 392 OFFCURVE",
"229 312 CURVE",
"213 429 LINE SMOOTH",
"207 481 OFFCURVE",
"194 536 OFFCURVE",
"145 536 CURVE SMOOTH",
"135 536 OFFCURVE",
"119 532 OFFCURVE",
"111 529 CURVE",
"117 524 OFFCURVE",
"150 490 OFFCURVE",
"161 411 CURVE SMOOTH",
"178 299 LINE",
"168 275 OFFCURVE",
"142 208 OFFCURVE",
"125 156 CURVE SMOOTH",
"113 120 OFFCURVE",
"104 94 OFFCURVE",
"103 59 CURVE SMOOTH"
);
}
);
width = 294;
}
);
note = Y;
unicode = 0059;
},
{
color = 0;
glyphname = Yacute;
lastChange = "2021-05-17 19:56:03 +0000";
layers = (
{
hints = (
{
horizontal = 1;
place = "{610, 118}";
type = Stem;
},
{
place = "{29, 37}";
type = Stem;
},
{
place = "{96, 26}";
type = Stem;
},
{
place = "{348, 44}";
type = Stem;
},
{
place = "{694, 41}";
type = Stem;
},
{
place = "{229, 156}";
type = Stem;
}
);
layerId = "1C8B4FDB-B0E8-4411-8E26-068C67144FEF";
paths = (
{
closed = 1;
nodes = (
"102 30 OFFCURVE",
"117 -4 OFFCURVE",
"145 -11 CURVE",
"140 4 OFFCURVE",
"143 25 OFFCURVE",
"153 62 CURVE SMOOTH",
"168 118 OFFCURVE",
"206 210 OFFCURVE",
"235 274 CURVE",
"277 311 OFFCURVE",
"345 365 OFFCURVE",
"389 408 CURVE SMOOTH",
"420 438 OFFCURVE",
"452 475 OFFCURVE",
"452 514 CURVE SMOOTH",
"452 530 OFFCURVE",
"442 538 OFFCURVE",
"428 538 CURVE",
"390 479 OFFCURVE",
"309 392 OFFCURVE",
"229 312 CURVE",
"213 429 LINE SMOOTH",
"207 481 OFFCURVE",
"194 536 OFFCURVE",
"145 536 CURVE SMOOTH",
"135 536 OFFCURVE",
"119 532 OFFCURVE",
"111 529 CURVE",
"117 524 OFFCURVE",
"150 490 OFFCURVE",
"161 411 CURVE SMOOTH",
"178 299 LINE",
"168 275 OFFCURVE",
"142 208 OFFCURVE",
"125 156 CURVE SMOOTH",
"113 120 OFFCURVE",
"104 94 OFFCURVE",
"103 59 CURVE SMOOTH"
);
},
{
closed = 1;
nodes = (
"394 691 OFFCURVE",
"382 700 OFFCURVE",
"374 701 CURVE",
"371 702 OFFCURVE",
"365 702 OFFCURVE",
"362 700 CURVE",
"348 694 OFFCURVE",
"252 631 OFFCURVE",
"235 626 CURVE SMOOTH",
"224 623 OFFCURVE",
"222 620 OFFCURVE",
"222 619 CURVE",
"223 617 OFFCURVE",
"225 615 OFFCURVE",
"229 615 CURVE SMOOTH",
"235 614 OFFCURVE",
"246 614 OFFCURVE",
"259 616 CURVE SMOOTH",
"297 620 OFFCURVE",
"411 671 OFFCURVE",
"408 683 CURVE",
"405 685 LINE SMOOTH"
);
}
);
width = 294;
}
);
note = Yacute;
unicode = 00DD;
},
{
color = 0;
glyphname = Ycircumflex;
lastChange = "2021-05-17 19:56:03 +0000";
layers = (
{
hints = (
{
horizontal = 1;
place = "{465, 108}";
type = Stem;
},
{
place = "{29, 37}";
type = Stem;
},
{
place = "{96, 26}";
type = Stem;
},
{
place = "{131, 231}";
type = Stem;
},
{
place = "{348, 44}";
type = Stem;
},
{
place = "{666, 31}";
type = Stem;
},
{
place = "{694, 41}";
type = Stem;
}
);
layerId = "1C8B4FDB-B0E8-4411-8E26-068C67144FEF";
paths = (
{
closed = 1;
nodes = (
"102 30 OFFCURVE",
"117 -4 OFFCURVE",
"145 -11 CURVE",
"140 4 OFFCURVE",
"143 25 OFFCURVE",
"153 62 CURVE SMOOTH",
"168 118 OFFCURVE",
"206 210 OFFCURVE",
"235 274 CURVE",
"277 311 OFFCURVE",
"345 365 OFFCURVE",
"389 408 CURVE SMOOTH",
"420 438 OFFCURVE",
"452 475 OFFCURVE",
"452 514 CURVE SMOOTH",
"452 530 OFFCURVE",
"442 538 OFFCURVE",
"428 538 CURVE",
"390 479 OFFCURVE",
"309 392 OFFCURVE",
"229 312 CURVE",
"213 429 LINE SMOOTH",
"207 481 OFFCURVE",
"194 536 OFFCURVE",
"145 536 CURVE SMOOTH",
"135 536 OFFCURVE",
"119 532 OFFCURVE",
"111 529 CURVE",
"117 524 OFFCURVE",
"150 490 OFFCURVE",
"161 411 CURVE SMOOTH",
"178 299 LINE",
"168 275 OFFCURVE",
"142 208 OFFCURVE",
"125 156 CURVE SMOOTH",
"113 120 OFFCURVE",
"104 94 OFFCURVE",
"103 59 CURVE SMOOTH"
);
},
{
closed = 1;
nodes = (
"207 607 OFFCURVE",
"284 651 OFFCURVE",
"319 663 CURVE",
"327 651 OFFCURVE",
"363 600 OFFCURVE",
"418 600 CURVE",
"397 619 OFFCURVE",
"350 708 OFFCURVE",
"338 714 CURVE",
"292 686 OFFCURVE",
"175 634 OFFCURVE",
"175 582 CURVE"
);
}
);
width = 294;
}
);
note = Ycircumflex;
unicode = 0176;
},
{
color = 0;
glyphname = Ydieresis;
lastChange = "2021-05-17 19:56:03 +0000";
layers = (
{
hints = (
{
place = "{29, 37}";
type = Stem;
},
{
place = "{96, 26}";
type = Stem;
},
{
place = "{244, 75}";
type = Stem;
},
{
place = "{348, 44}";
type = Stem;
},
{
place = "{364, 75}";
type = Stem;
},
{
place = "{666, 31}";
type = Stem;
},
{
place = "{694, 41}";
type = Stem;
}
);
layerId = "1C8B4FDB-B0E8-4411-8E26-068C67144FEF";
paths = (
{
closed = 1;
nodes = (
"102 30 OFFCURVE",
"117 -4 OFFCURVE",
"145 -11 CURVE",
"140 4 OFFCURVE",
"143 25 OFFCURVE",
"153 62 CURVE SMOOTH",
"168 118 OFFCURVE",
"206 210 OFFCURVE",
"235 274 CURVE",
"277 311 OFFCURVE",
"345 365 OFFCURVE",
"389 408 CURVE SMOOTH",
"420 438 OFFCURVE",
"452 475 OFFCURVE",
"452 514 CURVE SMOOTH",
"452 530 OFFCURVE",
"442 538 OFFCURVE",
"428 538 CURVE",
"390 479 OFFCURVE",
"309 392 OFFCURVE",
"229 312 CURVE",
"213 429 LINE SMOOTH",
"207 481 OFFCURVE",
"194 536 OFFCURVE",
"145 536 CURVE SMOOTH",
"135 536 OFFCURVE",
"119 532 OFFCURVE",
"111 529 CURVE",
"117 524 OFFCURVE",
"150 490 OFFCURVE",
"161 411 CURVE SMOOTH",
"178 299 LINE",
"168 275 OFFCURVE",
"142 208 OFFCURVE",
"125 156 CURVE SMOOTH",
"113 120 OFFCURVE",
"104 94 OFFCURVE",
"103 59 CURVE SMOOTH"
);
},
{
closed = 1;
nodes = (
"304 704 OFFCURVE",
"300 708 OFFCURVE",
"296 706 CURVE SMOOTH",
"286 699 OFFCURVE",
"279 697 OFFCURVE",
"269 692 CURVE SMOOTH",
"257 687 OFFCURVE",
"247 680 OFFCURVE",
"238 672 CURVE SMOOTH",
"232 667 OFFCURVE",
"223 654 OFFCURVE",
"230 643 CURVE",
"234 634 OFFCURVE",
"240 626 OFFCURVE",
"252 624 CURVE SMOOTH",
"290 618 OFFCURVE",
"289 681 OFFCURVE",
"302 701 CURVE SMOOTH"
);
},
{
closed = 1;
nodes = (
"424 704 OFFCURVE",
"420 708 OFFCURVE",
"416 706 CURVE SMOOTH",
"406 699 OFFCURVE",
"399 697 OFFCURVE",
"389 692 CURVE SMOOTH",
"377 687 OFFCURVE",
"367 680 OFFCURVE",
"357 672 CURVE SMOOTH",
"351 667 OFFCURVE",
"343 654 OFFCURVE",
"350 643 CURVE",
"354 634 OFFCURVE",
"360 626 OFFCURVE",
"372 624 CURVE SMOOTH",
"410 618 OFFCURVE",
"408 681 OFFCURVE",
"422 701 CURVE SMOOTH"
);
}
);
width = 294;
}
);
note = Ydieresis;
unicode = 0178;
},
{
color = 0;
glyphname = Z;
lastChange = "2021-05-17 19:56:03 +0000";
layers = (
{
hints = (
{
place = "{-14, 17}";
type = Stem;
},
{
place = "{8, 29}";
type = Stem;
},
{
place = "{151, 37}";
type = Stem;
},
{
place = "{169, 53}";
type = Stem;
},
{
place = "{642, 41}";
type = Stem;
},
{
place = "{755, 21}";
type = Stem;
}
);
layerId = "1C8B4FDB-B0E8-4411-8E26-068C67144FEF";
paths = (
{
closed = 1;
nodes = (
"17 26 OFFCURVE",
"37 -11 OFFCURVE",
"71 -11 CURVE SMOOTH",
"114 -11 OFFCURVE",
"194 -1 OFFCURVE",
"258 6 CURVE SMOOTH",
"286 8 OFFCURVE",
"323 3 OFFCURVE",
"339 -1 CURVE",
"339 39 OFFCURVE",
"317 51 OFFCURVE",
"267 51 CURVE SMOOTH",
"241 51 OFFCURVE",
"158 32 OFFCURVE",
"124 26 CURVE SMOOTH",
"93 20 OFFCURVE",
"54 23 OFFCURVE",
"82 72 CURVE SMOOTH",
"105 113 OFFCURVE",
"292 284 OFFCURVE",
"385 375 CURVE SMOOTH",
"415 405 OFFCURVE",
"473 447 OFFCURVE",
"473 480 CURVE SMOOTH",
"473 506 OFFCURVE",
"456 526 OFFCURVE",
"434 526 CURVE SMOOTH",
"389 526 OFFCURVE",
"339 515 OFFCURVE",
"298 508 CURVE SMOOTH",
"256 501 OFFCURVE",
"201 503 OFFCURVE",
"178 511 CURVE",
"173 498 OFFCURVE",
"193 471 OFFCURVE",
"229 465 CURVE SMOOTH",
"273 457 OFFCURVE",
"327 485 OFFCURVE",
"429 496 CURVE",
"380 431 OFFCURVE",
"280 339 OFFCURVE",
"207 271 CURVE SMOOTH",
"128 201 OFFCURVE",
"17 110 OFFCURVE",
"17 59 CURVE SMOOTH"
);
}
);
width = 345;
}
);
note = Z;
unicode = 005A;
},
{
color = 0;
glyphname = Zacute;
lastChange = "2021-05-17 19:56:03 +0000";
layers = (
{
hints = (
{
horizontal = 1;
place = "{601, 118}";
type = Stem;
},
{
place = "{-14, 17}";
type = Stem;
},
{
place = "{8, 29}";
type = Stem;
},
{
place = "{151, 37}";
type = Stem;
},
{
place = "{169, 53}";
type = Stem;
},
{
place = "{338, 157}";
type = Stem;
},
{
place = "{642, 41}";
type = Stem;
},
{
place = "{755, 21}";
type = Stem;
}
);
layerId = "1C8B4FDB-B0E8-4411-8E26-068C67144FEF";
paths = (
{
closed = 1;
nodes = (
"17 26 OFFCURVE",
"37 -11 OFFCURVE",
"71 -11 CURVE SMOOTH",
"114 -11 OFFCURVE",
"194 -1 OFFCURVE",
"258 6 CURVE SMOOTH",
"286 8 OFFCURVE",
"323 3 OFFCURVE",
"339 -1 CURVE",
"339 39 OFFCURVE",
"317 51 OFFCURVE",
"267 51 CURVE SMOOTH",
"241 51 OFFCURVE",
"158 32 OFFCURVE",
"124 26 CURVE SMOOTH",
"93 20 OFFCURVE",
"54 23 OFFCURVE",
"82 72 CURVE SMOOTH",
"105 113 OFFCURVE",
"292 284 OFFCURVE",
"385 375 CURVE SMOOTH",
"415 405 OFFCURVE",
"473 447 OFFCURVE",
"473 480 CURVE SMOOTH",
"473 506 OFFCURVE",
"456 526 OFFCURVE",
"434 526 CURVE SMOOTH",
"389 526 OFFCURVE",
"339 515 OFFCURVE",
"298 508 CURVE SMOOTH",
"256 501 OFFCURVE",
"201 503 OFFCURVE",
"178 511 CURVE",
"173 498 OFFCURVE",
"193 471 OFFCURVE",
"229 465 CURVE SMOOTH",
"273 457 OFFCURVE",
"327 485 OFFCURVE",
"429 496 CURVE",
"380 431 OFFCURVE",
"280 339 OFFCURVE",
"207 271 CURVE SMOOTH",
"128 201 OFFCURVE",
"17 110 OFFCURVE",
"17 59 CURVE SMOOTH"
);
},
{
closed = 1;
nodes = (
"504 682 OFFCURVE",
"492 691 OFFCURVE",
"484 692 CURVE SMOOTH",
"480 693 OFFCURVE",
"475 693 OFFCURVE",
"472 690 CURVE",
"457 684 OFFCURVE",
"362 621 OFFCURVE",
"344 616 CURVE SMOOTH",
"334 614 OFFCURVE",
"332 611 OFFCURVE",
"332 610 CURVE SMOOTH",
"332 608 OFFCURVE",
"335 606 OFFCURVE",
"339 605 CURVE SMOOTH",
"345 604 OFFCURVE",
"356 604 OFFCURVE",
"369 607 CURVE",
"407 610 OFFCURVE",
"520 661 OFFCURVE",
"518 673 CURVE SMOOTH",
"518 674 OFFCURVE",
"516 675 OFFCURVE",
"515 676 CURVE"
);
}
);
width = 345;
}
);
note = Zacute;
unicode = 0179;
},
{
color = 0;
glyphname = Zdotaccent;
lastChange = "2021-05-17 19:56:03 +0000";
layers = (
{
hints = (
{
horizontal = 1;
place = "{580, 74}";
type = Stem;
},
{
place = "{-14, 17}";
type = Stem;
},
{
place = "{8, 29}";
type = Stem;
},
{
place = "{151, 37}";
type = Stem;
},
{
place = "{169, 53}";
type = Stem;
},
{
place = "{364, 67}";
type = Stem;
},
{
place = "{384, 75}";
type = Stem;
},
{
place = "{642, 41}";
type = Stem;
},
{
place = "{755, 21}";
type = Stem;
}
);
layerId = "1C8B4FDB-B0E8-4411-8E26-068C67144FEF";
paths = (
{
closed = 1;
nodes = (
"17 26 OFFCURVE",
"37 -11 OFFCURVE",
"71 -11 CURVE SMOOTH",
"114 -11 OFFCURVE",
"194 -1 OFFCURVE",
"258 6 CURVE SMOOTH",
"286 8 OFFCURVE",
"323 3 OFFCURVE",
"339 -1 CURVE",
"339 39 OFFCURVE",
"317 51 OFFCURVE",
"267 51 CURVE SMOOTH",
"241 51 OFFCURVE",
"158 32 OFFCURVE",
"124 26 CURVE SMOOTH",
"93 20 OFFCURVE",
"54 23 OFFCURVE",
"82 72 CURVE SMOOTH",
"105 113 OFFCURVE",
"292 284 OFFCURVE",
"385 375 CURVE SMOOTH",
"415 405 OFFCURVE",
"473 447 OFFCURVE",
"473 480 CURVE SMOOTH",
"473 506 OFFCURVE",
"456 526 OFFCURVE",
"434 526 CURVE SMOOTH",
"389 526 OFFCURVE",
"339 515 OFFCURVE",
"298 508 CURVE SMOOTH",
"256 501 OFFCURVE",
"201 503 OFFCURVE",
"178 511 CURVE",
"173 498 OFFCURVE",
"193 471 OFFCURVE",
"229 465 CURVE SMOOTH",
"273 457 OFFCURVE",
"327 485 OFFCURVE",
"429 496 CURVE",
"380 431 OFFCURVE",
"280 339 OFFCURVE",
"207 271 CURVE SMOOTH",
"128 201 OFFCURVE",
"17 110 OFFCURVE",
"17 59 CURVE SMOOTH"
);
},
{
closed = 1;
nodes = (
"439 664 OFFCURVE",
"405 655 OFFCURVE",
"404 654 CURVE",
"393 649 OFFCURVE",
"383 642 OFFCURVE",
"374 634 CURVE SMOOTH",
"368 630 OFFCURVE",
"361 617 OFFCURVE",
"367 607 CURVE SMOOTH",
"371 599 OFFCURVE",
"377 591 OFFCURVE",
"388 590 CURVE SMOOTH",
"424 584 OFFCURVE",
"419 631 OFFCURVE",
"432 649 CURVE"
);
}
);
width = 345;
}
);
note = Zdotaccent;
unicode = 017B;
},
{
color = 1;
glyphname = A.ss01;
lastChange = "2021-06-23 02:28:57 +0000";
layers = (
{
anchors = (
{
name = bottom;
position = "{130, -23}";
},
{
name = ogonek;
position = "{463, -29}";
},
{
name = top;
position = "{643, 730}";
}
);
layerId = "1C8B4FDB-B0E8-4411-8E26-068C67144FEF";
paths = (
{
closed = 1;
nodes = (
"740.333 648.667 OFFCURVE",
"682 679 OFFCURVE",
"586 667 CURVE SMOOTH",
"412.667 647 OFFCURVE",
"266 561.333 OFFCURVE",
"166 436 CURVE",
"134 448 OFFCURVE",
"108 464 OFFCURVE",
"88 484 CURVE SMOOTH",
"65.333 506.667 OFFCURVE",
"54.333 534 OFFCURVE",
"69 570 CURVE SMOOTH",
"77 592.667 OFFCURVE",
"67.333 595.667 OFFCURVE",
"58 581 CURVE SMOOTH",
"37.283 549.925 OFFCURVE",
"35.95 495.345 OFFCURVE",
"63 471 CURVE SMOOTH",
"85.667 448.333 OFFCURVE",
"116.333 431.667 OFFCURVE",
"151 417 CURVE",
"124.333 382.333 OFFCURVE",
"101.333 347.667 OFFCURVE",
"80 309 CURVE SMOOTH",
"2.355 170.695 OFFCURVE",
"-12.09 8.172 OFFCURVE",
"76 -30 CURVE SMOOTH",
"116 -47.333 OFFCURVE",
"161 -40.833 OFFCURVE",
"205 -21.5 CURVE SMOOTH",
"227 -11.833 OFFCURVE",
"248.667 0.667 OFFCURVE",
"270 16 CURVE SMOOTH",
"312.667 46.667 OFFCURVE",
"352 82.5 OFFCURVE",
"384 116.5 CURVE SMOOTH",
"400 133.5 OFFCURVE",
"414 149 OFFCURVE",
"426 163 CURVE",
"380.131 100.749 OFFCURVE",
"366.41 -29 OFFCURVE",
"463 -29 CURVE SMOOTH",
"532.665 -29 OFFCURVE",
"606.675 63.844 OFFCURVE",
"642 108 CURVE",
"657.244 123.244 OFFCURVE",
"650.763 141.729 OFFCURVE",
"637 126 CURVE SMOOTH",
"598.937 82.861 OFFCURVE",
"535.896 17 OFFCURVE",
"491 17 CURVE SMOOTH",
"464.333 17 OFFCURVE",
"456 46 OFFCURVE",
"466 104 CURVE SMOOTH",
"479.02 184.722 OFFCURVE",
"529.33 272.33 OFFCURVE",
"581 324 CURVE SMOOTH",
"597.172 340.172 OFFCURVE",
"536.802 380.336 OFFCURVE",
"521 354 CURVE SMOOTH",
"471.943 280.415 OFFCURVE",
"370.158 123.947 OFFCURVE",
"292 60 CURVE SMOOTH",
"213.333 -5.333 OFFCURVE",
"140.667 -28.167 OFFCURVE",
"98 -7.5 CURVE SMOOTH",
"48.351 16.549 OFFCURVE",
"49.658 93.343 OFFCURVE",
"87 185 CURVE SMOOTH",
"114.004 253.738 OFFCURVE",
"176.976 362.694 OFFCURVE",
"208 405 CURVE",
"292 390.333 OFFCURVE",
"377 398.333 OFFCURVE",
"477 417 CURVE SMOOTH",
"579.667 437 OFFCURVE",
"646.667 467.667 OFFCURVE",
"688 501 CURVE SMOOTH",
"729.333 534.333 OFFCURVE",
"744.333 567.333 OFFCURVE",
"743 594 CURVE SMOOTH"
);
},
{
closed = 1;
nodes = (
"711.802 519.667 OFFCURVE",
"606.22 457.676 OFFCURVE",
"476 434 CURVE SMOOTH",
"364 411.333 OFFCURVE",
"290.667 407.667 OFFCURVE",
"220 421 CURVE",
"317.104 529.202 OFFCURVE",
"430.699 628.445 OFFCURVE",
"590 649 CURVE SMOOTH",
"654 655.667 OFFCURVE",
"703.333 640.667 OFFCURVE",
"706 598 CURVE SMOOTH"
);
}
);
width = 613;
}
);
note = A;
},
